<?xml version="1.0" encoding="utf-8"?>
<!-- Generator: Adobe Illustrator 16.0.0, SVG Export Plug-In . SVG Version: 6.00 Build 0)  -->
<!DOCTYPE svg PUBLIC "-//W3C//DTD SVG 1.1//EN" "http://www.w3.org/Graphics/SVG/1.1/DTD/svg11.dtd">
<svg version="1.1" id="Layer_1" xmlns="http://www.w3.org/2000/svg" xmlns:xlink="http://www.w3.org/1999/xlink" x="0px" y="0px"
	 width="338.782px" height="422.201px" viewBox="0 0 338.782 422.201" enable-background="new 0 0 338.782 422.201"
	 xml:space="preserve">
<g>
	<path fill-rule="evenodd" clip-rule="evenodd" fill="#003366" d="M237.738,351.695c-5.41-2.867-10.485-5.569-15.573-8.25
		c-16.892-8.902-33.794-17.786-50.676-26.708c-1.974-1.043-3.863-1.497-6.211-1.319c-8.319,0.629-13.786-4.536-14.055-12.832
		c-0.221-6.844,2.346-12.878,5.528-18.689c7.681-14.025,18.12-25.938,29.076-37.418c17.81-18.661,36.71-36.077,58.582-49.963
		c6.887-4.372,14.101-8.14,22.378-9.311c11.611-1.643,18.184,4.499,16.918,16.11c-0.195,1.789,0.549,3,1.196,4.373
		c16.542,35.103,33.219,70.143,49.597,105.322c7.661,16.458,4.769,32.04-6.456,45.725c-11.31,13.787-26.023,19.765-43.94,15.627
		c-2.612-0.604-4.27-0.194-6.196,1.674c-13.517,13.119-27.159,26.106-40.761,39.137c-7.671,7.348-15.961,8.977-23.918,4.694
		c-10.02-5.392-16.343-16.421-14.726-25.779c0.722-4.174,2.914-7.52,5.947-10.42C215.443,373.149,226.399,362.591,237.738,351.695z
		 M166.458,299.499c24.915-4.307,95.506-71.013,101.388-97.02c-5.458,0.964-10.003,3.727-14.46,6.531
		c-27.787,17.479-51.113,39.899-71.672,65.301C175.616,281.847,169.637,289.549,166.458,299.499z"/>
	<path fill-rule="evenodd" clip-rule="evenodd" fill="#003366" d="M71.727,229.291c-39.323-0.108-71.854-32.324-71.723-71.028
		c0.138-40.88,31.516-72.7,71.615-72.281c41.273,0.431,71.582,29.424,72.048,72.646C144.086,197.471,111.008,229.399,71.727,229.291
		z M58.465,182.518c0,3.609-0.055,7.219,0.013,10.827c0.11,5.87,3.04,9.327,7.724,9.239c4.571-0.085,7.298-3.342,7.359-9.049
		c0.076-7.061,0.228-14.13-0.066-21.179c-0.153-3.654,1.101-4.644,4.543-4.373c3.427,0.269,6.911,0.195,10.344-0.072
		c4.195-0.326,6.58-2.885,6.757-7.044c0.178-4.165-2.02-6.811-6.134-7.642c-1.366-0.275-2.805-0.25-4.211-0.257
		c-11.681-0.063-11.681-0.055-11.209-11.583c0.452-11.072,9.079-16.488,19.247-12.083c4.724,2.045,8.525,1.129,10.605-2.558
		c2.22-3.934,1-8.132-3.544-10.733c-6.72-3.846-13.943-4.501-21.342-2.323c-13.116,3.86-20.075,14.461-20.086,30.373
		c-0.006,8.86-0.006,8.858-8.641,8.901c-1.097,0.006-2.208-0.051-3.29,0.088c-4.352,0.558-7.374,3.924-7.147,7.879
		c0.223,3.886,3.156,6.778,7.431,7.041c2.971,0.183,5.963,0.156,8.939,0.05c2.043-0.074,2.785,0.709,2.734,2.732
		C58.392,174.671,58.461,178.595,58.465,182.518z"/>
	<path fill-rule="evenodd" clip-rule="evenodd" fill="#003366" d="M71.507,403.582C31.064,403.641-0.08,372.152,0,331.288
		c0.077-38.72,32.731-71.013,71.843-71.047c39.138-0.035,72.354,32.159,71.823,70.912
		C143.039,377.067,109.737,403.706,71.507,403.582z M86.339,318.341c5.624,4.532,10.211,8.653,15.855,11.159
		c4.219,1.875,8.78-0.043,10.602-4.113c1.793-4.011,0.146-8.164-4.252-9.958c-2.079-0.848-3.83-2.039-5.58-3.36
		c-6.264-4.733-12.218-9.832-17.874-15.267c-2.748-2.643-5.754-3.865-9.353-2.309c-3.661,1.584-4.556,4.723-4.53,8.497
		c0.097,13.807,0.04,27.613,0.038,41.421c-0.002,9.117-2.415,11.361-11.459,11.189c-3.223-0.061-5.2-1.212-5.35-4.476
		c-0.144-3.131,1.433-4.768,4.71-5.243c4.845-0.704,7.301-4.186,6.505-8.537c-0.745-4.072-4.76-6.814-9.121-6.229
		c-9.15,1.228-16.401,8.787-17.189,17.919c-0.813,9.408,4.967,18.589,14.168,20.745c21.036,4.927,33.378-8.019,32.88-23.944
		C86.111,336.965,86.339,328.079,86.339,318.341z"/>
	<path fill-rule="evenodd" clip-rule="evenodd" fill="#003366" d="M229.518,145.379c-39.987-0.085-72.776-32.718-72.664-72.318
		C156.972,31.391,188.404-0.068,229.853,0c41.421,0.067,72.883,31.85,72.66,73.4C302.3,113.186,269.565,145.464,229.518,145.379z
		 M270.187,72.677c0-6.902,0.062-13.805-0.014-20.706c-0.127-11.623-8.249-19.844-19.845-19.934
		c-13.646-0.105-27.294-0.087-40.941-0.008c-11.885,0.07-20.119,8.245-20.202,20.093c-0.096,13.646-0.102,27.295,0.003,40.941
		c0.089,11.571,8.364,19.87,19.882,19.952c13.804,0.098,27.609,0.11,41.412-0.005c11.304-0.094,19.531-8.36,19.687-19.627
		C270.264,86.483,270.187,79.58,270.187,72.677z"/>
	<path fill-rule="evenodd" clip-rule="evenodd" fill="#003366" d="M218.435,172.503c0,4.544,0.04,9.089-0.011,13.633
		c-0.054,4.696-2.652,7.733-6.774,8.051c-4.375,0.337-7.906-2.458-8.185-7.183c-0.572-9.699-0.908-19.416-1.103-29.131
		c-0.093-4.638,3.3-7.929,7.532-7.922c4.056,0.006,7.257,3.047,7.434,7.521c0.198,5.002,0.046,10.019,0.046,15.029
		C217.728,172.502,218.081,172.503,218.435,172.503z"/>
	<path fill-rule="evenodd" clip-rule="evenodd" fill="#003366" d="M124.891,231.978c9.972,0.865,19.185,1.596,28.382,2.494
		c4.867,0.476,7.771,3.688,7.51,7.896c-0.27,4.351-3.987,7.453-8.842,7.074c-9.213-0.718-18.42-1.532-27.618-2.429
		c-4.771-0.466-7.827-3.809-7.547-7.906C117.072,234.769,120.784,231.804,124.891,231.978z"/>
	<path fill-rule="evenodd" clip-rule="evenodd" fill="#003366" d="M184.699,209.256c-0.046,3.124-1.478,5.383-4.288,6.733
		c-2.841,1.364-5.692,1.121-7.862-1.06c-6.307-6.34-12.574-12.737-18.545-19.39c-2.812-3.133-2.174-7.545,0.936-10.087
		c3.208-2.623,6.868-2.849,9.82,0.038c6.282,6.142,12.252,12.604,18.308,18.976C184.305,205.77,184.712,207.469,184.699,209.256z"/>
	<path fill-rule="evenodd" clip-rule="evenodd" fill="#003366" d="M229.694,47.114c6.589,0,13.179,0.071,19.766-0.027
		c3.971-0.059,5.694,1.718,5.674,5.673c-0.068,13.177-0.073,26.355,0.003,39.534c0.023,3.976-1.752,5.708-5.679,5.692
		c-13.178-0.051-26.355-0.055-39.532,0.003c-3.943,0.018-5.719-1.77-5.704-5.697c0.05-13.178,0.045-26.355,0.003-39.534
		c-0.013-3.91,1.72-5.737,5.703-5.673C216.515,47.19,223.105,47.114,229.694,47.114z M229.603,93.255
		c11.134,0.061,20.613-9.469,20.609-20.718c-0.003-11.074-9.191-20.506-20.153-20.69c-11.175-0.187-20.64,9.12-20.814,20.469
		C209.071,83.542,218.455,93.195,229.603,93.255z"/>
	<path fill-rule="evenodd" clip-rule="evenodd" fill="#003366" d="M224.188,72.564c0.484-3.261,2.139-5.628,5.683-5.532
		c3.236,0.087,5.229,2.227,5.24,5.433c0.012,3.438-2.074,5.638-5.545,5.596C226.301,78.021,224.681,75.746,224.188,72.564z"/>
</g>
</svg>
