<?xml version="1.0" encoding="utf-8"?>
<!-- Generator: Adobe Illustrator 16.0.0, SVG Export Plug-In . SVG Version: 6.00 Build 0)  -->
<!DOCTYPE svg PUBLIC "-//W3C//DTD SVG 1.1//EN" "http://www.w3.org/Graphics/SVG/1.1/DTD/svg11.dtd">
<svg version="1.1" id="Layer_1" xmlns="http://www.w3.org/2000/svg" xmlns:xlink="http://www.w3.org/1999/xlink" x="0px" y="0px"
	 width="770.321px" height="783.256px" viewBox="0 0 770.321 783.256" enable-background="new 0 0 770.321 783.256"
	 xml:space="preserve">
<g>
	<path fill-rule="evenodd" clip-rule="evenodd" fill="#003366" d="M149.573,702.491c-20.32-35.891-40.239-71.073-60.433-106.74
		c1.708-1.212,3.097-2.371,4.64-3.266c30.096-17.447,60.641-34.166,90.19-52.491c26.398-16.371,52.395-18.166,81.484-7.109
		c31.406,11.937,64.001,20.747,96.124,30.775c4.646,1.449,9.575,1.958,14.318,3.125c12.444,3.061,20.42,14.167,18.722,25.885
		c-1.776,12.258-10.842,20.033-24.634,18.03c-15.513-2.251-30.734-6.67-45.98-10.55c-12.102-3.079-24.021-6.866-36.074-10.15
		c-9.469-2.58-16.612,0.504-18.8,7.787c-2.397,7.977,1.84,14.838,11.575,17.301c31.843,8.054,63.633,16.393,95.688,23.516
		c24.598,5.467,47.962,0.723,69.795-12.135c39.341-23.171,78.571-46.56,118.445-68.782c14.784-8.238,30.756-15.396,47.074-19.579
		c23.409-6.001,39.226,10.627,32.634,32.6c-1.491,4.971-5.522,10.371-9.92,13.102c-75.741,47.02-151.697,93.693-227.674,140.334
		c-17.845,10.955-37.015,13.318-57.255,7.877c-52.453-14.098-104.991-27.891-157.354-42.317c-9.957-2.742-18.413-2.537-26.847,3.678
		C160.742,696.73,155.481,699.117,149.573,702.491z"/>
	<path fill-rule="evenodd" clip-rule="evenodd" fill="#003366" d="M365.241,189.318c9.521,0,19.043,0.072,28.563-0.019
		c10.469-0.1,15.386-3.621,18.652-13.605c5.656-17.291,11.12-34.644,16.714-51.954c3.485-10.784,8.198-14.881,16.778-14.776
		c8.259,0.102,12.676,4.025,16.104,14.51c5.651,17.292,11.17,34.627,16.877,51.902c3.512,10.633,8.036,13.893,19.171,13.923
		c18.769,0.051,37.54,0.088,56.309-0.094c8.271-0.08,14.28,2.91,17.056,10.99c2.827,8.23-0.602,14.25-7.146,18.994
		c-14.31,10.37-28.642,20.71-42.967,31.059c-12.773,9.229-13.956,12.7-9.173,27.429c5.451,16.787,11.007,33.541,16.399,50.346
		c2.908,9.067,1.069,16.005-5.334,20.298c-7.077,4.746-13.818,3.427-20.366-1.389c-14.678-10.79-29.404-21.514-44.136-32.229
		c-10.752-7.822-15.313-7.79-26.29,0.177c-14.523,10.541-28.98,21.174-43.538,31.668c-7.995,5.762-14.696,6.165-20.966,1.584
		c-6.361-4.647-8.023-11.059-4.984-20.463c5.509-17.051,11.174-34.054,16.734-51.087c4.131-12.657,2.632-17.371-8.006-25.108
		c-14.512-10.555-29.083-21.028-43.583-31.601c-8.209-5.986-11.012-12.658-8.104-20.179c3.201-8.278,9.833-10.826,18.309-10.515
		c8.965,0.33,17.951,0.075,26.928,0.075C365.241,189.275,365.241,189.298,365.241,189.318z"/>
	<path fill-rule="evenodd" clip-rule="evenodd" fill="#003366" d="M610.873,310.757c7.07-0.006,14.144-0.139,21.21,0.029
		c7.576,0.178,12.18-3.164,14.433-10.474c4.075-13.228,8.641-26.304,12.702-39.536c2.096-6.825,5.408-12.191,13.245-12.1
		c7.419,0.084,10.696,5.278,12.721,11.749c4.135,13.21,8.683,26.292,12.658,39.551c2.317,7.73,7.096,10.958,14.996,10.835
		c13.322-0.208,26.65,0.043,39.974-0.091c7.151-0.073,13.924,0.491,16.699,8.501c2.969,8.569-2.732,12.977-8.729,17.241
		c-10.632,7.562-21.07,15.395-31.763,22.867c-6.717,4.693-8.844,10.317-6.06,18.255c4.67,13.317,8.691,26.862,13.289,40.208
		c2.199,6.385,1.736,11.912-3.892,16.016c-5.679,4.141-11.191,2.623-16.488-1.309c-10.477-7.773-21.043-15.428-31.585-23.115
		c-10.848-7.91-13.185-7.906-23.735-0.193c-10.531,7.701-21.129,15.311-31.609,23.079c-5.229,3.875-10.649,5.776-16.485,1.763
		c-6.147-4.229-6.354-10.018-4.067-16.644c4.516-13.084,8.497-26.354,13.037-39.428c2.833-8.157,0.805-14.034-6.303-18.932
		c-11.411-7.865-22.445-16.273-33.772-24.263c-5.431-3.83-8.555-8.547-6.51-15.222c2.062-6.731,7.411-8.86,14.009-8.798
		C596.188,310.818,603.531,310.764,610.873,310.757z"/>
	<path fill-rule="evenodd" clip-rule="evenodd" fill="#003366" d="M156.988,310.757c7.071-0.006,14.145-0.139,21.211,0.029
		c7.567,0.18,12.186-3.129,14.442-10.455c3.994-12.969,8.536-25.77,12.476-38.755c2.135-7.039,5.156-12.985,13.459-12.893
		c7.856,0.088,10.882,5.79,12.951,12.513c3.993,12.969,8.542,25.768,12.445,38.764c2.319,7.728,7.081,10.973,14.987,10.85
		c13.322-0.208,26.651,0.046,39.974-0.093c7.157-0.076,13.959,0.495,16.711,8.488c2.932,8.516-2.692,12.989-8.722,17.266
		c-10.642,7.547-21.046,15.433-31.763,22.869c-6.778,4.704-8.823,10.346-6.076,18.241c4.636,13.33,8.698,26.857,13.29,40.203
		c2.193,6.375,1.758,11.91-3.887,16.019c-5.686,4.136-11.193,2.626-16.491-1.302c-10.918-8.093-21.908-16.09-32.906-24.076
		c-9.128-6.629-12.163-6.667-21.105-0.199c-11.012,7.966-22.007,15.955-32.925,24.049c-5.231,3.879-10.654,5.76-16.488,1.745
		c-6.142-4.228-6.367-10.004-4.071-16.638c4.525-13.079,8.477-26.357,13.056-39.416c2.876-8.201,0.748-14.05-6.298-18.937
		c-11.389-7.898-22.449-16.269-33.767-24.272c-5.395-3.816-8.63-8.487-6.543-15.2c2.087-6.715,7.409-8.874,14.012-8.811
		C142.303,310.819,149.646,310.764,156.988,310.757z"/>
	<path fill-rule="evenodd" clip-rule="evenodd" fill="#003366" d="M41.6,567.82c2.158,2.764,4.751,5.356,6.499,8.432
		c25.661,45.13,51.211,90.323,76.785,135.503c7.632,13.484,15.138,27.04,22.947,40.421c3.284,5.626,2.603,9.442-3.332,12.617
		c-9.583,5.127-19.179,10.293-28.355,16.1c-6.824,4.318-10.399,2.583-14.14-4.096c-24.169-43.162-48.644-86.153-73.018-129.201
		c-8.972-15.848-17.796-31.781-26.992-47.498c-3.341-5.71-2.648-9.308,3.326-12.481c10.078-5.352,19.896-11.191,29.85-16.782
		C36.807,569.916,38.573,569.229,41.6,567.82z M34.664,592.602c-6.944,0.011-12.323,5.324-12.411,12.263
		c-0.094,7.342,5.471,12.797,12.843,12.588c6.966-0.197,12.122-5.611,12.012-12.616C46.999,597.9,41.599,592.59,34.664,592.602z"/>
	<path fill-rule="evenodd" clip-rule="evenodd" fill="#003366" d="M613.982,75.958c-3.075,4.9-4.676,8.704-7.343,11.483
		c-9.981,10.403-20.233,20.552-30.536,30.64c-6.84,6.697-14.631,7.04-20.151,1.241c-5.219-5.482-4.758-13.081,1.607-19.587
		c10.465-10.695,21.087-21.237,31.731-31.756c4.205-4.155,9.617-6.377,14.772-3.081C607.935,67.375,610.485,71.919,613.982,75.958z"
		/>
	<path fill-rule="evenodd" clip-rule="evenodd" fill="#003366" d="M458.626,36.988c-0.002,7.619,0.15,15.242-0.041,22.856
		c-0.217,8.56-5.193,13.767-12.796,13.814c-7.578,0.048-12.996-5.106-13.157-13.591c-0.295-15.505-0.303-31.024,0.015-46.527
		c0.169-8.264,5.994-13.703,13.341-13.537c7.383,0.167,12.405,5.637,12.604,14.128C458.769,21.747,458.628,29.369,458.626,36.988z"
		/>
	<path fill-rule="evenodd" clip-rule="evenodd" fill="#003366" d="M340.459,111.663c-2.851,3.471-5.016,8.442-8.561,9.794
		c-3.886,1.484-10.63,1.396-13.379-1.07c-12.681-11.379-24.667-23.58-36.347-36.009c-4.922-5.237-3.953-11.609,0.907-16.876
		c4.651-5.042,12.287-5.648,17.54-0.65c11.97,11.386,23.593,23.146,35.072,35.031C337.774,104.039,338.498,107.507,340.459,111.663z
		"/>
</g>
</svg>
