<?xml version="1.0" encoding="utf-8"?>
<!-- Generator: Adobe Illustrator 16.0.0, SVG Export Plug-In . SVG Version: 6.00 Build 0)  -->
<!DOCTYPE svg PUBLIC "-//W3C//DTD SVG 1.1//EN" "http://www.w3.org/Graphics/SVG/1.1/DTD/svg11.dtd">
<svg version="1.1" id="Layer_1" xmlns="http://www.w3.org/2000/svg" xmlns:xlink="http://www.w3.org/1999/xlink" x="0px" y="0px"
	 width="370.013px" height="472.538px" viewBox="0 0 370.013 472.538" enable-background="new 0 0 370.013 472.538"
	 xml:space="preserve">
<g>
	<path fill-rule="evenodd" clip-rule="evenodd" fill="#003366" d="M14.816,249.175c0.54-4.614,0.95-9.247,1.648-13.836
		c1.25-8.213-0.513-15.739-5.459-22.289c-14.286-18.918-14.254-37.643,0.109-56.479c6.101-8.001,6.497-17.146,4.825-26.631
		c-3.653-20.716,2.986-35.563,21.274-45.541c9.993-5.454,15.892-13.201,18.81-24.138c5.441-20.394,17.523-30.116,38.579-31.285
		c11.113-0.616,19.797-4.837,26.99-13.439c13.198-15.783,28.997-19.531,47.848-11.29c10.591,4.63,20.483,4.577,31.039-0.059
		c18.504-8.129,34.502-4.423,47.476,11.102c7.429,8.891,16.369,13.218,27.841,13.732c19.37,0.87,32.085,10.454,37.176,29.104
		c3.45,12.64,10.431,21.025,21.684,27.714c17.853,10.614,22.227,22.689,19.28,42.811c-1.705,11.645,0.077,21.521,6.819,31.329
		c12.142,17.664,12.222,32.083-0.075,49.892c-6.778,9.815-8.402,19.719-6.715,31.351c2.903,20.021-1.554,32.33-19.803,43.03
		c-11.016,6.458-17.784,14.731-21.069,27.033c-4.705,17.622-16.575,27.675-35.036,29.385c-1.438,0.133-2.875,0.419-4.311,0.411
		c-10.416-0.059-18.438,4.524-24.861,12.472c-5.46,6.755-12.308,11.706-20.462,14.726c-8.873,3.286-17.676,1.438-25.767-2.072
		c-11.942-5.178-22.966-5.041-35.166-0.082c-18.472,7.507-31.385,4.052-44.646-10.646c-8.148-9.031-17.002-14.008-29.345-14.81
		c-20.818-1.352-32.197-11.219-37.514-31.339c-2.9-10.973-8.938-18.644-18.904-24.083C23.034,277.579,14.245,266.199,14.816,249.175
		z M184.625,308.288c68.476-0.141,123.694-55.502,123.6-123.922c-0.093-67.633-55.338-122.719-123.108-122.752
		c-68.558-0.033-123.668,55.147-123.57,123.73C61.643,252.867,117.262,308.425,184.625,308.288z"/>
	<path fill-rule="evenodd" clip-rule="evenodd" fill="#003366" d="M150.833,390.712c-3.901,6.767-7.488,12.988-11.076,19.209
		c-9.773,16.946-19.593,33.864-29.298,50.849c-4.657,8.149-11.349,12.572-20.892,11.646c-9.145-0.888-14.632-6.364-17.8-14.729
		c-3.97-10.479-8.167-20.874-12.441-31.754c-10.004,1.502-19.946,3.039-29.904,4.464c-3.48,0.498-7.047,1.266-10.495,0.974
		C3.472,430.06-4.765,414.185,2.916,400.395c7.644-13.727,15.662-27.245,23.518-40.853c5.287-9.157,10.577-18.312,15.99-27.682
		c0.495,0.404,0.9,0.588,1.077,0.901c10.521,18.666,27.532,26.734,47.923,28.396c6.819,0.556,11.556,2.982,15.997,7.966
		C118.718,381.804,132.687,389.664,150.833,390.712z"/>
	<path fill-rule="evenodd" clip-rule="evenodd" fill="#003366" d="M327.056,331.903c0.409,0.501,0.869,0.929,1.169,1.449
		c12.982,22.496,26.016,44.963,38.884,67.524c4.19,7.345,3.839,14.868-1.006,21.796c-4.834,6.912-11.709,9.719-20.101,8.525
		c-6.35-0.902-12.686-1.894-19.027-2.854c-4.439-0.673-8.891-1.268-13.305-2.076c-2.525-0.463-3.646,0.391-4.549,2.81
		c-3.642,9.756-7.579,19.4-11.323,29.119c-3.152,8.184-8.738,13.388-17.659,14.228c-9.32,0.876-16-3.318-20.595-11.307
		c-12.952-22.515-25.963-44.996-38.942-67.494c-0.463-0.804-0.836-1.657-1.463-2.911c19.791-1,34.446-10.856,46.61-25.102
		c2.692-3.153,6.043-3.909,9.812-4.092c9.557-0.461,18.703-2.573,27.355-6.745C313.068,349.876,316.444,346.725,327.056,331.903z"/>
	<path fill-rule="evenodd" clip-rule="evenodd" fill="#003366" d="M184.79,287.514c-57.359-0.282-102.798-46.049-102.723-103.465
		c0.073-56.096,46.96-102.332,103.389-101.954c56.759,0.379,102.705,46.917,102.274,103.593
		C287.303,242.043,241.056,287.789,184.79,287.514z M183.076,199.878c-3.831-4.029-7.099-7.538-10.449-10.966
		c-3.474-3.557-6.971-7.095-10.561-10.534c-4.62-4.426-9.871-4.857-14.269-1.321c-5.061,4.07-5.171,10.789-0.055,15.974
		c9.237,9.362,18.571,18.629,27.885,27.915c7.328,7.305,13.582,6.75,19.281-1.769c12.3-18.386,24.555-36.801,36.825-55.207
		c0.978-1.467,2.021-2.899,2.886-4.432c2.889-5.117,1.603-10.953-3.017-14.008c-4.697-3.105-10.329-2.042-14.034,2.721
		c-1.08,1.388-1.987,2.911-2.965,4.377C204.289,168.085,193.975,183.544,183.076,199.878z"/>
</g>
</svg>
