<?xml version="1.0" encoding="utf-8"?>
<!-- Generator: Adobe Illustrator 16.0.0, SVG Export Plug-In . SVG Version: 6.00 Build 0)  -->
<!DOCTYPE svg PUBLIC "-//W3C//DTD SVG 1.1//EN" "http://www.w3.org/Graphics/SVG/1.1/DTD/svg11.dtd">
<svg version="1.1" id="Layer_1" xmlns="http://www.w3.org/2000/svg" xmlns:xlink="http://www.w3.org/1999/xlink" x="0px" y="0px"
	 width="805.155px" height="745.954px" viewBox="0 0 805.155 745.954" enable-background="new 0 0 805.155 745.954"
	 xml:space="preserve">
<g>
	<g>
		<path fill-rule="evenodd" clip-rule="evenodd" fill="#FFFFFF" d="M0,738.641c4.024,6.504,10.153,7.316,17.224,7.313
			c256.342-0.115,512.685-0.097,769.026-0.098c1.974,0,3.955,0.098,5.92-0.039c7.298-0.511,11.544-4.457,11.595-11.727
			c0.172-24.425,0.155-48.851,0.013-73.275c-0.045-7.506-5.174-12.42-11.98-12.231c-7.253,0.2-11.729,4.621-11.795,12.314
			c-0.149,17.022-0.053,34.047-0.057,51.071c0,3.614,0,7.229,0,11.146c-45.42,0-89.932,0-134.707,0
			c-0.246-1.561-0.595-2.746-0.597-3.932c-0.036-29.359-0.131-58.72,0.111-88.078c0.023-2.886,1.588-6.189,3.405-8.557
			c8.818-11.49,17.98-22.717,26.989-34.063c2.607-3.283,4.879-6.859,7.711-9.927c4.707-5.1,5.762-11.081,2.156-14.77
			c-5.687-5.815-13.927-6.173-18.976-0.454c-5.829,6.605-11.448,13.406-16.938,20.299c-11.476,14.408-22.873,28.881-34.164,43.435
			c-4.348,5.604-9.983,9.273-16.862,9.327c-34.043,0.268-68.093,0.34-102.134-0.03c-10.897-0.118-20.46-11.649-19.449-21.839
			c0.932-9.393,11.099-17.939,22.021-17.998c25.904-0.141,51.816,0.217,77.711-0.316c4.602-0.095,10.309-2.368,13.465-5.617
			c7.829-8.063,14.585-17.186,21.581-26.033c13.416-16.97,26.693-34.049,40.054-51.063c1.062-1.352,2.086-3.002,3.524-3.738
			c5.021-2.567,9.405-6.441,16.103-2.443c26.768,15.982,54.006,16.167,81.448,1.254c2.234-1.215,5.605-1.631,8.043-0.954
			c11.886,3.3,19.394,14.254,19.467,28.188c0.126,23.932-0.012,47.863,0.068,71.795c0.029,8.492,4.141,12.9,11.691,13.01
			c7.477,0.11,12.103-4.479,12.132-12.662c0.091-25.165,0.205-50.333-0.104-75.495c-0.147-11.983-4.449-22.864-12.653-31.579
			c-4.606-4.893-10.583-8.495-15.24-12.131c3.224-8.525,7.161-16.317,9.036-24.576c2.204-9.701,3.637-19.813,3.59-29.739
			c-0.09-19.572,0.171-39.372-2.67-58.643c-3.307-22.418-20.747-35.826-43.821-36.434c-19.724-0.521-39.509-0.865-59.2,0.084
			c-26.503,1.276-45.578,19.352-45.055,46.573c0.256,13.317,0.081,26.645,0.032,39.967c-0.077,20.89-1.853,42.06,10.129,58.761
			c-9.29,10.237-18.04,19.104-25.892,28.704c-13.223,16.166-25.739,32.908-38.86,49.159c-3.42,4.237-7.718,10.39-12.054,10.783
			c-14.827,1.343-29.851,0.515-45.321,0.515c0-15.128-0.162-29.162,0.042-43.191c0.24-16.634-7.951-29.045-20.657-38.074
			c-9.302-6.61-20.095-11.174-30.401-16.29c-3.484-1.729-4.518-3.249-3.48-7.286c1.705-6.638,3.256-13.53,3.33-20.332
			c0.355-32.069,0.273-64.146,0.148-96.217c-0.036-9.093-4.229-13.215-13.216-13.249c-30.1-0.108-60.214-0.633-90.294,0.142
			c-27.331,0.704-46.389,19.441-45.89,46.52c0.204,11.099-0.196,22.21,0.081,33.306c0.464,18.62-2.482,37.537,5.117,55.94
			c-2.289,1.157-4.265,2.011-6.098,3.107c-10.289,6.146-21.31,11.386-30.607,18.788c-10.82,8.613-16.215,20.693-15.759,35.134
			c0.432,13.695,0.092,27.414,0.092,41.731c-15.612,0-30.126,0.115-44.634-0.147c-1.809-0.032-4.032-1.693-5.304-3.229
			c-12.964-15.638-25.832-31.358-38.603-47.153c-10.59-13.099-18.696-28.45-34.929-36.67c9.925-14.896,11.91-30.784,11.555-47.375
			c-0.378-17.756,0.014-35.526-0.112-53.289c-0.192-27.178-17.849-45.87-44.898-46.694c-19.719-0.601-39.508-0.886-59.199,0.064
			c-24.747,1.194-43.648,16.54-44.752,41.389c-1.083,24.366-1.154,48.886,0.375,73.21c0.743,11.811,6.157,23.327,9.654,35.681
			c-12.213,7.711-23.298,18.118-26.303,34.725c-0.07,0.39-0.637,0.69-0.972,1.031C0,350.333,0,175.2,0,0
			c268.329,0,536.657,0,805.155,0 M329.41,270.862c4.403,0,8.075,0.136,11.733-0.02c35.432-1.508,68.133-32.015,67.279-69.588
			c-0.531-23.42-0.097-46.863-0.097-70.297c0-2.639,0-5.277,0-8.745c3.52,0,6.161,0,8.804,0c21.954,0,43.908,0,65.862,0
			c41.194,0.001,82.391,0.224,123.583-0.103c17.054-0.135,35.613,13.331,34.876,34.64c-1.169,33.754-0.259,67.579-0.334,101.373
			c-0.041,18.525-12.821,32.016-31.31,33.334c-10.844,0.773-13.697,3.786-13.801,14.766c-0.066,6.986-0.013,13.971-0.013,22.812
			c-11.889-11.263-22.428-20.815-32.421-30.907c-4.728-4.773-9.779-6.797-16.399-6.702c-17.51,0.253-35.026,0.081-52.54,0.088
			c-4.44,0.001-8.894-0.167-13.316,0.113c-7.065,0.446-11.627,4.933-11.57,10.974c0.057,6.112,4.481,10.384,11.593,11.041
			c2.204,0.204,4.436,0.127,6.655,0.128c17.514,0.009,35.028-0.052,52.541,0.072c2.321,0.016,5.12,0.296,6.858,1.584
			c4.501,3.337,8.658,7.172,12.729,11.044c12.649,12.026,25.262,24.093,37.745,36.292c4.361,4.262,9.277,5.644,14.842,3.565
			c5.704-2.131,7.046-7.107,7.044-12.641c-0.003-9.867,0.752-19.809-0.213-29.58c-0.898-9.095,2.627-12.713,10.978-15.285
			c18.147-5.589,33.985-26.802,34.159-45.601c0.349-37.737,0.301-75.482-0.113-113.217c-0.067-6.196-1.535-13.108-4.581-18.411
			c-12.551-21.855-31.557-32.063-57.221-31.824c-61.663,0.576-123.336,0.187-185.004,0.185c-2.903,0-5.807,0-9.473,0
			c0-4.243-0.003-7.649,0.001-11.053c0.021-15.832-1.517-30.721-11.241-44.689c-14.669-21.071-34.474-31.841-59.202-31.999
			c-87.073-0.56-174.151-0.359-261.226-0.165C38.365,12.132,4.605,44.245,5.796,84.313c1.143,38.448,0.994,76.974,0.014,115.43
			c-0.801,31.415,22.183,60.397,51.425,68.363c3.03,0.826,6.069,1.621,9.463,2.526c0,13.833,0.053,27.376-0.026,40.918
			c-0.031,5.425,1.66,10.648,6.954,11.7c3.944,0.782,9.724-0.291,12.623-2.862c16.522-14.664,32.309-30.151,48.654-45.019
			c2.587-2.354,6.732-4.211,10.168-4.23c50.566-0.268,101.135-0.13,151.703-0.268c4.994-0.015,7.652,0.885,9.421,6.407
			c6.596,20.595,21.995,32.986,42.625,34.796c26.926,2.362,54.159,1.401,81.262,1.447c6.219,0.012,10.354-5.505,9.916-11.574
			c-0.462-6.38-4.257-9.706-10.461-10.365c-1.952-0.208-3.942-0.071-5.916-0.072c-21.214-0.009-42.429,0.131-63.641-0.067
			C344.677,291.301,334.334,284.466,329.41,270.862z"/>
		<path fill-rule="evenodd" clip-rule="evenodd" d="M0,525.467c0.335-0.341,0.902-0.642,0.972-1.031
			c3.005-16.606,14.09-27.014,26.303-34.725c-3.498-12.354-8.912-23.87-9.654-35.681c-1.529-24.324-1.458-48.844-0.375-73.21
			c1.104-24.849,20.005-40.195,44.752-41.389c19.69-0.95,39.48-0.665,59.199-0.064c27.049,0.824,44.706,19.517,44.898,46.694
			c0.126,17.763-0.267,35.533,0.112,53.289c0.354,16.591-1.63,32.479-11.555,47.375c16.233,8.22,24.339,23.571,34.929,36.67
			c12.771,15.795,25.639,31.516,38.603,47.153c1.272,1.535,3.495,3.196,5.304,3.229c14.507,0.263,29.022,0.147,44.634,0.147
			c0-14.317,0.339-28.036-0.092-41.731c-0.456-14.44,4.939-26.521,15.759-35.134c9.298-7.402,20.319-12.643,30.607-18.788
			c1.833-1.097,3.809-1.95,6.098-3.107c-7.599-18.403-4.652-37.32-5.117-55.94c-0.277-11.096,0.123-22.207-0.081-33.306
			c-0.499-27.079,18.56-45.816,45.89-46.52c30.081-0.775,60.195-0.25,90.294-0.142c8.987,0.033,13.18,4.155,13.216,13.249
			c0.125,32.072,0.207,64.148-0.148,96.217c-0.074,6.802-1.625,13.694-3.33,20.332c-1.037,4.037-0.004,5.557,3.48,7.286
			c10.307,5.116,21.1,9.68,30.401,16.29c12.706,9.029,20.897,21.44,20.657,38.074c-0.204,14.029-0.042,28.063-0.042,43.191
			c15.471,0,30.494,0.828,45.321-0.515c4.336-0.394,8.634-6.546,12.054-10.783c13.121-16.251,25.638-32.993,38.86-49.159
			c7.852-9.601,16.602-18.467,25.892-28.704c-11.981-16.701-10.206-37.871-10.129-58.761c0.049-13.322,0.224-26.649-0.032-39.967
			c-0.523-27.221,18.552-45.296,45.055-46.573c19.691-0.949,39.477-0.604,59.2-0.084c23.074,0.608,40.515,14.016,43.821,36.434
			c2.841,19.271,2.58,39.07,2.67,58.643c0.047,9.926-1.386,20.038-3.59,29.739c-1.875,8.259-5.813,16.051-9.036,24.576
			c4.657,3.636,10.634,7.238,15.24,12.131c8.204,8.715,12.506,19.596,12.653,31.579c0.31,25.162,0.195,50.33,0.104,75.495
			c-0.029,8.184-4.655,12.772-12.132,12.662c-7.551-0.109-11.662-4.518-11.691-13.01c-0.08-23.932,0.058-47.863-0.068-71.795
			c-0.073-13.934-7.581-24.888-19.467-28.188c-2.438-0.677-5.809-0.261-8.043,0.954c-27.442,14.913-54.681,14.729-81.448-1.254
			c-6.697-3.998-11.081-0.124-16.103,2.443c-1.438,0.736-2.463,2.387-3.524,3.738c-13.36,17.015-26.638,34.094-40.054,51.063
			c-6.996,8.848-13.752,17.971-21.581,26.033c-3.156,3.249-8.863,5.522-13.465,5.617c-25.895,0.533-51.807,0.176-77.711,0.316
			c-10.922,0.059-21.089,8.605-22.021,17.998c-1.011,10.189,8.552,21.721,19.449,21.839c34.041,0.37,68.091,0.298,102.134,0.03
			c6.879-0.054,12.515-3.724,16.862-9.327c11.291-14.554,22.688-29.026,34.164-43.435c5.49-6.893,11.109-13.693,16.938-20.299
			c5.049-5.719,13.289-5.361,18.976,0.454c3.605,3.688,2.551,9.67-2.156,14.77c-2.832,3.067-5.104,6.644-7.711,9.927
			c-9.009,11.346-18.171,22.572-26.989,34.063c-1.817,2.367-3.382,5.671-3.405,8.557c-0.242,29.358-0.147,58.719-0.111,88.078
			c0.002,1.186,0.351,2.371,0.597,3.932c44.775,0,89.287,0,134.707,0c0-3.917,0-7.531,0-11.146
			c0.004-17.024-0.093-34.049,0.057-51.071c0.066-7.693,4.542-12.114,11.795-12.314c6.807-0.188,11.936,4.726,11.98,12.231
			c0.143,24.425,0.159,48.851-0.013,73.275c-0.051,7.27-4.297,11.216-11.595,11.727c-1.965,0.137-3.946,0.039-5.92,0.039
			c-256.342,0.001-512.684-0.018-769.026,0.098c-7.071,0.003-13.2-0.81-17.224-7.313c0-27.634,0-55.267,0-82.9
			c4.256-5.161,9.333-9.26,16.364-7.081c7.995,2.478,8.079,9.401,7.995,16.385c-0.196,16.277,0.308,32.568-0.232,48.829
			c-0.237,7.139,2.379,8.76,8.917,8.705c30.088-0.253,60.179-0.096,90.27-0.12c9.606-0.009,9.634-0.06,9.638-10.069
			c0.015-32.063-0.507-64.139,0.244-96.186c0.328-13.945-1.364-26.327-11.913-36.31c-1.044-0.989-1.824-2.357-2.442-3.682
			c-2.711-5.819-2.125-11.337,3.148-15.197c5.114-3.744,10.791-3.506,15.515,0.984c3.901,3.708,7.555,7.738,10.9,11.957
			c13.92,17.55,27.271,35.574,41.775,52.621c3.894,4.576,11.059,8.803,16.828,8.947c33.275,0.839,66.584,0.59,99.878,0.301
			c11.621-0.101,20.938-11.096,19.703-22.013c-1.001-8.848-10.793-16.646-21.458-16.69c-25.65-0.105-51.302-0.068-76.952-0.022
			c-6.482,0.012-11.802-1.662-16.036-7.203c-13.438-17.588-27.169-34.954-40.907-52.313c-6.556-8.282-13.297-16.423-20.11-24.495
			c-5.642-6.684-12.186-8.346-18.048-4.863c-27.199,16.157-54.514,15.701-82.117,0.924c-2.191-1.173-5.705-1.438-8.015-0.565
			c-12.409,4.692-18.566,14.419-18.624,28.912c-0.094,23.678-0.086,47.354,0.01,71.032c0.022,5.502-1.819,10.892-7.028,11.539
			c-4.695,0.583-9.875-2.128-14.713-3.765c-1.129-0.38-1.742-2.288-2.592-3.494C0,583.694,0,554.581,0,525.467z M183.992,722.506
			c2.928,0.244,5.31,0.615,7.692,0.617c131.686,0.027,263.373-0.019,395.059,0.15c6.709,0.009,8.485-2.447,8.356-8.654
			c-0.301-14.543-0.081-29.099-0.095-43.647c-0.012-10.755-0.027-10.768-11.114-10.768c-129.713-0.003-259.428-0.002-389.141,0.001
			c-2.219,0-4.607-0.451-6.604,0.229c-1.628,0.554-3.959,2.471-3.977,3.81C183.911,683.441,183.992,702.644,183.992,722.506z
			 M501.839,573.016c0-13.918-0.226-27.457,0.092-40.984c0.168-7.223-2.612-12.743-7.351-17.841
			c-9.05-9.73-21.198-14.057-32.893-19.143c-1.392-0.604-3.854-0.043-5.234,0.868c-3.653,2.411-6.983,5.313-10.445,8.018
			c-24.521,19.156-63.319,21.805-87.578,2.592c-13.329-10.558-23.599-11.569-36.378-2.249c-0.193,0.14-0.468,0.166-0.671,0.298
			c-8.391,5.378-17.884,11.062-18.863,21.491c-1.458,15.547-0.378,31.331-0.378,47.571c16.898,0.178,30.975,4.954,40.869,18.965
			c9.841,13.935,12.148,28.202,2.875,43.786c37.646,0,74.531,0,111.547,0C445.522,605.059,462.297,574.684,501.839,573.016z
			 M349.249,414.916c0,10.856-0.07,21.161,0.015,31.465c0.191,23.121,10.863,38.551,32.37,46.96
			c26.069,10.195,57.451-3.416,66.117-29.214c5.367-15.977,2.122-32.525,2.813-49.211
			C416.398,414.916,383.439,414.916,349.249,414.916z M91.965,362.984c0-0.107,0-0.214,0-0.321c-10.101,0-20.211-0.289-30.298,0.081
			c-10.604,0.387-19.472,8.281-19.755,18.305c-0.522,18.463-0.389,36.95-0.063,55.421c0.033,1.908,2.927,4.883,4.987,5.402
			c3.971,1,8.295,0.708,12.475,0.757c13.998,0.164,23.493-6.517,28.122-19.566c2.658-7.496,4.969-15.213,6.424-23.02
			c2.34-12.561,8.499-15.646,20.251-10.346c7.479,3.371,15.522,5.565,23.453,7.789c1.416,0.397,4.808-1.347,5.101-2.61
			c3.29-14.181-6.446-31.818-21.141-31.883C111.668,362.948,101.816,362.984,91.965,362.984z M44.441,466.23
			c5.187,12.683,14.044,20.938,26.411,26.277c22.62,9.765,51.17,1.522,63.982-18.746c10.218-16.165,9.731-33.771,8.154-51.25
			c-7.095-1.164-13.863-1.511-20.102-3.514c-6.176-1.981-8.456-0.724-10.107,5.57c-7.229,27.558-27.088,40.713-54.744,41.64
			C53.703,466.354,49.36,466.23,44.441,466.23z M663.019,423.006c-4.5,39.773,3.332,63.254,38.473,71.736
			c23.235,5.607,49.661-6.578,55.69-27.93c-35.551,2.086-60.35-11.442-68.581-48.314
			C679.743,420.06,671.362,421.535,663.019,423.006z M449.751,391.626c0-10.319,0-19.751,0-29.864
			c-27.317,0-53.926-0.667-80.479,0.263c-14.692,0.513-22.749,14.473-18.863,29.601
			C383.328,391.626,416.276,391.626,449.751,391.626z"/>
		<path fill-rule="evenodd" clip-rule="evenodd" fill="#FF6978" d="M0,612.809c0.85,1.206,1.463,3.114,2.592,3.494
			c4.839,1.637,10.019,4.348,14.713,3.765c5.208-0.647,7.05-6.037,7.028-11.539c-0.096-23.678-0.104-47.354-0.01-71.032
			c0.057-14.493,6.214-24.22,18.624-28.912c2.31-0.872,5.824-0.607,8.015,0.565c27.603,14.777,54.918,15.233,82.117-0.924
			c5.862-3.482,12.406-1.82,18.048,4.863c6.813,8.072,13.555,16.213,20.11,24.495c13.737,17.358,27.469,34.725,40.907,52.313
			c4.234,5.541,9.553,7.215,16.036,7.203c25.65-0.046,51.302-0.083,76.952,0.022c10.664,0.045,20.456,7.843,21.458,16.69
			c1.235,10.917-8.082,21.912-19.703,22.013c-33.294,0.289-66.603,0.538-99.878-0.301c-5.77-0.145-12.935-4.371-16.828-8.947
			c-14.504-17.047-27.855-35.071-41.775-52.621c-3.346-4.219-6.999-8.249-10.9-11.957c-4.725-4.49-10.401-4.729-15.515-0.984
			c-5.273,3.86-5.859,9.378-3.148,15.197c0.618,1.324,1.397,2.692,2.442,3.682c10.549,9.982,12.241,22.364,11.913,36.31
			c-0.751,32.047-0.229,64.122-0.244,96.186c-0.004,10.01-0.032,10.061-9.638,10.069c-30.09,0.024-60.182-0.133-90.27,0.12
			c-6.538,0.055-9.154-1.566-8.917-8.705c0.54-16.261,0.036-32.552,0.232-48.829c0.084-6.983,0-13.907-7.995-16.385
			C9.333,646.48,4.256,650.579,0,655.74C0,641.429,0,627.119,0,612.809z"/>
		<path fill-rule="evenodd" clip-rule="evenodd" d="M329.41,270.862c4.924,13.604,15.267,20.439,30.569,20.582
			c21.212,0.198,42.427,0.058,63.641,0.067c1.974,0.001,3.964-0.136,5.916,0.072c6.204,0.659,9.999,3.985,10.461,10.365
			c0.438,6.069-3.697,11.586-9.916,11.574c-27.103-0.046-54.335,0.915-81.262-1.447c-20.63-1.81-36.029-14.201-42.625-34.796
			c-1.769-5.522-4.427-6.422-9.421-6.407c-50.568,0.137-101.137,0-151.703,0.268c-3.436,0.019-7.581,1.876-10.168,4.23
			c-16.345,14.867-32.132,30.355-48.654,45.019c-2.899,2.572-8.679,3.645-12.623,2.862c-5.294-1.051-6.985-6.274-6.954-11.7
			c0.079-13.542,0.026-27.085,0.026-40.918c-3.394-0.905-6.433-1.7-9.463-2.526c-29.242-7.966-52.226-36.949-51.425-68.363
			c0.98-38.457,1.129-76.982-0.014-115.43C4.605,44.245,38.365,12.132,76.618,12.047c87.075-0.194,174.153-0.395,261.226,0.165
			c24.729,0.157,44.533,10.928,59.202,31.999c9.724,13.968,11.262,28.857,11.241,44.689c-0.004,3.404-0.001,6.811-0.001,11.053
			c3.666,0,6.569,0,9.473,0c61.668,0.001,123.341,0.391,185.004-0.185c25.664-0.24,44.67,9.968,57.221,31.824
			c3.046,5.303,4.514,12.215,4.581,18.411c0.414,37.735,0.462,75.48,0.113,113.217c-0.174,18.799-16.012,40.012-34.159,45.601
			c-8.351,2.572-11.876,6.19-10.978,15.285c0.965,9.771,0.21,19.713,0.213,29.58c0.002,5.534-1.34,10.51-7.044,12.641
			c-5.564,2.079-10.48,0.697-14.842-3.565c-12.483-12.199-25.096-24.266-37.745-36.292c-4.071-3.872-8.229-7.707-12.729-11.044
			c-1.738-1.288-4.537-1.568-6.858-1.584c-17.513-0.124-35.027-0.063-52.541-0.072c-2.22-0.001-4.451,0.075-6.655-0.128
			c-7.111-0.656-11.536-4.928-11.593-11.041c-0.057-6.042,4.505-10.528,11.57-10.974c4.423-0.279,8.876-0.111,13.316-0.113
			c17.514-0.007,35.03,0.165,52.54-0.088c6.62-0.095,11.672,1.929,16.399,6.702c9.993,10.092,20.532,19.644,32.421,30.907
			c0-8.84-0.054-15.826,0.013-22.812c0.104-10.98,2.957-13.993,13.801-14.766c18.488-1.318,31.269-14.81,31.31-33.334
			c0.075-33.794-0.835-67.619,0.334-101.373c0.737-21.309-17.822-34.774-34.876-34.64c-41.192,0.327-82.389,0.104-123.583,0.103
			c-21.954,0-43.908,0-65.862,0c-2.643,0-5.284,0-8.804,0c0,3.468,0,6.106,0,8.745c0,23.434-0.435,46.877,0.097,70.297
			c0.854,37.573-31.847,68.08-67.279,69.588C337.485,270.999,333.813,270.862,329.41,270.862z M88.956,286.363
			c2.335-1.509,3.619-2.09,4.59-3.002c10.021-9.427,20.152-18.748,29.902-28.45c4.316-4.293,8.854-6.542,15.042-6.319
			c9.609,0.346,19.24,0.091,28.862,0.091c56.25-0.004,112.501-0.246,168.749,0.1c24.284,0.15,48.662-19.938,48.481-45.513
			c-0.291-41.199,0.411-82.411-0.464-123.594c-0.188-8.827-3.358-19.012-8.581-26.015c-10.711-14.361-26.392-19.975-44.691-19.696
			c-36.505,0.555-73.023,0.163-109.537,0.165c-47.121,0-94.247,0.357-141.363-0.134C53.18,33.716,28.319,55.269,29.411,84.645
			c1.411,37.94,1.427,76.015-0.017,113.953c-1.058,27.83,22.756,50.073,47.083,50.146c8.692,0.026,12.331,4.333,12.455,13.092
			C89.042,269.61,88.956,277.388,88.956,286.363z"/>
		<path fill-rule="evenodd" clip-rule="evenodd" fill="#D09080" d="M183.992,722.506c0-19.862-0.082-39.064,0.176-58.263
			c0.018-1.339,2.349-3.256,3.977-3.81c1.997-0.68,4.385-0.229,6.604-0.229c129.713-0.003,259.428-0.004,389.141-0.001
			c11.087,0,11.103,0.013,11.114,10.768c0.014,14.549-0.206,29.104,0.095,43.647c0.129,6.207-1.647,8.663-8.356,8.654
			c-131.687-0.169-263.373-0.123-395.059-0.15C189.302,723.121,186.92,722.75,183.992,722.506z"/>
		<path fill-rule="evenodd" clip-rule="evenodd" fill="#EBD2FF" d="M501.839,573.016c-39.542,1.668-56.316,32.043-44.408,63.372
			c-37.016,0-73.901,0-111.547,0c9.272-15.584,6.966-29.852-2.875-43.786c-9.894-14.011-23.97-18.787-40.869-18.965
			c0-16.24-1.081-32.024,0.378-47.571c0.979-10.43,10.473-16.113,18.863-21.491c0.204-0.132,0.479-0.158,0.671-0.298
			c12.779-9.32,23.049-8.309,36.378,2.249c24.258,19.213,63.056,16.564,87.578-2.592c3.462-2.704,6.792-5.606,10.445-8.018
			c1.38-0.911,3.843-1.472,5.234-0.868c11.694,5.086,23.843,9.412,32.893,19.143c4.738,5.098,7.519,10.618,7.351,17.841
			C501.613,545.559,501.839,559.098,501.839,573.016z"/>
		<path fill-rule="evenodd" clip-rule="evenodd" fill="#FFCBBE" d="M349.249,414.916c34.19,0,67.149,0,101.314,0
			c-0.69,16.686,2.555,33.234-2.813,49.211c-8.666,25.798-40.048,39.409-66.117,29.214c-21.507-8.409-32.179-23.839-32.37-46.96
			C349.179,436.077,349.249,425.772,349.249,414.916z"/>
		<path fill-rule="evenodd" clip-rule="evenodd" fill="#C68B87" d="M91.965,362.984c9.852,0,19.704-0.036,29.555,0.009
			c14.695,0.065,24.431,17.703,21.141,31.883c-0.293,1.264-3.685,3.008-5.101,2.61c-7.93-2.224-15.974-4.418-23.453-7.789
			c-11.752-5.3-17.912-2.215-20.251,10.346c-1.455,7.807-3.766,15.523-6.424,23.02c-4.629,13.05-14.124,19.73-28.122,19.566
			c-4.18-0.049-8.504,0.243-12.475-0.757c-2.061-0.52-4.954-3.494-4.987-5.402c-0.326-18.471-0.458-36.958,0.063-55.421
			c0.283-10.024,9.152-17.917,19.755-18.305c10.086-0.37,20.197-0.081,30.298-0.081C91.965,362.77,91.965,362.877,91.965,362.984z"
			/>
		<path fill-rule="evenodd" clip-rule="evenodd" fill="#FEC9BD" d="M44.441,466.23c4.919,0,9.262,0.124,13.594-0.022
			c27.655-0.927,47.515-14.082,54.744-41.64c1.652-6.294,3.932-7.552,10.107-5.57c6.238,2.003,13.007,2.35,20.102,3.514
			c1.578,17.479,2.064,35.085-8.154,51.25c-12.812,20.269-41.362,28.511-63.982,18.746C58.485,487.169,49.628,478.913,44.441,466.23
			z"/>
		<path fill-rule="evenodd" clip-rule="evenodd" fill="#C68B87" d="M663.019,423.006c8.344-1.471,16.725-2.946,25.582-4.508
			c8.231,36.872,33.03,50.4,68.581,48.314c-6.029,21.352-32.455,33.537-55.69,27.93C666.351,486.26,658.519,462.779,663.019,423.006
			z"/>
		<path fill-rule="evenodd" clip-rule="evenodd" fill="#FFE5A0" d="M449.751,391.626c-33.475,0-66.423,0-99.342,0
			c-3.885-15.128,4.171-29.087,18.863-29.601c26.553-0.93,53.162-0.263,80.479-0.263
			C449.751,371.875,449.751,381.307,449.751,391.626z"/>
		<path fill-rule="evenodd" clip-rule="evenodd" fill="#ECF4FF" d="M88.956,286.363c0-8.975,0.086-16.752-0.023-24.527
			c-0.124-8.759-3.763-13.066-12.455-13.092c-24.327-0.074-48.141-22.317-47.083-50.146c1.444-37.938,1.427-76.012,0.017-113.953
			C28.319,55.269,53.18,33.716,79.947,33.995c47.116,0.492,94.242,0.134,141.363,0.134c36.514-0.001,73.032,0.391,109.537-0.165
			c18.3-0.279,33.98,5.334,44.691,19.696c5.223,7.003,8.393,17.188,8.581,26.015c0.875,41.183,0.173,82.395,0.464,123.594
			c0.18,25.576-24.197,45.664-48.481,45.513c-56.248-0.346-112.499-0.104-168.749-0.1c-9.622,0-19.253,0.255-28.862-0.091
			c-6.188-0.223-10.726,2.025-15.042,6.319c-9.75,9.702-19.881,19.022-29.902,28.45C92.575,284.272,91.291,284.854,88.956,286.363z
			 M206.75,152.558c34.748,0,69.496,0.003,104.244-0.006c2.215-0.001,4.477,0.167,6.639-0.202
			c5.792-0.986,10.378-3.682,10.706-10.214c0.325-6.474-3.553-9.954-9.542-11.168c-2.623-0.532-5.366-0.652-8.054-0.653
			c-69.003-0.033-138.006-0.03-207.009-0.012c-2.456,0-5.045-0.244-7.342,0.421c-5.613,1.626-10.771,4.025-10.465,11.276
			c0.245,5.795,4.934,9.877,12.146,10.488c1.958,0.167,3.941,0.068,5.912,0.068C138.239,152.56,172.495,152.558,206.75,152.558z
			 M207.463,72.166c-5.42,0-10.84-0.001-16.261,0c-30.304,0-60.609-0.048-90.914,0.035c-8.842,0.023-14.109,4.046-14.369,10.477
			c-0.269,6.67,5.265,11.228,14.171,11.658c0.738,0.036,1.478,0.015,2.218,0.015c69.972,0,139.943,0.016,209.915-0.018
			c10.332-0.004,16.116-4.08,16.206-11.107c0.092-7.225-5.331-10.973-16.008-11.058c-1.478-0.012-2.957-0.001-4.435-0.001
			C274.478,72.166,240.971,72.166,207.463,72.166z M153.105,188.881c-14.3,0-28.6-0.026-42.9,0.016
			c-4.679,0.015-9.456-0.342-14.009,0.47c-5.241,0.934-9.864,3.468-10.259,9.822c-0.391,6.271,3.401,9.421,8.806,11.038
			c2.089,0.624,4.356,0.906,6.543,0.909c34.271,0.056,68.542,0.085,102.813,0.012c9.211-0.021,14.17-4.3,13.968-11.551
			c-0.194-6.946-4.874-10.649-13.925-10.689C187.13,188.83,170.118,188.885,153.105,188.881z"/>
		<path fill-rule="evenodd" clip-rule="evenodd" d="M206.75,152.558c-34.255,0-68.51,0.001-102.765-0.001
			c-1.971,0-3.954,0.099-5.912-0.068c-7.211-0.611-11.9-4.693-12.146-10.488c-0.306-7.251,4.852-9.65,10.465-11.276
			c2.297-0.665,4.886-0.421,7.342-0.421c69.003-0.019,138.006-0.021,207.009,0.012c2.688,0.001,5.432,0.122,8.054,0.653
			c5.989,1.214,9.867,4.694,9.542,11.168c-0.328,6.532-4.915,9.228-10.706,10.214c-2.162,0.369-4.424,0.201-6.639,0.202
			C276.245,152.561,241.498,152.558,206.75,152.558z"/>
		<path fill-rule="evenodd" clip-rule="evenodd" d="M207.463,72.166c33.508,0,67.015,0,100.523,0c1.478,0,2.957-0.01,4.435,0.001
			c10.678,0.085,16.101,3.833,16.008,11.058c-0.09,7.028-5.874,11.103-16.206,11.107c-69.972,0.033-139.943,0.018-209.915,0.018
			c-0.74,0-1.48,0.021-2.218-0.015c-8.906-0.431-14.44-4.988-14.171-11.658c0.26-6.43,5.527-10.454,14.369-10.477
			c30.304-0.083,60.609-0.035,90.914-0.035C196.623,72.164,202.043,72.166,207.463,72.166z"/>
		<path fill-rule="evenodd" clip-rule="evenodd" d="M153.105,188.884c17.013,0.001,34.024-0.054,51.037,0.023
			c9.051,0.041,13.73,3.743,13.925,10.689c0.202,7.251-4.757,11.531-13.968,11.551c-34.271,0.073-68.542,0.044-102.813-0.012
			c-2.187-0.003-4.454-0.285-6.543-0.909c-5.404-1.617-9.197-4.767-8.806-11.038c0.395-6.354,5.019-8.888,10.259-9.822
			c4.554-0.813,9.33-0.456,14.009-0.47C124.505,188.855,138.805,188.881,153.105,188.884z"/>
	</g>
	<path fill-rule="evenodd" clip-rule="evenodd" fill="#CCF49F" d="M791.377,649.204c-7.253,0.2-11.729,4.621-11.795,12.314
		c-0.149,17.022-0.053,34.047-0.057,51.071c0,3.614,0,7.229,0,11.146c-45.42,0-89.932,0-134.707,0
		c-0.246-1.561-0.595-2.746-0.597-3.932c-0.036-29.359-0.131-58.72,0.111-88.078c0.023-2.886,1.588-6.189,3.405-8.557
		c8.818-11.49,17.98-22.717,26.989-34.063c2.607-3.283,4.879-6.859,7.711-9.927c4.707-5.1,5.762-11.081,2.156-14.77
		c-5.687-5.815-13.927-6.173-18.976-0.454c-5.829,6.605-11.448,13.406-16.938,20.299c-11.476,14.408-22.873,28.881-34.164,43.435
		c-4.348,5.604-9.983,9.273-16.862,9.327c-34.043,0.268-68.093,0.34-102.134-0.03c-10.897-0.118-20.46-11.649-19.449-21.839
		c0.932-9.393,11.099-17.939,22.021-17.998c25.904-0.141,51.816,0.217,77.711-0.316c4.602-0.095,10.309-2.368,13.465-5.617
		c7.829-8.063,14.585-17.186,21.581-26.033c13.416-16.97,26.693-34.049,40.054-51.063c1.062-1.352,2.086-3.002,3.524-3.738
		c5.021-2.567,9.405-6.441,16.103-2.443c26.768,15.982,54.006,16.167,81.448,1.254c2.234-1.215,5.605-1.631,8.043-0.954
		c11.886,3.3,19.394,14.254,19.467,28.188c0.126,23.932-0.012,47.863,0.068,71.795c0.029,8.492,4.141,12.9,11.691,13.01"/>
</g>
</svg>
