<?xml version="1.0" encoding="utf-8"?>
<!-- Generator: Adobe Illustrator 16.0.0, SVG Export Plug-In . SVG Version: 6.00 Build 0)  -->
<!DOCTYPE svg PUBLIC "-//W3C//DTD SVG 1.1//EN" "http://www.w3.org/Graphics/SVG/1.1/DTD/svg11.dtd">
<svg version="1.1" id="Layer_1" xmlns="http://www.w3.org/2000/svg" xmlns:xlink="http://www.w3.org/1999/xlink" x="0px" y="0px"
	 width="619.626px" height="568.75px" viewBox="0 0 619.626 568.75" enable-background="new 0 0 619.626 568.75"
	 xml:space="preserve">
<g>
	<path fill-rule="evenodd" clip-rule="evenodd" fill="#82BBF3" d="M369.196,19.921c17.433,10.804,27.799,27.469,37.766,44.68
		c46.278,79.918,92.874,159.654,139.153,239.572c20.717,35.777,42.045,71.217,60.759,108.127
		c6.984,13.774,12.878,27.927,12.75,43.622c-0.126,15.296-1.144,30.583-7.833,44.801c-0.591,0.215-1.291,0.289-1.75,0.661
		c-25.224,20.461-53.498,30.308-86.302,25.846c-28.946-3.938-52.098-17.857-70.013-40.33
		c-12.032-15.093-20.138-32.791-29.852-49.405c-16.49-28.204-32.545-56.664-48.906-84.944
		c-19.296-33.352-38.778-66.595-58.08-99.943c-22.348-38.608-44.328-77.43-66.964-115.866
		c-15.054-25.561-24.946-52.12-19.669-82.326c1.917-10.978,3.239-21.901,14.12-29.337C277.18,2.658,311.76-2.551,349.271,11.181
		C356.149,13.699,361.446,19.596,369.196,19.921z"/>
	<path fill-rule="evenodd" clip-rule="evenodd" fill="#FEDD76" d="M24.552,390.934c3.976-10.214,10.325-19.139,15.746-28.545
		c44.636-77.442,89.46-154.776,134.232-232.141c8.828-15.254,17.688-30.49,26.492-45.757c1.349-2.34,3.015-4.609,2.808-7.55
		c1.527,0.229,2.305-0.986,3.329-1.729c0.242,0.212,0.482,0.424,0.72,0.638c-0.496,2.034-0.95,4.081-1.494,6.101
		c-7.532,27.987-4.919,54.878,8.727,80.564c13.198,24.844,27.982,48.778,42.026,73.137c17.712,30.722,35.774,61.242,52.728,92.396
		c-32.146,55.275-64.289,110.553-96.45,165.82c-0.621,1.067-1.454,2.01-2.188,3.012c-0.351-2.603,0.691-4.941,1.384-7.346
		c6.165-21.406,5.036-42.796-2.307-63.464c-11.19-31.495-33.145-53.431-64.117-65.618c-31.931-12.563-63.037-9.838-92.651,7.818
		c-8.97,4.581-16.177,11.359-23.167,18.443C28.699,388.406,27.482,390.909,24.552,390.934z"/>
	<path fill-rule="evenodd" clip-rule="evenodd" fill="#6FABE5" d="M309.865,328.049c-16.954-31.154-35.015-61.675-52.728-92.396
		c-14.043-24.359-28.828-48.293-42.026-73.137c-13.646-25.686-16.259-52.577-8.727-80.564c0.544-2.021,0.998-4.067,1.491-6.104
		c0.667-0.605,1.203-1.698,0.475-2.074c-1.055-0.542-0.881,0.844-1.192,1.438c-1.023,0.743-1.802,1.958-3.329,1.729
		c6.74-19.82,17.364-37.036,33.344-50.861c38.86-33.619,94.846-33.714,132.021-6.159c-7.749-0.325-13.046-6.222-19.924-8.74
		C311.76-2.551,277.18,2.658,244.375,25.077c-10.881,7.437-12.203,18.36-14.12,29.337c-5.276,30.207,4.615,56.766,19.669,82.326
		c22.636,38.437,44.617,77.258,66.964,115.866c19.302,33.348,38.784,66.591,58.08,99.943c16.361,28.28,32.416,56.74,48.906,84.944
		c9.714,16.614,17.819,34.313,29.852,49.405c17.915,22.473,41.066,36.393,70.013,40.33c32.804,4.462,61.078-5.385,86.302-25.846
		c0.459-0.372,1.159-0.446,1.75-0.661c-11.075,29.312-32.082,48.839-60.786,60.039c-51.468,20.082-105.205,1.227-133.048-46.578
		c-35.488-60.932-70.645-122.057-105.958-183.09C311.38,330.025,310.58,329.063,309.865,328.049z"/>
	<path fill-rule="evenodd" clip-rule="evenodd" fill="#B4DF8B" d="M53.536,368.271c29.614-17.656,60.72-20.381,92.651-7.818
		c30.972,12.188,52.927,34.123,64.117,65.618c7.343,20.668,8.472,42.058,2.307,63.464c-0.692,2.404-1.735,4.743-1.384,7.346
		l0.047-0.049c-0.394,0.564-0.789,1.128-1.183,1.691c-3.058,7.047-5.962,14.182-11.377,19.879c-2.804-2.527-4.639,0.512-6.61,1.4
		c-19.011,8.562-38.9,11.608-59.367,8.18c-29.691-4.974-53.604-20.211-71.354-44.315c-18.772-25.495-25.92-53.998-18.962-85.425
		C44.749,387.735,49.626,378.186,53.536,368.271z"/>
	<path fill-rule="evenodd" clip-rule="evenodd" fill="#9DCB6B" d="M53.536,368.271c-3.91,9.914-8.788,19.464-11.114,29.971
		c-6.958,31.427,0.189,59.93,18.962,85.425c17.75,24.104,41.662,39.342,71.354,44.315c20.467,3.429,40.355,0.382,59.367-8.18
		c1.971-0.889,3.806-3.928,6.61-1.4c-22.419,38.856-69.557,58.219-115.272,47.353c-44.558-10.594-76.059-44.294-82.358-89.659
		c-3.574-25.741,1.718-50.156,15.472-72.48c2.089-3.393,4.187-6.779,6.285-10.17c1.399-0.299,1.841-1.241,1.729-2.559l-0.018,0.046
		c2.93-0.023,4.147-2.526,5.817-4.218C37.359,379.631,44.566,372.853,53.536,368.271z"/>
	<path fill-rule="evenodd" clip-rule="evenodd" fill="#FEDD76" d="M24.569,390.887c0.112,1.317-0.33,2.26-1.729,2.559
		C23.201,392.449,23.311,391.279,24.569,390.887z"/>
	<path fill-rule="evenodd" clip-rule="evenodd" fill="#FEDD76" d="M210.092,498.523c0.394-0.563,0.789-1.127,1.183-1.691
		C210.88,497.396,210.486,497.96,210.092,498.523z"/>
	<path fill-rule="evenodd" clip-rule="evenodd" fill="#FEDD76" d="M207.159,75.212c0.311-0.594,0.138-1.98,1.192-1.438
		c0.728,0.375,0.192,1.469-0.475,2.074C207.641,75.636,207.4,75.424,207.159,75.212z"/>
</g>
</svg>
