<?xml version="1.0" encoding="utf-8"?>
<!-- Generator: Adobe Illustrator 16.0.0, SVG Export Plug-In . SVG Version: 6.00 Build 0)  -->
<!DOCTYPE svg PUBLIC "-//W3C//DTD SVG 1.1//EN" "http://www.w3.org/Graphics/SVG/1.1/DTD/svg11.dtd">
<svg version="1.1" id="Layer_1" xmlns="http://www.w3.org/2000/svg" xmlns:xlink="http://www.w3.org/1999/xlink" x="0px" y="0px"
	 width="706.051px" height="469.247px" viewBox="0 0 706.051 469.247" enable-background="new 0 0 706.051 469.247"
	 xml:space="preserve">
<g>
	<path fill-rule="evenodd" clip-rule="evenodd" fill="#017FF8" d="M353.147,222.148c-24.996,42.977-48.148,87.021-74.541,129.185
		c-18.14,28.98-37.291,57.226-62.05,81.174c-18.373,17.77-39.325,30.771-64.964,34.881c-44.315,7.104-91.536-5.826-118.82-44.35
		c0.666-0.192,1.625-0.166,1.955-0.609c8.851-11.886,21.458-19.926,31.382-30.756c7.352-8.022,14.678-16.254,24.018-22.207
		c21.418,31.796,60.183,27.307,82.226,6.075c6.252-6.021,12.307-12.193,17.781-18.934c22.915-28.217,41.847-59.17,61.519-89.61
		c21.555-33.353,42.497-67.104,64.851-99.94c0.914,0.712,2.094,1.247,2.703,2.163C330.814,186.673,342.998,203.759,353.147,222.148z
		"/>
	<path fill-rule="evenodd" clip-rule="evenodd" fill="#0669E1" d="M353.147,222.148c-10.149-18.389-22.333-35.475-33.941-52.928
		c-0.609-0.917-1.789-1.451-2.704-2.162c0.008-2.848-2.168-4.561-3.636-6.54c-8.145-10.976-16.438-21.842-24.681-32.746
		c4.742-0.416,4.402-3.913,4.402-7.229c-0.006-27.243-0.081-54.487,0.102-81.729c0.021-3.153-2.415-6.28-0.143-9.434
		c25.763,17.328,46.075,40.25,65.657,63.929c1.466,1.773,2.449,4.013,4.726,5.028c9.591,13.998,19.091,28.06,28.865,41.928
		c1.496,2.122,2.215,5.424,5.679,5.76c-1.195,3.297,1.475,5.168,2.875,7.411c32.104,51.423,64.258,102.813,96.403,154.209
		c-0.777,0.5-1.653,0.894-2.317,1.515c-15.261,14.273-30.473,28.599-45.761,42.843c-3.354,3.126-6.655,6.429-11.271,7.771
		c-15.563-22.138-28.305-45.999-42.236-69.134C381.35,267.692,368.207,244.332,353.147,222.148z"/>
	<path fill-rule="evenodd" clip-rule="evenodd" fill="#017FF7" d="M599.304,36.25c23.537,18.224,41.091,41.527,55.81,67.002
		c27.957,48.39,42.829,100.941,48.277,156.326c2.479,25.199,3.911,50.445,1.177,75.72c-3.877,35.826-12.831,69.782-36.982,97.968
		c-4.577,5.343-9.572,10.256-15.504,14.126c-3.228-1.766-2.238-4.875-2.246-7.533c-0.065-21.204-0.037-42.408-0.037-63.613
		c0-18.712,0.021-37.426-0.009-56.14c-0.015-9.182-2.048-10.651-11.042-8.158c-0.234-19.164-1.179-38.292-3.573-57.312
		c-5.825-46.284-18.393-90.424-42.027-131.003c4.682-0.818,3.14-4.557,3.151-7.253c0.1-24.468,0.023-48.937,0.113-73.406
		C596.42,40.481,595.015,37.042,599.304,36.25z"/>
	<path fill-rule="evenodd" clip-rule="evenodd" fill="#027DF5" d="M599.304,36.25c-4.289,0.792-2.884,4.231-2.893,6.724
		c-0.09,24.47-0.014,48.938-0.113,73.406c-0.012,2.696,1.53,6.435-3.151,7.253c-2.084-1.006-2.549-3.234-3.646-4.952
		c-10.565-16.566-23.373-31.028-39.599-42.269c-28.187-19.524-60.088-20.904-87.007-3.834c-10.161,6.444-18.955,14.46-27.176,23.199
		c-14.509,15.422-26.222,32.951-38.248,50.25c-3.464-0.338-4.183-3.64-5.679-5.762c-9.774-13.868-19.274-27.931-28.865-41.928
		c18.508-24.49,37.969-48.11,62.302-67.185c25.365-19.884,53.432-32.643,86.43-31.011C545.061,1.79,574.098,14.482,599.304,36.25z"
		/>
	<path fill-rule="evenodd" clip-rule="evenodd" fill="#0268E2" d="M292.546,29.38c-2.271,3.153,0.164,6.28,0.143,9.434
		c-0.182,27.243-0.107,54.487-0.102,81.729c0,3.316,0.34,6.813-4.402,7.229c-11.936-12.854-23.704-25.852-38.496-35.662
		c-29.973-19.875-61.77-19.851-89.444,0.224c-8.194,5.944-15.018,13.342-22.073,20.499c-1.117-4.266,1.245-8.162,1.212-12.395
		c-0.19-24.47-0.158-48.941-0.019-73.412c0.02-3.474-0.787-6.372-2.888-9.013c24.773-14.217,51.264-19.918,79.818-17.34
		C244.48,3.221,269.793,12.734,292.546,29.38z"/>
	<path fill-rule="evenodd" clip-rule="evenodd" fill="#0165E0" d="M136.478,18.015c2.102,2.641,2.908,5.539,2.888,9.013
		c-0.14,24.471-0.171,48.942,0.019,73.412c0.032,4.233-2.329,8.129-1.212,12.395c-6.66,9.646-13.32,19.293-19.979,28.941
		c-3.506-0.308-5.717-2.856-8.444-4.625c-4.445-2.885-8.618-5.965-14.15-0.417c-22.141,22.202-44.704,43.984-67.109,65.923
		c-1.004,0.983-1.818,2.364-3.017,2.912c-5.375,2.452-7.667,9.912-14.956,9.177c12.348-55.888,34.094-107.431,71.192-151.627
		C97.109,44.771,114.723,28.799,136.478,18.015z"/>
	<path fill-rule="evenodd" clip-rule="evenodd" fill="#0177F1" d="M90.126,369.466c-9.34,5.953-16.666,14.185-24.018,22.207
		c-9.925,10.83-22.532,18.87-31.382,30.756c-0.33,0.443-1.289,0.417-1.955,0.609c-15.709-20.031-23.568-43.366-28.369-67.931
		c-1.239-6.345-1.765-12.83-2.618-19.251c2.962,0.391,4.649-1.589,6.582-3.34c18.214-16.497,35.165-34.294,52.903-51.271
		c5.428-5.194,10.429-11.266,17.72-14.294c-0.359,5.107-0.814,10.209-1.06,15.324C76.496,312.104,75.164,341.927,90.126,369.466z"/>
	<path fill-rule="evenodd" clip-rule="evenodd" fill="#056EE6" d="M437.402,359.772c4.615-1.342,7.916-4.645,11.271-7.771
		c15.288-14.244,30.5-28.569,45.761-42.843c0.664-0.621,1.54-1.015,2.317-1.515c13.927,19.786,26.538,40.504,41.912,59.266
		c-1.768,2.741-1.367,5.826-1.368,8.838c-0.008,24.727-0.009,49.452,0.001,74.179c0.001,3.498,0.327,7.07-2.781,9.666
		c-14.435-4.897-26.253-13.938-37.39-23.941c-6.77-6.083-13.334-12.415-18.872-19.701c2.812-7.233,1.125-14.762,1.294-22.142
		c0.297-13.058,0.094-26.125,0.068-39.188c-0.004-2.693-0.059-6.038-4.098-3.747c-6.652,3.772-13.186,7.667-18.223,13.829
		c-2.915,3.565-5.353,8.156-10.557,9.322C443.155,369.583,439.978,364.875,437.402,359.772z"/>
	<path fill-rule="evenodd" clip-rule="evenodd" fill="#027AF3" d="M638.748,311.947c8.994-2.493,11.027-1.023,11.042,8.158
		c0.03,18.714,0.009,37.428,0.009,56.14c0,21.205-0.028,42.409,0.037,63.613c0.008,2.658-0.981,5.768,2.246,7.533
		c-21.152,15.699-44.997,22.582-71.2,21.735c0.001-25.597,0.003-51.19,0.005-76.785c28.711-1.399,42.435-11.106,50.69-35.271
		C636.588,342.402,637.113,327.106,638.748,311.947z"/>
	<path fill-rule="evenodd" clip-rule="evenodd" fill="#016FEA" d="M78.989,266.951c-7.291,3.028-12.292,9.1-17.72,14.294
		c-17.738,16.978-34.688,34.774-52.903,51.271c-1.933,1.751-3.62,3.73-6.582,3.34c-2.004-18.749-2.682-37.502-0.112-56.26
		c9.024-4.708,15.199-12.854,22.432-19.543c21.911-20.265,42.896-41.527,64.234-62.41c1.995-1.953,3.758-4.281,7.045-3.84
		c-1.79,6.226-3.556,12.458-5.374,18.675C84.794,230.325,82.225,248.704,78.989,266.951z"/>
	<path fill-rule="evenodd" clip-rule="evenodd" fill="#006AE5" d="M95.384,193.804c-3.287-0.441-5.05,1.887-7.045,3.84
		c-21.338,20.883-42.324,42.146-64.234,62.41c-7.233,6.689-13.408,14.835-22.432,19.543c-0.277-14.244,2.367-28.184,4.435-42.181
		c1.976,0.125,3.572-0.536,5.046-1.929c6.778-6.405,13.763-12.597,20.438-19.106c23.755-23.167,47.415-46.43,71.111-69.657
		c0.668-0.655,1.244-1.481,2.034-1.92c3.958-2.196,7.831-3.331,10.782,1.573C107.369,161.574,100.542,177.335,95.384,193.804z"/>
	<path fill-rule="evenodd" clip-rule="evenodd" fill="#0474EC" d="M580.886,392.342c-0.002,25.595-0.004,51.188-0.005,76.785
		c-16.036-0.356-31.748-2.29-46.367-9.534c3.108-2.596,2.782-6.168,2.781-9.666c-0.01-24.727-0.009-49.452-0.001-74.179
		c0.001-3.012-0.399-6.097,1.368-8.838c1.777,1.822,3.535,3.664,5.334,5.465C554.306,382.697,565.544,391.312,580.886,392.342z"/>
	<path fill-rule="evenodd" clip-rule="evenodd" fill="#0268E2" d="M115.519,146.376c-2.951-4.903-6.824-3.769-10.782-1.573
		c-0.79,0.438-1.366,1.265-2.034,1.92c-23.696,23.227-47.356,46.491-71.111,69.657c-6.675,6.51-13.66,12.701-20.438,19.106
		c-1.474,1.393-3.071,2.054-5.046,1.929c1.47-7.558,2.94-15.114,4.41-22.672c7.289,0.734,9.581-6.726,14.956-9.177
		c1.198-0.548,2.013-1.928,3.017-2.912c22.405-21.938,44.968-43.721,67.109-65.923c5.532-5.547,9.705-2.468,14.15,0.417
		c2.727,1.769,4.938,4.318,8.444,4.625C117.812,143.605,117.004,145.187,115.519,146.376z"/>
	<path fill-rule="evenodd" clip-rule="evenodd" fill="#086DE3" d="M446.738,374.024c5.204-1.166,7.642-5.757,10.557-9.322
		c5.037-6.162,11.57-10.057,18.223-13.829c4.039-2.291,4.094,1.054,4.098,3.747c0.025,13.063,0.229,26.131-0.068,39.188
		c-0.169,7.38,1.518,14.908-1.294,22.142C466.496,402.917,455.953,388.969,446.738,374.024z"/>
</g>
</svg>
