<?xml version="1.0" encoding="utf-8"?>
<!-- Generator: Adobe Illustrator 16.0.0, SVG Export Plug-In . SVG Version: 6.00 Build 0)  -->
<!DOCTYPE svg PUBLIC "-//W3C//DTD SVG 1.1//EN" "http://www.w3.org/Graphics/SVG/1.1/DTD/svg11.dtd">
<svg version="1.1" id="Layer_1" xmlns="http://www.w3.org/2000/svg" xmlns:xlink="http://www.w3.org/1999/xlink" x="0px" y="0px"
	 width="337.663px" height="383.952px" viewBox="0 0 337.663 383.952" enable-background="new 0 0 337.663 383.952"
	 xml:space="preserve">
<g>
	<path fill-rule="evenodd" clip-rule="evenodd" fill="#003366" d="M263.269,383.952c-3.646-0.789-7.339-1.403-10.93-2.392
		c-40.064-11.03-60.741-54.713-43.901-92.646c0.401-0.903,0.757-1.825,1.276-3.082c-23.347-14.464-46.661-28.909-70.224-43.508
		c-17.908,20.101-40.187,30.129-67.152,28.058c-21.393-1.644-39.292-10.935-53.272-27.241
		c-27.489-32.063-24.959-79.208,5.691-108.373c31.327-29.809,83.417-29.67,114.791,6.813c23.282-14.419,46.604-28.863,69.712-43.176
		c-1.846-6.083-4.07-11.789-5.289-17.701c-7.806-37.864,18.196-74.544,56.503-80.014c0.7-0.101,1.364-0.456,2.045-0.691
		c5,0,9.999,0,14.999,0c2.031,0.473,4.052,1.002,6.097,1.411c36.82,7.352,60.62,44.324,52.219,81.138
		c-8.359,36.628-45.706,59.591-81.951,50.456c-11.64-2.933-21.74-8.607-30.624-16.815c-24.063,14.917-48,29.757-72.081,44.686
		c8.525,20.878,8.389,41.557,0.073,62.161c0.939,0.614,1.548,1.03,2.174,1.419c23.223,14.407,46.445,28.812,69.765,43.274
		c1.324-1.113,2.543-2.172,3.798-3.187c15.943-12.903,34.123-17.941,54.316-14.604c30.128,4.979,52.158,28.938,55.935,60.25
		c3.343,27.715-13.311,56.312-40.087,67.877c-6.44,2.781-13.57,3.966-20.383,5.886C272.268,383.952,267.769,383.952,263.269,383.952
		z"/>
</g>
</svg>
