<?xml version="1.0" encoding="utf-8"?>
<!-- Generator: Adobe Illustrator 16.0.0, SVG Export Plug-In . SVG Version: 6.00 Build 0)  -->
<!DOCTYPE svg PUBLIC "-//W3C//DTD SVG 1.1//EN" "http://www.w3.org/Graphics/SVG/1.1/DTD/svg11.dtd">
<svg version="1.1" id="Layer_1" xmlns="http://www.w3.org/2000/svg" xmlns:xlink="http://www.w3.org/1999/xlink" x="0px" y="0px"
	 width="232.583px" height="195.5px" viewBox="0 0 232.583 195.5" enable-background="new 0 0 232.583 195.5" xml:space="preserve">
<circle fill="#FFF8E3" cx="135.003" cy="97.5" r="95"/>
<g>
	<g>
		<g>
			<path fill="#FDC200" d="M134.833,0c-28.337,0-53.895,12.126-71.765,31.457c0.926,0.53,1.576,1.355,1.954,2.301
				C82.355,14.865,107.233,3,134.833,3c52.246,0,94.75,42.505,94.75,94.75s-42.504,94.75-94.75,94.75
				c-31.43,0-59.329-15.387-76.575-39.02c-0.427,0.93-1.131,1.72-2.109,2.196C73.964,179.813,102.6,195.5,134.833,195.5
				c53.899,0,97.75-43.852,97.75-97.75C232.583,43.851,188.732,0,134.833,0z"/>
		</g>
	</g>
	<g>
		<path fill="#FFF8E3" stroke="#FDC200" stroke-width="3" stroke-miterlimit="10" d="M59.167,41.834v18.717H26.632v19.873
			c4.069-5.348,9.308-8.021,15.715-8.021c7.23,0,12.696,2.253,16.397,6.757c3.702,4.505,5.553,13.165,5.553,25.979v16.693
			c0,8.287-0.357,14.369-1.072,18.247c-0.714,3.879-2.24,7.468-4.578,10.769s-5.596,5.829-9.773,7.588
			c-4.179,1.758-9.276,2.638-15.293,2.638c-6.754,0-12.707-1.313-17.859-3.938c-5.152-2.625-8.811-6.539-10.975-11.742
			c-2.165-5.205-3.247-13.25-3.247-24.139v-6.359h26.236v7.299c0,7.564,0.237,12.937,0.714,16.115
			c0.476,3.181,2.121,4.771,4.936,4.771c1.299,0,2.348-0.457,3.149-1.373c0.801-0.915,1.234-1.901,1.299-2.963
			c0.065-1.06,0.14-5.66,0.228-13.804v-23.196c0-4.384-0.412-7.371-1.234-8.961c-0.823-1.59-2.187-2.385-4.091-2.385
			c-1.213,0-2.23,0.41-3.052,1.229c-0.823,0.819-1.354,1.698-1.591,2.638c-0.238,0.939-0.357,3.12-0.357,6.541H1.76l1.104-58.97
			L59.167,41.834L59.167,41.834z"/>
	</g>
</g>
</svg>
