<?xml version="1.0" encoding="utf-8"?>
<!-- Generator: Adobe Illustrator 16.0.0, SVG Export Plug-In . SVG Version: 6.00 Build 0)  -->
<!DOCTYPE svg PUBLIC "-//W3C//DTD SVG 1.1//EN" "http://www.w3.org/Graphics/SVG/1.1/DTD/svg11.dtd">
<svg version="1.1" id="Layer_1" xmlns="http://www.w3.org/2000/svg" xmlns:xlink="http://www.w3.org/1999/xlink" x="0px" y="0px"
	 width="234.154px" height="195.5px" viewBox="0 0 234.154 195.5" enable-background="new 0 0 234.154 195.5" xml:space="preserve">
<circle fill="#CFFFFF" cx="136.753" cy="97.5" r="95"/>
<g>
	<g>
		<g>
			<path fill="#24A3A9" d="M136.405,0C108.066,0,82.51,12.126,64.64,31.457c0.926,0.53,1.576,1.355,1.954,2.301
				C83.927,14.865,108.805,3,136.405,3c52.245,0,94.75,42.505,94.75,94.75s-42.505,94.75-94.75,94.75
				c-31.43,0-59.328-15.387-76.574-39.02c-0.428,0.93-1.131,1.72-2.109,2.196c17.816,24.136,46.451,39.822,78.686,39.822
				c53.898,0,97.75-43.851,97.75-97.75C234.156,43.85,190.304,0,136.405,0z"/>
		</g>
	</g>
	<g>
		<path fill="#CFFFFF" stroke="#24A3A9" stroke-width="3" stroke-miterlimit="10" d="M58.907,38.834v76.457h7.468v19.945h-7.468
			v20.596H32.671v-20.596H1.5v-19.945l22.664-76.457H58.907z M32.671,115.291V65.5L21.08,115.291H32.671z"/>
	</g>
</g>
</svg>
