<?xml version="1.0" encoding="utf-8"?>
<!-- Generator: Adobe Illustrator 16.0.0, SVG Export Plug-In . SVG Version: 6.00 Build 0)  -->
<!DOCTYPE svg PUBLIC "-//W3C//DTD SVG 1.1//EN" "http://www.w3.org/Graphics/SVG/1.1/DTD/svg11.dtd">
<svg version="1.1" id="Layer_1" xmlns="http://www.w3.org/2000/svg" xmlns:xlink="http://www.w3.org/1999/xlink" x="0px" y="0px"
	 width="228.129px" height="195.5px" viewBox="0 0 228.129 195.5" enable-background="new 0 0 228.129 195.5" xml:space="preserve">
<circle fill="#FCEFE6" cx="130.129" cy="97.5" r="95"/>
<g>
	<g>
		<g>
			<path fill="#ED7E2F" d="M130.379,0c-28.338,0-53.895,12.126-71.765,31.457c0.926,0.53,1.575,1.355,1.954,2.301
				C77.901,14.865,102.779,3,130.379,3c52.245,0,94.75,42.505,94.75,94.75s-42.505,94.75-94.75,94.75
				c-31.43,0-59.329-15.387-76.575-39.02c-0.427,0.93-1.131,1.72-2.109,2.196C69.51,179.813,98.146,195.5,130.379,195.5
				c53.898,0,97.75-43.852,97.75-97.75C228.129,43.851,184.277,0,130.379,0z"/>
		</g>
	</g>
	<g>
		<path fill="#FCEFE6" stroke="#ED7E2F" stroke-width="3" stroke-miterlimit="10" d="M51.569,89.528
			c3.983,1.495,6.948,3.94,8.897,7.34c1.947,3.397,2.922,11.362,2.922,23.896c0,9.305-0.953,16.522-2.857,21.655
			c-1.906,5.133-5.195,9.038-9.871,11.713c-4.676,2.675-10.672,4.013-17.988,4.013c-8.313,0-14.839-1.554-19.58-4.66
			c-4.74-3.107-7.857-6.914-9.352-11.418c-1.493-4.504-2.24-12.321-2.24-23.45v-9.25h26.236v19.006c0,5.06,0.27,8.274,0.812,9.647
			c0.541,1.373,1.742,2.06,3.604,2.06c2.034,0,3.377-0.867,4.026-2.603c0.649-1.734,0.974-6.263,0.974-13.586v-8.094
			c0-4.48-0.454-7.756-1.363-9.828c-0.909-2.07-2.252-3.433-4.026-4.083c-1.776-0.649-5.218-1.022-10.325-1.12V83.783
			c6.234,0,10.086-0.265,11.559-0.795c1.472-0.529,2.533-1.686,3.183-3.469c0.649-1.782,0.974-4.576,0.974-8.383v-6.504
			c0-4.095-0.379-6.793-1.137-8.094c-0.758-1.301-1.938-1.951-3.539-1.951c-1.818,0-3.063,0.687-3.734,2.06s-1.006,4.3-1.006,8.78
			v9.611H1.5v-9.973c0-11.177,2.295-18.729,6.885-22.655c4.588-3.926,11.883-5.89,21.885-5.89c12.511,0,20.996,2.72,25.456,8.16
			c4.458,5.44,6.688,12.999,6.688,22.676c0,6.548-0.801,11.278-2.402,14.191C58.409,84.462,55.596,87.121,51.569,89.528z"/>
	</g>
</g>
</svg>
