<?xml version="1.0" encoding="utf-8"?>
<!-- Generator: Adobe Illustrator 16.0.0, SVG Export Plug-In . SVG Version: 6.00 Build 0)  -->
<!DOCTYPE svg PUBLIC "-//W3C//DTD SVG 1.1//EN" "http://www.w3.org/Graphics/SVG/1.1/DTD/svg11.dtd">
<svg version="1.1" id="Layer_1" xmlns="http://www.w3.org/2000/svg" xmlns:xlink="http://www.w3.org/1999/xlink" x="0px" y="0px"
	 width="219.375px" height="195.5px" viewBox="0 0 219.375 195.5" enable-background="new 0 0 219.375 195.5" xml:space="preserve">
<g>
	<circle fill="#FFEDE9" cx="122.022" cy="98" r="95"/>
	<g>
		<g>
			<path fill="#FD6232" d="M121.625,0C93.286,0,67.729,12.126,49.859,31.457c0.926,0.53,1.576,1.355,1.954,2.301
				C69.146,14.865,94.024,3,121.625,3c52.244,0,94.75,42.505,94.75,94.75s-42.506,94.75-94.75,94.75
				c-31.431,0-59.33-15.387-76.576-39.02c-0.427,0.93-1.131,1.72-2.109,2.196c17.816,24.136,46.451,39.822,78.685,39.822
				c53.899,0,97.75-43.851,97.75-97.75C219.375,43.85,175.523,0,121.625,0z"/>
		</g>
	</g>
	<g>
		<path fill="#FFEDE9" stroke="#FD6232" stroke-width="3" stroke-miterlimit="10" d="M45.854,38.834v116.998H19.618V93.105
			c0-9.057-0.195-14.501-0.584-16.332c-0.39-1.83-1.461-3.216-3.214-4.155c-1.753-0.939-5.661-1.409-11.722-1.409H1.5V57.568
			c12.685-3.037,22.317-9.282,28.898-18.734H45.854z"/>
	</g>
</g>
</svg>
