<?xml version="1.0" encoding="utf-8"?>
<!-- Generator: Adobe Illustrator 16.0.0, SVG Export Plug-In . SVG Version: 6.00 Build 0)  -->
<!DOCTYPE svg PUBLIC "-//W3C//DTD SVG 1.1//EN" "http://www.w3.org/Graphics/SVG/1.1/DTD/svg11.dtd">
<svg version="1.1" id="Layer_1" xmlns="http://www.w3.org/2000/svg" xmlns:xlink="http://www.w3.org/1999/xlink" x="0px" y="0px"
	 width="233.176px" height="195.5px" viewBox="0 0 233.176 195.5" enable-background="new 0 0 233.176 195.5" xml:space="preserve">
<circle fill="#E3FFE3" cx="135.176" cy="97.5" r="95"/>
<g>
	<g>
		<g>
			<path fill="#66CC66" d="M135.426,0C107.087,0,81.531,12.126,63.66,31.457c0.926,0.53,1.576,1.355,1.955,2.301
				C82.947,14.865,107.826,3,135.426,3c52.244,0,94.75,42.505,94.75,94.75s-42.506,94.75-94.75,94.75
				c-31.43,0-59.33-15.387-76.576-39.02c-0.426,0.93-1.131,1.72-2.109,2.196c17.816,24.136,46.451,39.822,78.686,39.822
				c53.898,0,97.75-43.851,97.75-97.75C233.177,43.85,189.324,0,135.426,0z"/>
		</g>
	</g>
	<g>
		<path fill="#E3FFE3" stroke="#66CC66" stroke-width="3" stroke-miterlimit="10" d="M64.492,73.575H38.256
			c0-5.444-0.055-8.876-0.162-10.298c-0.108-1.42-0.628-2.613-1.559-3.577c-0.932-0.963-2.198-1.445-3.799-1.445
			c-1.343,0-2.446,0.458-3.313,1.373c-0.866,0.916-1.363,2.096-1.493,3.541c-0.13,1.445-0.195,4.36-0.195,8.744v18.645
			c1.342-3.132,3.313-5.479,5.91-7.046c2.598-1.564,5.801-2.349,9.611-2.349c4.806,0,9.048,1.445,12.728,4.336
			c3.68,2.891,6.018,6.359,7.014,10.406c0.996,4.047,1.494,9.515,1.494,16.403v9.322c0,8.189-0.282,14.284-0.845,18.283
			s-2.067,7.695-4.513,11.093c-2.446,3.396-5.803,6.034-10.066,7.913c-4.265,1.879-9.232,2.818-14.903,2.818
			c-7.058,0-12.837-1.084-17.339-3.252c-4.504-2.168-7.979-5.286-10.424-9.358c-2.445-4.069-3.875-8.347-4.285-12.827
			C1.705,131.82,1.5,123.124,1.5,110.213V94.026c0-13.923,0.184-23.233,0.552-27.931c0.368-4.698,1.872-9.142,4.514-13.333
			c2.64-4.191,6.244-7.335,10.813-9.431c4.567-2.096,9.838-3.144,15.813-3.144c7.36,0,13.399,1.326,18.119,3.975
			c4.718,2.65,8.095,6.384,10.13,11.201C63.475,60.182,64.492,66.252,64.492,73.575z M38.256,110.068
			c0-4.144-0.412-6.984-1.233-8.526c-0.823-1.542-2.166-2.313-4.026-2.313c-1.818,0-3.149,0.735-3.994,2.205
			c-0.844,1.471-1.267,4.348-1.267,8.635v21.175c0,5.155,0.4,8.526,1.202,10.116c0.8,1.591,2.132,2.386,3.993,2.386
			c1.126,0,2.295-0.614,3.507-1.843c1.212-1.229,1.818-4.541,1.818-9.938V110.068z"/>
	</g>
</g>
</svg>
