<?xml version="1.0" encoding="utf-8"?>
<!-- Generator: Adobe Illustrator 16.0.0, SVG Export Plug-In . SVG Version: 6.00 Build 0)  -->
<!DOCTYPE svg PUBLIC "-//W3C//DTD SVG 1.1//EN" "http://www.w3.org/Graphics/SVG/1.1/DTD/svg11.dtd">
<svg version="1.1" id="Layer_1" xmlns="http://www.w3.org/2000/svg" xmlns:xlink="http://www.w3.org/1999/xlink" x="0px" y="0px"
	 width="232.753px" height="195.5px" viewBox="0 0 232.753 195.5" enable-background="new 0 0 232.753 195.5" xml:space="preserve">
<circle fill="#F3FBFF" cx="135.753" cy="97.5" r="95"/>
<g>
	<g>
		<g>
			<path fill="#0071BD" d="M135.003,0c-28.338,0-53.896,12.126-71.766,31.457c0.926,0.53,1.576,1.355,1.954,2.301
				C82.526,14.865,107.404,3,135.003,3c52.244,0,94.75,42.505,94.75,94.75s-42.506,94.75-94.75,94.75
				c-31.43,0-59.33-15.387-76.575-39.02c-0.427,0.93-1.131,1.72-2.109,2.196c17.816,24.136,46.451,39.822,78.685,39.822
				c53.899,0,97.75-43.851,97.75-97.75C232.753,43.85,188.903,0,135.003,0z"/>
		</g>
	</g>
	<g>
		<path fill="#F3FBFF" stroke="#0071BD" stroke-width="3" stroke-miterlimit="10" d="M59.233,135.887v19.945H1.501l0.016-16.693
			c17.101-31.121,27.264-50.381,30.49-57.775c3.225-7.396,4.838-13.164,4.838-17.308c0-3.18-0.488-5.552-1.463-7.118
			c-0.976-1.565-2.46-2.349-4.455-2.349c-1.995,0-3.479,0.867-4.454,2.602c-0.976,1.734-1.463,5.18-1.463,10.334v11.129H1.501
			v-4.264c0-6.552,0.302-11.719,0.909-15.501c0.605-3.781,2.099-7.503,4.481-11.165c2.38-3.661,5.476-6.432,9.286-8.311
			c3.809-1.879,8.377-2.818,13.703-2.818c10.433,0,18.323,2.879,23.671,8.636c5.346,5.758,8.02,13.044,8.02,21.86
			c0,6.697-1.505,13.779-4.515,21.246c-3.009,7.468-11.874,23.318-26.594,47.551H59.233L59.233,135.887z"/>
	</g>
</g>
</svg>
