<?xml version="1.0" encoding="utf-8"?>
<!-- Generator: Adobe Illustrator 16.0.0, SVG Export Plug-In . SVG Version: 6.00 Build 0)  -->
<!DOCTYPE svg PUBLIC "-//W3C//DTD SVG 1.1//EN" "http://www.w3.org/Graphics/SVG/1.1/DTD/svg11.dtd">
<svg version="1.1" id="Слой_1" xmlns="http://www.w3.org/2000/svg" xmlns:xlink="http://www.w3.org/1999/xlink" x="0px" y="0px"
	 width="2895.65px" height="1442.69px" viewBox="0 0 2895.65 1442.69" style="enable-background:new 0 0 2895.65 1442.69;"
	 xml:space="preserve">
<g>
	<path style="fill:#EBF3FA;" d="M258.58,1441.97c0,0-501.45-623.91-107.74-1006.34c586.02-569.21,984.85,239.73,1210.59-95.05
		C1734.84-213.2,2956.46-71.08,2582.7,617.56c-196.09,361.29,459.98,307.3,192.52,825.13L258.58,1441.97z"/>
	<g>
		<path style="fill:#DFEDFB;" d="M1936.74,665.86l18.1-42.41l0.43-1.01c2.17-5.18,0.14-11.14-4.72-13.87l-33.57-18.87
			c-0.56-0.31-1.07-0.66-1.55-1.04c-3.28-2.73-4.8-7.18-3.56-11.34c6.97-24.63,8.99-50.34,5.87-75.73c-0.11-1.05-0.07-2.1,0.08-3.09
			c0.63-3.78,3.28-7.07,6.95-8.49l30.08-11.31c3.95-1.52,6.62-5.19,7.04-9.22c0.09-1.23,0.04-2.55-0.29-3.85l-11.77-45.59
			c-1.43-5.6-7.01-9.24-12.77-8.24l-42.15,7.15c-4.16,0.69-8.32-1.05-10.73-4.53c-3.54-4.95-7.24-9.76-11.26-14.44
			c-7.54-8.78-15.69-16.67-24.34-23.71l-0.04-0.04c-3.61-2.94-5.03-7.7-3.58-12.11l13.57-41.24l0.66-2.08
			c1.79-5.28-0.82-11.17-6.03-13.38l-43.35-18.52c-5.29-2.22-11.45-0.17-14.26,4.85l-21.01,37.35c-2.33,4.16-7.06,6.36-11.67,5.43
			c-19.58-3.61-39.63-4.23-59.4-1.7c-5.04,0.59-9.81-2.29-11.62-7.07l-13.49-35.62c-2.07-5.42-7.81-8.33-13.34-6.89l-45.79,11.79
			c-5.41,1.41-8.83,6.73-7.89,12.18l8.33,49.56c0.73,4.2-1.02,8.44-4.47,10.96c-4.26,3.08-8.42,6.37-12.47,9.86
			c-7.66,6.58-14.65,13.6-20.98,20.98c-2.85,3.38-7.44,4.74-11.63,3.3l-49.55-16.36c-5.48-1.77-11.33,0.89-13.58,6.13l-18.61,43.49
			c-1.94,4.61-0.48,9.99,3.39,12.99c0.4,0.3,0.84,0.64,1.33,0.87l41.43,23.33c3.86,2.15,6.1,6.34,5.62,10.72
			c-0.03,0.38-0.06,0.77-0.16,1.15c-0.24,1.14-0.48,2.21-0.61,3.4c-2.56,13.43-3.64,27.17-3.28,40.9c0.2,4.58-2.68,8.78-7.05,10.38
			l-37.62,14.27c-5.34,2-8.29,7.77-6.85,13.3l2.6,10.14l9.17,35.37c1.4,5.56,6.86,9.07,12.54,8.15l41.52-7.04
			c4.43-0.79,8.8,1.36,11.06,5.25c5.89,10.2,12.88,20.09,20.89,29.41c5.94,6.91,12.35,13.36,19.03,19.2l-2.86,8.65l-11.66,35.5
			c-1.49,4.38,0.04,9.18,3.59,11.88c0.73,0.6,1.55,1.05,2.45,1.42l43.6,18.74c5.18,2.17,11.14,0.07,13.91-4.76l14.31-25.55
			c2.42-4.31,7.58-6.51,12.35-5.22c19.8,5.37,40.26,7.57,60.59,6.51c4.82-0.26,9.17,2.55,10.74,6.96l17.04,45.03
			c1.94,5.02,7.31,7.83,12.55,6.48l46.27-11.99c5.49-1.41,8.95-6.76,7.97-12.25l-8.69-51.56c-0.79-4.43,1.25-8.85,5.11-11.23
			c8.24-5.07,16.15-10.93,23.77-17.48c4.1-3.52,8.01-7.18,11.74-10.96c2.93-2.95,7.27-4.02,11.24-2.75l47.51,15.66
			C1928.47,673.83,1934.4,671.18,1936.74,665.86z M1813.23,466.91c21.4,31.38,24.02,66.89,12.25,94.13
			c-41.42,95.42-169.9,86.88-199.02-11.47c-7.14-25.27-4.11-53.44,14.12-80.88C1683.27,405.15,1772.28,406.96,1813.23,466.91z"/>
	</g>
	<g>
		<path style="fill:#D6E8FC;" d="M1347.09,1245.71l41.57-71.28l0.98-1.7c5.01-8.71,2.73-19.74-5.3-25.67l-55.4-40.96
			c-0.92-0.68-1.76-1.41-2.51-2.2c-5.21-5.57-6.93-13.81-3.79-20.92c17.85-42.19,27.14-87.38,27.25-133.16
			c0.03-1.9,0.33-3.74,0.83-5.47c1.97-6.58,7.4-11.82,14.23-13.54l55.92-13.41c7.35-1.82,12.91-7.74,14.56-14.81
			c0.44-2.17,0.63-4.52,0.34-6.91l-10.77-83.57c-1.3-10.27-10.38-17.96-20.84-17.47l-76.43,3.33c-7.53,0.31-14.54-3.72-18.04-10.42
			c-5.18-9.58-10.68-18.94-16.78-28.13c-11.44-17.26-24.16-33.08-37.94-47.5l-0.05-0.08c-5.76-6.03-7.22-14.78-3.66-22.3
			l33.25-70.21l1.63-3.55c4.36-8.98,1.02-20.01-7.74-25.1l-72.85-42.52c-8.9-5.11-20.28-2.84-26.4,5.43l-45.61,61.65
			c-5.06,6.87-13.95,9.72-21.93,7.04c-33.97-10.76-69.42-16.32-105.09-16.21c-9.07-0.08-16.92-6.24-19.06-15.14l-16.04-66.24
			c-2.47-10.08-12.01-16.53-22.15-15.2l-83.92,10.76c-9.92,1.3-17.17,9.98-16.71,19.87l3.79,89.84c0.36,7.61-3.69,14.75-10.37,18.48
			c-8.25,4.53-16.36,9.44-24.34,14.73c-15.06,9.99-29.04,20.9-41.9,32.59c-5.81,5.38-14.27,6.76-21.38,3.28l-84.34-40.05
			c-9.33-4.36-20.31-0.94-25.48,7.87l-42.71,73.09c-4.46,7.76-3.08,17.63,3.14,23.82c0.65,0.63,1.35,1.33,2.16,1.85l68.38,50.63
			c6.38,4.67,9.42,12.62,7.59,20.28c-0.14,0.68-0.27,1.35-0.55,2c-0.68,1.98-1.34,3.82-1.83,5.9c-7.53,23.28-12.5,47.43-14.91,71.88
			c-0.67,8.18-6.7,14.99-14.83,16.87l-69.96,16.97c-9.92,2.36-16.44,11.96-15.12,22.09l2.36,18.59l8.43,64.84
			c1.25,10.19,10.17,17.63,20.46,17.25l75.29-3.28c8.05-0.41,15.32,4.37,18.47,11.78c8.19,19.42,18.41,38.54,30.55,56.85
			c9.01,13.59,18.95,26.46,29.51,38.32l-7,14.72l-28.59,60.45c-3.62,7.44-1.96,16.3,3.74,21.9c1.16,1.22,2.51,2.2,4.03,3.07
			l73.25,42.95c8.71,5.01,19.77,2.6,25.75-5.35l31.09-42.18c5.25-7.11,14.9-9.88,23.1-6.53c33.96,13.93,69.81,22.39,106.13,25.02
			c8.61,0.62,15.72,6.57,17.52,14.75l20.25,83.73c2.33,9.35,11.23,15.52,20.85,14.3l84.81-11.01c10.05-1.27,17.39-10.01,16.87-19.98
			l-3.97-93.47c-0.41-8.05,4.18-15.43,11.56-18.8c15.76-7.17,31.11-15.82,46.09-25.76c8.06-5.34,15.82-10.96,23.28-16.85
			c5.86-4.59,13.8-5.52,20.57-2.39l80.87,38.37C1330.64,1258.02,1341.75,1254.64,1347.09,1245.71z M1172,865.04
			c10.41,20.29,17.72,43.33,21.18,69.05c0.8,5.45,1.03,11.62,0.98,18.1c-0.58,27.93-8.98,61.74-21.33,82.7
			c-94.74,160.21-320.96,116.5-350.8-64.58c-0.45-2.98-0.91-5.96-1.28-9c-3.64-28.29,5.32-71.85,19.55-96.52
			c7.48-12.93,15.83-24.56,24.76-34.94C954.98,726.51,1112.61,749.49,1172,865.04z"/>
	</g>
	<g>
		<path style="fill:#233862;" d="M372.43,1436.6c0,0-2.21-17.21-7.33-27.44s-37.68-3.72-37.68-3.72s-6.51,5.58-7.91,31.63
			L372.43,1436.6z"/>
		<path style="fill:#233862;" d="M483.37,1436.37c-7.65-4.67-3.3-39.51-3.3-39.51s35.65-28.52,40.55-6.68
			c4.9,21.84,33.87,31.64,50.36,34.31c11.38,1.85,14.91,8.15,16,11.88H483.37z"/>
		<path style="fill:#213F7A;" d="M409.53,1182.99c1.45,8,2.37,14.55,2.62,19.26c3.31,64.64,54.42,212.45,63.56,215.9
			c14.14,5.34,36.41-6.01,48.07-9.72c4.83-1.54,8.09-6.41,7.01-11.35c-25.31-116.34-34.61-283.87-37.99-383.05
			c-1.71-49.96-10.28-84.47-10.28-84.47s-124.64-33.25-125.38,8.81C356.47,975.59,398.41,1121.58,409.53,1182.99z"/>
		<path style="fill:#233862;" d="M409.53,1182.99l83.26-168.96c-1.71-49.96-10.28-84.47-10.28-84.47s-124.64-33.25-125.38,8.81
			C356.47,975.59,398.41,1121.58,409.53,1182.99z"/>
		<path style="fill:#213F7A;" d="M437.26,938.52l-65.89,477.53c0,0-28.93,6.98-51.44,1.4c0,0-19.29-253.97-17.68-315.38
			s-13.84-164.3,3.53-175.64S437.26,938.52,437.26,938.52z"/>
		<path style="fill:#3089E3;" d="M292.93,930.56c-0.32,4.32,2.44,8.24,6.6,9.45c9.19,2.67,19.79,4.52,40.22,8.76
			c19.19,3.99,45.02,7.52,76.75,7.71c50.47,0.32,69.58-17.07,69.58-17.07c2.17,0.04-1.15-10.52-4.14-60.75
			c-1.01-17.01-1.99-38.58-2.7-65.83c-0.64-24.52-1.07-53.66-1.11-88.22c-0.05-41.58-64.41-86.31-65.6-86.31l-0.01,0.02
			c0,5.99-9.44,17.03-23.97,17.99c-17.25,1.13-38.41-7.46-38.41-17.39c0-0.1-31.18,49.88-42.25,103.14
			c-1.41,6.75-2.5,13.87-3.36,21.37C301.9,786,304.44,769.89,292.93,930.56z"/>
		<path style="fill:#3089E3;" d="M412.54,638.3c0,0,59.84-0.51,74.25,19.69c14.4,20.2,45.98,128.86,29.5,165.02
			c-16.48,36.16-47.31-14.96-64.43-37.1S412.54,638.3,412.54,638.3z"/>
		<path style="fill:#FFB27D;" d="M413.15,629.16l-0.03,6.19c0,0,1.69,19.35-22.14,22.17c-23.82,2.83-41.56-3.56-40.91-18.49
			c2.15-11.56,4.19-23.49,4.35-33.05c0.06-3.55-0.18-7.33-0.85-11.58l46.16-0.92l13.6,2.22L413.15,629.16z"/>
		<path style="fill:#E2915A;" d="M413.33,595.7l-0.18,33.46c-4.9,2.28-10.44,3.67-16.64,3.67c-21.22,0-34.93-15.56-42.1-26.85
			c0.06-3.55-0.18-7.33-0.85-11.58l46.16-0.92L413.33,595.7z"/>
		<path style="fill:#FFB27D;" d="M350.03,586.97c5.36,28.83,42.55,27.88,58.62,26.07c4.52-0.5,7.37-1.08,7.37-1.08
			c5.1-1.36,7.95-9.4,9.27-19.92c2.62-20.83-0.69-51.4-4.21-59.21c-5.3-11.77-15.27-24.49-52.72-15.31
			C330.9,526.7,343.16,550.04,350.03,586.97z"/>
		<path style="fill:#004D82;" d="M473.74,719.27c0,0,23.15,51.11,22.47,66.44c0,0-11.46-0.39-22.47,2.89
			C455.64,793.99,473.74,719.27,473.74,719.27z"/>
		<path style="fill:#233862;" d="M432.58,505.38c0,0-16.49-1.27-35.93-9.72c-15.78-6.86-35.7,0.7-42.16,4.1
			c0.17-1.04,0.59-2.46,1.58-3.89c0,0-2.9,2.06-3.33,4.93c-0.3,0.22-0.43,0.37-0.36,0.42c0,0-3.29-0.6-5.4,0.35
			c0,0,1.48-0.21,2.01,0.74c0.06,0.1,0.14,0.19,0.24,0.26c-24.62,11.9-26.89,50.81-18.97,59.81c9.53,10.83,23.65,34.93,23.65,34.93
			s1.48-5.47-0.25-15c-1.73-9.53,6.5-9.53,16.9-13.87s1.73-16.46,10.83-23.83c9.1-7.37,42.46-3.03,42.03-8.67
			C435.79,531.45,432.58,506.65,432.58,505.38z"/>
		<path style="fill:#004D82;" d="M342.49,815.02c9.77,39.24,115.44,59.51,139.46,63.63c-1.01-17.01-1.99-38.58-2.7-65.83
			L342.49,815.02z"/>
		<path style="fill:#FFB27D;" d="M365.68,827.78c-1.01,0-23.49-3.36-27.52-5.37s-22.44-28.19-10.38-34.9
			c12.06-6.71,44.44,20.13,44.44,20.13L365.68,827.78z"/>
		<path style="fill:#3089E3;" d="M502.43,835.55c0,0-86.96,4.72-145.31-7.78c0,0-1.47-16.86,16.87-24.35
			c0,0,90.95-19.28,112.8-13.91C508.64,794.89,502.43,835.55,502.43,835.55z"/>
		<path style="fill:#3089E3;" d="M302.74,767.31c18.05,21.76,41.64,39.52,67.64,43.69l0.01-0.01c0.21-0.33,7.87-11.95,6.44-29.04
			c-0.66-7.91-3.28-16.99-9.47-26.66c-1.91-2.97-3.6-6.45-5.11-10.31c-14.2-36.24-12.09-106.07-12.09-106.07s-60.31,6.32-79.1,33.16
			C259.54,688.51,274.22,732.91,302.74,767.31z"/>
		<path style="fill:#E2915A;" d="M408.65,613.04c4.52-0.5,7.37-1.08,7.37-1.08c5.1-1.36,7.95-9.4,9.27-19.92
			c-9.56,2.36-13.95,9.75-15.77,12.89C408.7,606.35,408.53,609.52,408.65,613.04z"/>
		<path style="fill:#FFB27D;" d="M432.95,629.34c0,0,20.83-34.37,4.63-35.87c-16.2-1.5-22.71,9.47-25.04,13.49
			s0.61,22.19,0.61,22.19L432.95,629.34z"/>
		<path style="fill:#3089E3;" d="M353.57,780.8c0.64,4.36,1.94,8.36,3.55,11.93c5.09,11.29,13.26,18.27,13.26,18.27l0.01-0.01
			c54.09-24.42,65.04-108.26,66.87-154.33c0.74-18.52,0-30.93,0-30.93c-24.4-8.08-31.26,5.96-31.26,5.96s-28.81,68.52-43.76,113.3
			C356.52,762.12,352.84,775.78,353.57,780.8z"/>
		<path style="fill:#004D82;" d="M302.74,767.31c18.05,21.76,41.64,39.52,67.64,43.69l0.01-0.01
			c54.09-24.42,65.04-108.26,66.87-154.33c0,0-25.6,92.84-60.44,125.29c-6.3,5.87-12.9,9.77-19.7,10.78c0,0-43.93-12.42-53.15-24.11
			C303.31,767.78,302.91,767.37,302.74,767.31z"/>
	</g>
	<g>
		<g>
			<path style="fill:#C8DBF4;" d="M2557.43,1270.12c0,0-26.46-30.87-1.63-50.47c0,0,18.13-10.98,32.92-10.09
				c0,0-20.95,35.13-14.17,38.63c6.78,3.49,20.52-40.83,20.52-40.83s41.26-4,54.54,2.38c0,0-35.28,28.87-27.85,30.59
				s45.53-26.62,45.53-26.62s38.41,6.54,36.36,29.96s-15.28,30.66-21.1,30.04s-39.84-13.61-40.58-8.84s19.74,20.34,34.08,21.07
				c0,0-27.08,29.86-45.07,21.24c-18-8.62-19.53-22.28-30.75-27.4s-20.79-5.11-16.16,0.11c4.63,5.23,24.93,10.3,31.35,21.65
				s12.17,19-6.45,16.2c-18.62-2.8-48.88-16.43-50.21-32.03C2557.43,1270.12,2557.43,1270.12,2557.43,1270.12z"/>
			<g>
				<path style="fill:#C8DBF4;" d="M2684.78,1244.3c0,0-104.31-4.02-127.35,25.81c0,0-5.09,15.26-20.77,29.15l-2.44,6.66
					c0,0,18.08-19.06,24.54-20.21C2558.76,1285.72,2548.65,1248.76,2684.78,1244.3z"/>
				<path style="fill:#C8DBF4;" d="M2536.66,1299.27c0,0-22.39,16.56-23.95,46.14l4.06,0.36c0,0,7.15-30.59,20.08-42.55
					C2549.78,1291.26,2536.66,1299.27,2536.66,1299.27z"/>
			</g>
		</g>
		<g>
			<path style="fill:#C8DBF4;" d="M2464.93,1231.3c0,0,42.08-23.57,22.45-55.55c0,0-15.71-19.64-32.55-24.69c0,0,8.98,47.7,0,48.82
				c-8.98,1.12-6.17-53.87-6.17-53.87s-44.33-21.32-61.72-19.64c0,0,27.5,46.57,18.52,45.45c-8.98-1.12-39.84-48.26-39.84-48.26
				s-45.45-8.42-52.75,18.52c-7.29,26.93,4.49,40.4,11.22,42.08c6.73,1.68,49.94,1.12,48.82,6.73c-1.12,5.61-30.3,14.59-46.57,9.54
				c0,0,17.96,44.33,41.52,42.09c23.57-2.25,30.86-16.83,45.45-17.96c14.59-1.12,25.25,2.81,17.96,6.73
				c-7.29,3.93-31.98,1.29-43.77,11.3c-11.78,10.02-21.32,16.19,0.56,20.68c21.88,4.49,61.16,1.68,69.02-15.15
				S2464.93,1231.3,2464.93,1231.3z"/>
			<g>
				<path style="fill:#C8DBF4;" d="M2333.63,1150.5c0,0,117.84,38.16,131.31,80.8c0,0-0.56,19.08,11.22,40.96v8.42
					c0,0-12.35-28.62-19.08-32.55C2457.08,1248.13,2483.45,1211.1,2333.63,1150.5z"/>
				<path style="fill:#C8DBF4;" d="M2476.15,1272.26c0,0,18.17,27.6,7.81,61.19l-4.68-1.25c0,0,4.54-37-4.97-55.61
					C2464.81,1257.98,2476.15,1272.26,2476.15,1272.26z"/>
			</g>
		</g>
		<g>
			<path style="fill:#D4E4F8;" d="M2531.89,1198.8c0,0-55.48-31.07-29.59-73.23c0,0,20.71-25.89,42.9-32.55c0,0-11.83,62.87,0,64.35
				c11.84,1.48,8.14-71.01,8.14-71.01s58.44-28.11,81.37-25.89c0,0-36.24,61.39-24.41,59.91c11.84-1.48,52.52-63.61,52.52-63.61
				s59.92-11.09,69.53,24.41c9.62,35.5-5.92,53.26-14.79,55.48s-65.83,1.48-64.35,8.88c1.48,7.4,39.94,19.23,61.39,12.58
				c0,0-23.67,58.43-54.74,55.48c-31.07-2.96-40.68-22.19-59.91-23.67s-33.29,3.7-23.67,8.88c9.62,5.18,42.16,1.7,57.7,14.9
				c15.53,13.21,28.11,21.34-0.74,27.26c-28.85,5.92-80.63,2.22-90.98-19.97C2531.89,1198.8,2531.89,1198.8,2531.89,1198.8z"/>
			<g>
				<path style="fill:#D4E4F8;" d="M2704.97,1092.28c0,0-155.33,50.3-173.08,106.51c0,0,0.74,25.15-14.79,54v11.1
					c0,0,16.27-37.72,25.15-42.9C2542.24,1220.99,2507.48,1172.17,2704.97,1092.28z"/>
				<path style="fill:#D4E4F8;" d="M2517.09,1252.79c0,0-23.96,36.38-10.3,80.66l6.16-1.66c0,0-5.98-48.77,6.55-73.3
					C2532.04,1233.96,2517.09,1252.79,2517.09,1252.79z"/>
			</g>
		</g>
		<path style="fill:#D4E4F8;" d="M2530.02,1429.48c60.02,0,108.67-48.65,108.67-108.67h-217.34
			C2421.35,1380.82,2470,1429.48,2530.02,1429.48z"/>
		<path style="fill:#D4E4F8;" d="M2640.19,1435.01h-220.34l0,0c0-7.4,6-13.41,13.41-13.41h193.53
			C2634.18,1421.6,2640.19,1427.6,2640.19,1435.01L2640.19,1435.01z"/>
		<rect x="2417.77" y="1320.81" style="fill:#9FC1F4;" width="223.38" height="3.33"/>
	</g>
	<g>
		<path style="fill:#163560;" d="M2152.08,596.15c-16-8.3-28.81-3.08-28.81-3.08c-48.94-5.75-63.22,51.33-62.56,70.97
			c0.66,19.64,2.9,40.73-18.95,66.25c-63.14,73.7,69.09,76.95,69.09,76.95c1.12-58.88,71.71-37.4,68.61-31.43
			C2269.94,797.52,2188.45,615.02,2152.08,596.15z"/>
		<path style="fill:#FFB27D;" d="M1963.28,841.63c0,0-8.61-13.1-15.54-13.36s-19.78-3.85-18.75-1.28c1.03,2.57,8.99,2.83,9.76,4.37
			s-11.82,3.85-15.42,4.11c-3.6,0.26-12.08,0-11.82,1.8c0.26,1.8,15.28,9.25,25.88,8.22c10.6-1.03,23.7,3.08,23.7,3.08
			L1963.28,841.63z"/>
		<path style="fill:#F9DDBF;" d="M2087.76,845.87c0,0-4.68,9.26-13.16,19.91c-10.23,12.81-26,27.61-45.8,30.53
			c-9.46,1.39-18.71-0.64-27.21-4.42c-0.02-0.01-0.03-0.01-0.03-0.01c-24.05-10.67-42.13-35.22-42.13-35.22
			c-4.24-11.56,2.7-19.4,2.7-19.4s48.56,10.92,53.18,8.61c4.62-2.31,31.6-80.03,38.02-89.79c6.43-9.77,28.32-14.84,28.32-14.84
			L2087.76,845.87z"/>
		<path style="fill:#F2CCAA;" d="M2074.59,865.78c-10.23,12.81-26,27.61-45.8,30.53c-9.46,1.39-18.71-0.64-27.21-4.42
			c0.94,0.12,24.96,3.09,34.53-14.04c9.76-17.47,20.32-45.22,34.83-35.97C2077.21,845.88,2076.93,855.8,2074.59,865.78z"/>
		<path style="fill:#233862;" d="M2268.92,1370.02c0,0,14.82,13.52,11.93,23.13c-2.89,9.61-16.26,16.01-18.07,27.76
			c-1.81,11.74-9.03,18.15-15.54,18.15s-31.01,0-31.01,0s-4.79-8.26,6.78-10.75s15.92-16.29,15.2-29.1s1.08-29.89,1.08-29.89
			l24.57-5.69L2268.92,1370.02z"/>
		<path style="fill:#233862;" d="M2143.51,1375.77c0,0,5.33,57.28-1.17,60.49l-83.25-0.17c0,0,0-9.61,13.37-11.74
			s36.86-9.96,40.84-27.4C2117.27,1379.5,2143.51,1375.77,2143.51,1375.77z"/>
		<path style="fill:#FFB27D;" d="M2202.83,964.81c-17.13-38.42-27.61-49.45-25.61-61.37c1.49-8.88-4.54-165.47-4.54-165.47
			c-2.03-0.63-6.11-1.19-8.33-1.69c-7.03-1.56-12.84-6.5-15.26-13.27c-2.92-8.17-5.23-20.22-5.18-35.33l-2.19,0.43l-36.9,7.31
			c0,0,0.84,11.61,0.86,22.55c0,0.09,0,0.18,0,0.27c0.04,9.5-6.19,17.89-15.32,20.52c-4.66,1.35-8.72,2.5-8.72,2.5
			s-13.55,38.68-16.14,78.42c-2.59,39.74,24.64,57-0.21,136.41C2039.94,1037.18,2212.3,986.03,2202.83,964.81z"/>
		<path style="fill:#E8945B;" d="M2104.81,695.41c0,0,0.84,11.61,0.86,22.55c20.65-0.58,31.56-19.42,36.03-29.86L2104.81,695.41z"/>
		<path style="fill:#FFB27D;" d="M2097.92,705.76c0,0,48.85,0.81,48.89-29.62c0.03-30.43,6.36-50.82-24.83-52.62
			c-31.19-1.8-37.26,9.8-39.74,19.96C2079.75,653.63,2085.21,704.77,2097.92,705.76z"/>
		<path style="fill:#163560;" d="M2099.73,622.77c0,0,13.38,35.7,33.9,40.98c20.53,5.28,29.43-0.22,29.43-0.22
			s-15.75-12.51-19.01-34.34C2144.05,629.19,2109.82,605.78,2099.73,622.77z"/>
		<path style="fill:#163560;" d="M2103.04,625.67c0,0-9.92,3.71-14,10.94c-3.99,7.07-7.39,16.44-6.6,27.94
			c0,0-10.08-24.27,1.25-37.99C2095.69,612,2103.04,625.67,2103.04,625.67z"/>
		<path style="fill:#EBF3FA;" d="M2108.55,686.89c0,0-3.37,4.44-10.11,4.12c-5.43-0.26-7.53-4.97-7.53-4.97
			S2100.89,683.63,2108.55,686.89z"/>
		<path style="fill:#F9DDBF;" d="M2207.55,807.24c0,0,1.24,17.49,0,38.48c-0.83,13.91-14.9,32.55-16.89,37.16
			c-5.01,11.56-10.66,13.44-10.66,13.44l-43.71,10.71l-15.37,3.76l-48.46-14.47c0,0-22.08-61.61-13.21-96.3
			c8.86-34.68,22.41-58.77,22.41-58.77s39.55,38.72,91.04-3.28L2207.55,807.24z"/>
		<path style="fill:#F2CCAA;" d="M2194.75,851.39c-0.82,13.91-2.1,26.87-4.1,31.48c-5.01,11.56-10.66,13.44-10.66,13.44
			l-43.71,10.71l-18.98-5.58c0,0,63.37-9.6,56.35-64.13L2194.75,851.39z"/>
		<path style="fill:#00559B;" d="M2075.53,905.66c0,0-24,74.71-25.54,100.14c-1.54,25.43,45.88,361.32,47.79,373.04
			c1.8,11.05,15.52,18.09,15.52,18.09s6.31,3.72,15.31,1.18c12.49-3.53,16.44-7.75,16.44-7.75s18.68-239.55,7.12-325.13
			s-11.7-159.57-11.7-159.57H2075.53z"/>
		<path style="fill:#3089E3;" d="M2177.22,903.44c0,0,36.61,49.12,40.02,82.33c3.41,33.21,5.35,149.85,12.63,182.22
			c7.27,32.37,33.99,94.67,33.99,195.64c0,0-2.78,5.79-11.35,8.87c-2.74,0.99-6.42,1.94-9.98,2.76c-7.07,1.62-14.33-1.83-17.55-8.33
			c-18.06-36.37-75.6-153.66-78.55-178c-2.09-17.23-20.25-131.26-59.88-198.18c-9.51-16.06,5.84-79.95,5.84-79.95L2177.22,903.44z"
			/>
		<path style="fill:#FFFFFF;" d="M2107.46,687.7c0,0-0.84,3.59-9.77,3.03c0,0-7.49-0.46-7.26-4.4
			C2090.44,686.33,2097.7,683.53,2107.46,687.7z"/>
		<path style="fill:#233862;" d="M2071.7,894.13c0,0,9.64,7.62,28.78,8.01c22.86,0.46,79.52-5.83,79.52-5.83s2.52,7.03,2.42,14.46
			c0,0-69.19,17.45-109.28,2.55C2073.12,913.32,2067.95,903.59,2071.7,894.13z"/>
		<g>
			<path style="fill:#FFFFFF;" d="M2094.99,921.84c-5.75,0-10.43-5.3-10.43-11.81s4.68-11.81,10.43-11.81s10.43,5.3,10.43,11.81
				S2100.74,921.84,2094.99,921.84z M2094.99,901.68c-3.85,0-6.97,3.75-6.97,8.35s3.13,8.35,6.97,8.35s6.97-3.75,6.97-8.35
				S2098.84,901.68,2094.99,901.68z"/>
		</g>
		
			<rect x="2129.79" y="825.66" transform="matrix(0.7542 -0.6567 0.6567 0.7542 -49.3149 1648.2501)" style="fill:#B5453C;" width="94" height="128.67"/>
		<path style="fill:#FFB27D;" d="M2164,907.87c0,0-25.97,3.04-25.89,9.2s6.47,18.83,9.68,19.39c3.21,0.56,21.14-17.13,21.14-17.13
			L2164,907.87z"/>
		<path style="fill:#F9DDBF;" d="M2172.69,737.96c0,0,34.68,2.43,47.97,34.75s38.51,86.57,38.51,95.7s-14.09,37.26-89.75,53.44
			c0,0-7.83-8.23-7.35-14.74c0,0,47.23-40.57,47.1-45.31c-0.24-8.97-7.74-20.81-49.21-62.29
			C2148.69,788.22,2172.69,737.96,2172.69,737.96z"/>
	</g>
	<g>
		<path style="fill:#CDE0FB;" d="M2449.48,544.49l20.68,72.28c0.3,1.06,0.41,2.14,0.34,3.19c-0.25,3.8-2.85,7.21-6.72,8.32
			l-125.53,35.92c-3.89,1.11-7.91-0.43-10.13-3.55c-0.6-0.84-1.07-1.79-1.37-2.84l-20.67-72.25c-1.42-4.94,1.44-10.09,6.37-11.5
			l125.53-35.92C2442.91,536.73,2448.05,539.56,2449.48,544.49z"/>
		<g>
			<path style="fill:#BED7FB;" d="M2470.5,619.96c-0.25,3.8-2.85,7.21-6.72,8.32l-125.53,35.92c-3.89,1.11-7.91-0.43-10.13-3.55
				l63.93-58.25L2470.5,619.96z"/>
			<path style="fill:#DFEBFD;" d="M2449.48,544.49l-56.2,69.78l-86.14-25.02l-1.06-3.7c-1.42-4.94,1.44-10.09,6.37-11.5
				l125.53-35.92C2442.91,536.73,2448.05,539.56,2449.48,544.49z"/>
		</g>
	</g>
	<g>
		<g>
			<path style="fill:#B0D4FF;" d="M1454.09,1437.07h-0.36c-2.11,0-3.8-1.74-3.76-3.84l5.7-246.83l16.78-1.96l-14.3,248.81
				C1458.02,1435.39,1456.24,1437.07,1454.09,1437.07z"/>
		</g>
		<g>
			<path style="fill:#95C0F4;" d="M1356.33,1437.07h-0.36c-2.11,0-3.8-1.74-3.76-3.84l5.7-246.83l16.78-1.96l-14.31,248.81
				C1360.26,1435.39,1358.48,1437.07,1356.33,1437.07z"/>
		</g>
		<g>
			<path style="fill:#B0D4FF;" d="M1626.09,1437.07h0.36c2.11,0,3.8-1.74,3.76-3.84l-5.7-246.83l-16.78-1.96l14.3,248.81
				C1622.16,1435.39,1623.94,1437.07,1626.09,1437.07z"/>
		</g>
		<path style="fill:#B0D4FF;" d="M1345.22,1171.08v-169.14c0-29.76,24.13-53.89,53.89-53.89h121.86c29.76,0,53.89,24.13,53.89,53.89
			v175.61L1345.22,1171.08z"/>
		<path style="fill:#95C0F4;" d="M1596.69,1197.79H1361.4c-8.94,0-16.18-7.24-16.18-16.18v-10.52h251.47V1197.79z"/>
		<path style="fill:#B0D4FF;" d="M1624.89,1197.79h-178.01c-6.61,0-11.96-5.36-11.96-11.96v-2.77c0-6.61,5.36-11.96,11.96-11.96
			h178.01c6.61,0,11.96,5.36,11.96,11.96v2.77C1636.85,1192.43,1631.5,1197.79,1624.89,1197.79z"/>
	</g>
	<g>
		<path style="fill:#233862;" d="M1617.98,1128.94c-17.46,30.38-39.42,42.11-39.42,42.11h-91.35
			C1487.21,1171.05,1631.29,1105.76,1617.98,1128.94z"/>
		<g>
			<path style="fill:#FFB27D;" d="M1547.82,1364.03c-2.38,2.73-2.68,5.78-1.51,9.03c0,0.01,0.01,0.03,0.02,0.04
				c2.18,6.02,9.38,12.74,17.74,19.46c1.07,0.86,2.02,1.65,2.85,2.37c0.22,0.19,0.44,0.38,0.64,0.57c0.17,0.15,0.33,0.3,0.49,0.44
				c7.8,7.19,4.86,8.83,18.87,23.42c15.97,16.62,26.97,16.92,30.1,15.4c2.65-1.29-2.73-10.1-8.69-20.01
				c-0.29-0.48-0.57-0.96-0.87-1.44c-0.79-1.32-1.58-2.65-2.37-3.98c-6.98-11.92-5.19-17.52-3.53-35.26
				c1.34-14.42,22.43-80.55,22.43-80.55l-30.61-5.27c0,0-9.22,52.66-19.37,60.77c-5.43,4.32-11.51,4.38-16.73,7.58
				c-0.37,0.22-0.73,0.45-1.09,0.69C1553.23,1359.26,1550.2,1361.29,1547.82,1364.03z"/>
			<path style="fill:#233862;" d="M1547.82,1364.03c-2.38,2.73-2.68,5.78-1.51,9.03c0,0.01,0.01,0.03,0.02,0.04
				c2.67,6.01,9.68,12.7,17.77,19.4c1.06,0.88,1.99,1.68,2.82,2.43c0.22,0.19,0.44,0.38,0.64,0.57c0.17,0.15,0.33,0.3,0.49,0.44
				c7.8,7.19,4.86,8.83,18.87,23.42c15.97,16.62,26.97,16.92,30.1,15.4c2.65-1.29-2.73-10.1-8.69-20.01
				c-3.11-1.14-17.55-7.01-28.47-20.98c-9.62-12.27-16.03-28.04-22.58-37.17c-0.37,0.22-0.73,0.45-1.09,0.69
				C1553.23,1359.26,1550.2,1361.29,1547.82,1364.03z"/>
			<path style="fill:#FFB27D;" d="M1794.62,1344.91c1.89,9.45,15.36,7.87,30.4,4.2c15.05-3.68,11.47,0.69,32.88-1.68
				c21.41-2.37,27.9-10.35,28.55-13.54c0.58-2.83-10-3.82-21.35-5.13c-1.43-0.16-2.86-0.34-4.29-0.51
				c-12.81-1.61-22.2-9.88-33.84-16.67c-11.02-6.43-27.48-32.64-27.48-32.64l-29.37,2.33c0,0,15.41,23.41,21.37,33.58
				c3.51,5.99,3.32,13.9,2.88,20.01C1794.17,1338.19,1793.95,1341.58,1794.62,1344.91z"/>
			<path style="fill:#233862;" d="M1825.03,1349.11c15.05-3.68,11.47,0.69,32.88-1.68c21.41-2.37,27.9-10.35,28.55-13.54
				c0.58-2.83-10-3.82-21.35-5.13l-0.11,0.22c0,0-12.84,9.11-30.67,9.53c-14.53,0.35-29.92-3.81-39.95-3.65
				c-0.23,3.32-0.44,6.72,0.23,10.05C1796.51,1354.36,1809.98,1352.78,1825.03,1349.11z"/>
			<path style="fill:#233862;" d="M1682.08,1157.13l-27.45,73.87l-35.84,96.46c0,0-9.73,0.94-19.04-1.74
				c-8.58-2.48-18.42-8.96-18.42-8.96s9.95-103.57,28.52-163.02c4.76-15.26,10.09-27.6,15.97-34.55
				C1654.6,1085.17,1682.08,1157.13,1682.08,1157.13z"/>
			<path style="fill:#2B478B;" d="M1654.17,1039.81c-17.99-5.8-69.28,1.65-120.81,11.73l-10.79-17.8l-111.3-8.69
				c0,0-36.73,81.45-16.62,133.35c2.96,7.63,8.83,12.52,18.84,12.68c0,0,1.62,0,1.63,0c0,0,66.25-0.04,87.76-0.04
				c55.35,0,117.14-38.05,125.14-39.65c13.08-2.62,18.32,23.55,31.4,51.03s122.99,121.68,122.99,121.68s16.89,0.17,23.87-2.45
				c7.5-2.81,10.25-6.47,10.25-6.47S1694.73,1052.89,1654.17,1039.81z"/>
			<path style="fill:#233862;" d="M1518.19,709.65c-14.26-7.49-35.95-8.5-39.48-8.97c-42.18-5.67-67.56,55.62-69.05,74.19
				c-2.75,34.23-20.86,39.45-46.35,60.88c-51.1,42.98-36.12,92.93-8.17,111.49c16.77,11.13,46.32,0,46.32,0
				c0.42,0.29,80.82-44.95,120.46-66.77C1581.33,872.02,1554.52,728.73,1518.19,709.65z"/>
			<path style="fill:#FFB27D;" d="M1488.69,861.89c0.17,0.11-19.5,6.83-32.66,1c-12.38-5.47-21.75-25.83-21.57-25.84
				c5.63-0.26,11.81-5.18,16.57-37.48l2.4,0.86l40.31,14.5c0,0-2.92,12.93-4.81,25.25C1487.34,850.52,1486.49,860.43,1488.69,861.89
				z"/>
			<path style="fill:#ED975D;" d="M1493.74,814.94c0,0-2.92,12.93-4.81,25.25c-23.15-4.17-32.24-27.24-35.5-39.75L1493.74,814.94z"
				/>
			<path style="fill:#FFB27D;" d="M1499.75,827.77c0,0-55.15-7.4-50.01-41.68c5.14-34.27,1.48-58.31,36.91-55.04
				c35.43,3.28,40.3,17.38,41.36,29.24S1514.23,828.82,1499.75,827.77z"/>
			<path style="fill:#233862;" d="M1526,741.51c0,0-35.3,30.42-59.32,32.88c-24.01,2.45-33.11-5.26-33.11-5.26
				s14.16-11.75,22.67-30.72c2.51-5.59,7.81-9.43,13.92-9.95C1487.31,726.98,1519.82,726.3,1526,741.51z"/>
			<path style="fill:#233862;" d="M1503.93,738.78c0,0,11.81,11.42,15.53,19.89c3.59,8.17,4.67,27.72,1.81,35.49
				c0,0,18.4-35.78,7.98-53.17C1518.2,722.56,1503.93,738.78,1503.93,738.78z"/>
			<path style="fill:#FFFFFF;" d="M1535.13,943.14c-1.67,111.64-0.46,88.31-12.67,98.91c-2.94,2.55-11.22,4.07-22.1,4.79
				c-34.23,2.27-94.41-3.37-96.7-9.69c-7.9-21.89-2.32-28.69-8.91-62.2c-0.69-3.56-1.54-7.42-2.53-11.62
				c-5.49-23.02-10.84-30.85,8.65-67.83c17.67-33.5,36.03-60.68,37.68-59.7c46.62,27.68,50.38,4.41,50.38,4.41
				S1535.95,888.68,1535.13,943.14z"/>
			<path style="fill:#2B478B;" d="M1654.63,1231l-35.84,96.46c0,0-9.73,0.94-19.04-1.74c-8.58-2.48-18.42-8.96-18.42-8.96
				s9.95-103.57,28.52-163.02L1654.63,1231z"/>
			<path style="fill:#FFFFFF;" d="M1488.93,840.19c0,0,47.98,8.13,53.61,28.79c5.63,20.66,38.79,142.09,38.79,142.09
				s-24.39,4.38-35.66-6.89c-11.27-11.27-39.2-104.53-39.2-104.53L1488.93,840.19z"/>
			<path style="fill:#EBF3FF;" d="M1500.36,1046.83c-34.23,2.27-94.41-3.37-96.7-9.69c-7.9-21.89-2.32-28.69-8.91-62.2l16.51-46.49
				c0,0-2.73,51.77,12.54,65.39c15.25,13.62,62.51,26.29,69.94,37.67C1497.32,1036.96,1499.67,1042.43,1500.36,1046.83z"/>
			<path style="fill:#FFB27D;" d="M1461.14,1025.06c0,0,33.77-7.52,39.22-4.52c5.45,3,18.77,13.91,20.44,17.71
				c1.67,3.8-12.13-2.88-16.62-4.09c-2.91-0.78-10.56,1.88-14.35,3.14c-15.94,5.31-25.71,2.58-25.71,2.58L1461.14,1025.06z"/>
			<path style="fill:#FFFFFF;" d="M1438.52,835.75c0,0-45.35,2.79-61.05,24.69c-22.1,30.82-65.94,162.18-40.81,179.69
				c28.29,19.73,128.77,5.16,128.77,5.16s3.34-15.63-1.31-23.19s-80.25-19.77-83.74-23.26s43.62-68.04,43.62-78.51
				S1438.52,835.75,1438.52,835.75z"/>
			<path style="fill:#FFB27D;" d="M1501.99,1029.93c0,0,7.08,9.13,9.4,10.22c2.32,1.09,3.82,0.82,3.82,0.82l-4.77-8.58
				L1501.99,1029.93z"/>
			<path style="fill:#FFB27D;" d="M1500.36,1020.53l20.57,9.99c0,0-0.88,1.43-3.41,1.32c-2.53-0.12-8.92-2.45-8.92-2.45
				L1500.36,1020.53z"/>
		</g>
		<g>
			<g>
				<polygon style="fill:#3089E3;" points="1511.39,1054.13 1674.14,1054.13 1723.09,932.39 1560.6,932.39 				"/>
				<polygon style="fill:#003663;" points="1676.04,1049.39 1461.14,1049.39 1461.14,1054.13 1674.14,1054.13 				"/>
			</g>
			<path style="fill:#FFFFFF;" d="M1633.05,993.26c1.23-4.28-1.25-7.75-5.53-7.75c-4.28,0-8.74,3.47-9.97,7.75
				c-1.23,4.28,1.25,7.75,5.53,7.75S1631.83,997.54,1633.05,993.26z"/>
		</g>
	</g>
	<g>
		<path style="fill:#B0D4FF;" d="M758.72,1192h-0.52c-6.05,0-10.95-4.9-10.95-10.95v-231.2c0-6.05,4.9-10.95,10.95-10.95h0.52
			c6.05,0,10.95,4.9,10.95,10.95v231.2C769.67,1187.09,764.77,1192,758.72,1192z"/>
		<g>
			<path style="fill:#95C0F4;" d="M758.36,1437.07h-0.36c-2.11,0-3.8-1.74-3.76-3.84l5.7-246.83l16.78-1.96l-14.31,248.81
				C762.29,1435.39,760.52,1437.07,758.36,1437.07z"/>
		</g>
		<g>
			<path style="fill:#B0D4FF;" d="M1028.12,1437.07h0.36c2.11,0,3.8-1.74,3.76-3.84l-5.7-246.83l-16.78-1.96l14.31,248.81
				C1024.19,1435.39,1025.97,1437.07,1028.12,1437.07z"/>
		</g>
		<path style="fill:#B0D4FF;" d="M1026.92,1171.08h-28.2H848.91H747.25v10.52c0,8.94,7.24,16.18,16.18,16.18h85.48h149.81h28.2
			c6.61,0,11.96-5.36,11.96-11.96v-2.77C1038.88,1176.44,1033.53,1171.08,1026.92,1171.08z"/>
		<path style="fill:#163560;" d="M1166.93,1384.3c0,0-4.12,51.18,5.04,51.86c1.22,0.09,46.48,0.09,46.48,0.09l57.78-0.33
			c0,0-0.38-13.92-17.27-16.87c-16.89-2.94-50.32-17.16-60.55-39.48C1187.66,1356.09,1166.93,1384.3,1166.93,1384.3z"/>
		<path style="fill:#1C468A;" d="M819.33,1103.92c0,0,1.92,50.3,10.79,67.16h204.35c0,0,49.1,5.08,53.58,8.39
			c5.65,4.18-19.67,45.62,75.23,207.59l46.48-1.18c0,0-48.61-262.67-57.24-269.32c-12.92-9.94-164.1-44.56-189.98-45.31
			C936.66,1070.49,819.33,1103.92,819.33,1103.92z"/>
		<path style="fill:#FFB27D;" d="M933.89,805.89c15.77,9.77,16.66,29.22,16.66,29.22c-38.46,9.95-94.43-32.75-94.43-32.75
			s24.76-16.63,33.93-53.19c0.46-1.84,0.89-3.74,1.26-5.67c1.2-6.16,1.95-12.82,2.08-20.01l17.67,15.83l29.38,26.32
			c0,0-0.67,10.92-4.34,29.71C935.47,798.63,934.73,802.15,933.89,805.89z"/>
		<path style="fill:#B0D4FF;" d="M955.62,1007.81c-1.31,8.58,1.35,15.49,2.62,21.87c0.5,2.44,0.79,4.8,0.58,7.15
			c-2.1,23.74,6.36,26.75,3.71,34.41c0,0-9.04,5.29-25.6,11.56c-7.2,2.72-15.83,5.64-25.76,8.38c-0.52,0.14-1.04,0.28-1.57,0.43
			c-38.45,10.39-78.87,12.61-90.29,12.31c-21.81-0.58-26.22-55.88-18.12-125.52c12.61-108.49,29.65-161.09,74.57-199.1
			c2.83-2.39,0.92,5.75,16.02,13.03c13.95,6.71,30.78,8.29,43.84,5.39l10.27,10.53c20.4,32.23,22.54,70.48,20.81,102.37
			C964.51,950.94,959.42,983.11,955.62,1007.81z"/>
		<path style="fill:#ED975D;" d="M940.45,765.64c0,0,1.56-1.65-2.11,17.14c-32.54-9.42-43.14-25.99-47.49-36.99
			c-1.24-3.11,12.1-4.76,20.22-6.48L940.45,765.64z"/>
		<path style="fill:#FFB27D;" d="M955.57,765.73c0,0-62.79,8.99-67.79-30.2c-5-39.19-16.47-64.42,23.41-71.82
			c39.88-7.4,49.59,6.56,54.44,19.24C970.48,695.63,971.78,762.38,955.57,765.73z"/>
		<g>
			
				<rect x="1211.44" y="928.19" transform="matrix(-0.9544 -0.2985 0.2985 -0.9544 2075.7969 2305.2002)" style="fill:#1C468A;" width="5.03" height="131.75"/>
			
				<rect x="1058.48" y="1048.7" transform="matrix(-0.9999 -0.0104 0.0104 -0.9999 2244.218 2117.3174)" style="fill:#1C468A;" width="138.26" height="8.27"/>
		</g>
		<path style="fill:#2C3A64;" d="M867.76,664.51c-0.5-0.59-1.67-1.07-4.28-1.23c0,0,2.1-1.29,4.89-1.33
			c0.57-3.62,2.56-10.03,8.81-11.54c0,0-3.37,1.76-3.84,5.62c7.29-7.37,22.83-12.66,65.72-8.93c56.52,4.91,37.6,40.97,30.24,45.23
			c-7.36,4.26-25.69-7.72-39.34-6.75s-16.4,20.67-21.05,23.34s-2.79-2.1-9.03-4.98c-6.24-2.88-6.92,7.49-5.16,14.25
			c1.76,6.76-6.92,15.59-6.92,15.59s0,0-8.62-9.43c-8.62-9.43-16.5-49.16-12.48-57.58C867.05,666.02,867.4,665.26,867.76,664.51z"/>
		<path style="fill:#91B8EF;" d="M962.54,1071.24c0,0-9.04,5.29-25.6,11.56c-71.64-52.27-71.25-176-71.64-178.11l89.98,79.23
			l2.97,45.75c0.5,2.44,0.79,4.8,0.58,7.15C956.72,1060.57,965.19,1063.58,962.54,1071.24z"/>
		<g>
			<path style="fill:#FFB27D;" d="M1092.24,1013.04c0,0,5.76,0.94,11.84-1.92c6.08-2.85,27.05-11.86,30.99-10.63
				s16.8,8.49,19.83,9.87s8.38,8.46,8.38,8.46c-2.22,2.24-10.03-2.9-13.52-2.8c-3.49,0.1-29.26,14.18-36.92,14.48
				c-7.66,0.31-19.6-1.26-19.6-1.26L1092.24,1013.04z"/>
			<path style="fill:#FFB27D;" d="M1138.95,1014.16c0.07,0.42,9.42,10.84,16.55,7.54l-7.81-7.72L1138.95,1014.16z"/>
			<path style="fill:#FFB27D;" d="M1104.08,1011.12c0,0,8.39-7.77,11.17-11.5c0,0,1.67,0.77,1.74,2.18c0.11,2.36-2.2,6.7-2.2,6.7
				L1104.08,1011.12z"/>
		</g>
		<path style="fill:#B0D4FF;" d="M939.04,826.51c-46.12-28.08-100.55,20.98-77.66,69.89c26.54,56.71,70.71,125.87,105.81,129.96
			c25.02,2.91,96.52,12.08,126.8,6.43c0,0,14.67,0.72,6.71-22.9c0,0-97.85-27.27-114.1-48.42c-8.71-11.33-23.55-34.28-46.5-134.29
			C940.02,826.76,939.4,826.73,939.04,826.51z"/>
	</g>
	<g>
		<g>
			<path style="fill:#739AF0;" d="M2178.98,1437.07h0.5c2.91,0,5.25-2.4,5.19-5.31l-7.87-340.99l-23.17-2.7l19.76,343.72
				C2173.55,1434.75,2176.01,1437.07,2178.98,1437.07z"/>
		</g>
		<g>
			<g>
				<path style="fill:#739AF0;" d="M1039.57,1437.07h-0.49c-2.91,0-5.25-2.4-5.19-5.31l7.87-340.99l23.17-2.7l-19.76,343.72
					C1045,1434.75,1042.54,1437.07,1039.57,1437.07z"/>
			</g>
			<path style="fill:#739AF0;" d="M2199.17,1097.04H1016.43c-8.61,0-15.58-6.98-15.58-15.58v-9.98c0-8.61,6.98-15.58,15.58-15.58
				h1182.74c8.61,0,15.58,6.98,15.58,15.58v9.98C2214.76,1090.06,2207.78,1097.04,2199.17,1097.04z"/>
		</g>
	</g>
	<g>
		<path style="fill:#A9D8FF;" d="M2004.32,225.21c0,28.56,10.12,54.75,26.96,75.2c14.57,17.68,22.66,39.81,22.66,62.71v33.03
			c0,21,17.18,38.18,38.18,38.18h61.1c21,0,38.18-17.18,38.18-38.18v-33.08c0-22.95,8.21-45.06,22.77-62.8
			c16.91-20.6,27.01-47,26.84-75.77c-0.38-65.27-53.07-117.63-118.34-117.63c-7.25,0-14.35,0.66-21.25,1.91
			c-1.53,0.28-3.04,0.58-4.55,0.92C2043.92,121.46,2004.32,168.71,2004.32,225.21z"/>
		<path style="fill:#95C0F4;" d="M2153,434.33l-0.13,1.02l-1.68,12.87l-0.44,3.39v0.03l-0.45,3.41l-1.67,12.86l-0.44,3.39
			l-0.01,0.03l-0.44,3.42l-0.25,1.88c-0.85,6.53-8.31,11.51-17.24,11.51h-20.11c-2.13,0-4.16-0.28-6.05-0.8h-0.01
			c-1.7-0.47-3.27-1.13-4.68-1.95l-0.11-0.06c-1.14-0.67-2.17-1.45-3.04-2.32c-1.8-1.78-2.99-3.91-3.33-6.26l-0.71-4.99l-0.45-3.14
			v-0.01l-0.01-0.07v-0.01l-0.44-3.07l-1.71-11.93l-0.45-3.13l-0.01-0.07l-0.44-3.09l-1.85-12.92H2153z"/>
		<g>
			<path style="fill:#739AF0;" d="M2145.02,434.33h-0.14h-11.23c-18.34,5.3-36.53,10.54-44.95,12.92l0.44,3.09l0.01,0.07l0.45,3.13
				c6.83-1.89,23.21-6.58,63.26-18.19l0.13-1.02H2145.02z"/>
			<path style="fill:#739AF0;" d="M2091.75,468.54L2091.75,468.54l0.01,0.07v0.01l0.45,3.14c7.89-2.22,24.18-6.89,58.09-16.72
				l0.45-3.41v-0.03l0.44-3.39c-21.43,6.2-47.37,13.7-59.88,17.25L2091.75,468.54z"/>
			<path style="fill:#739AF0;" d="M2099.3,485.33l0.11,0.06c1.41,0.82,2.98,1.48,4.68,1.95h0.01c9.3-2.67,23.11-6.65,43.64-12.6
				l0.44-3.42l0.01-0.03l0.44-3.39c-18.34,5.31-39.38,11.39-52.37,15.1C2097.13,483.88,2098.16,484.66,2099.3,485.33z"/>
		</g>
		<g>
			
				<rect x="2011.84" y="355.95" transform="matrix(0.167 0.986 -0.986 0.167 2093.3618 -1760.5564)" style="fill:#FFFFFF;" width="153.56" height="5.35"/>
		</g>
		<g>
			
				<rect x="2152.46" y="284.08" transform="matrix(0.9837 0.18 -0.18 0.9837 99.9451 -381.9832)" style="fill:#FFFFFF;" width="5.35" height="151.49"/>
		</g>
		<g>
			<path style="fill:#FFFFFF;" d="M2136.79,310.39c-0.69,0-1.45-0.09-2.31-0.28c-1.43-0.33-2.34-1.32-2.62-2.87
				c-0.61-3.34,2.01-9.48,5.7-14.68c-1.92-3.36-4.49-6.14-7.18-6.95c-3.97-1.21-10.07,2.46-14.32,7.15c0.78,1.1,1.48,2.25,2.09,3.4
				c2.17,4.11,3.74,9.36,1.6,11.79c-0.79,0.9-2.41,1.72-5.62,0.51c-4.01-1.51-5.45-4.91-3.96-9.32c0.73-2.16,2.08-4.41,3.8-6.5
				c-3.29-4.29-7.68-7.55-12.01-7c-2.31,0.29-4.3,1.1-5.95,2.24c2.77,5.15,3.41,11.69,1.49,15.2c-1.31,2.39-3.6,3.15-6.44,2.14
				c-2.04-0.73-3.11-3.54-2.72-7.16c0.4-3.71,2.25-7.77,5.55-10.59c-0.86-1.34-1.89-2.53-3.08-3.45
				c-7.46-5.79-13.63,0.42-13.89,0.69l-1.16-1.13c0.07-0.08,7.46-7.51,16.05-0.84c1.3,1.01,2.43,2.3,3.37,3.75
				c1.83-1.25,4.02-2.13,6.58-2.45c4.85-0.61,9.7,2.81,13.29,7.37c4.62-5.02,11.2-8.73,15.79-7.34c2.9,0.88,5.64,3.68,7.73,7.13
				c1.95-2.53,4.12-4.73,6.23-6.13c3.38-2.24,5.58-1.73,6.83-0.9c1.29,0.84,2.38,1.98,3.28,3.28c1.02-0.81,2.08-1.5,3.14-2.02
				c3.92-1.95,7.51-1.81,10.13,0.4l-1.05,1.24c-2.82-2.39-6.45-1.14-8.36-0.19c-1.05,0.52-2.07,1.19-3.01,1.95
				c2.61,4.7,3.11,10.83,1.62,13.8c-0.94,1.87-2.62,2.52-4.58,1.8c-3.54-1.3-4.4-3.73-4.5-5.55c-0.19-3.47,2.21-7.43,5.36-10.34
				c-0.81-1.21-1.79-2.26-2.92-3c-1.53-1.01-3.59-0.07-5.05,0.9c-2.11,1.39-4.31,3.69-6.26,6.29c2.43,4.62,3.69,10.01,2.77,13.48
				C2141.75,307.87,2140.47,310.39,2136.79,310.39z M2138.4,294.14c-3.21,4.68-5.46,9.97-4.95,12.8c0.16,0.9,0.61,1.4,1.39,1.58
				c3.17,0.72,5.12-0.21,5.8-2.75C2141.41,302.83,2140.39,298.23,2138.4,294.14z M2114.97,294.03c-1.48,1.85-2.65,3.8-3.27,5.63
				c-1.23,3.62-0.22,6.07,2.99,7.28c1.29,0.49,3.01,0.87,3.83-0.06c1.27-1.44,0.53-5.54-1.82-9.96
				C2116.19,295.94,2115.61,294.97,2114.97,294.03z M2094.72,288.9c-2.83,2.52-4.42,6.08-4.77,9.34c-0.3,2.76,0.38,5.01,1.65,5.46
				c2.06,0.73,3.57,0.27,4.47-1.39C2097.72,299.3,2097.12,293.52,2094.72,288.9z M2154.5,289.93c-2.81,2.7-4.73,6.17-4.58,8.84
				c0.11,1.94,1.26,3.32,3.44,4.12c1.2,0.44,2.01,0.12,2.58-1C2157.19,299.4,2156.66,294.07,2154.5,289.93z"/>
		</g>
	</g>
	<g>
		<rect x="716.68" y="529.87" style="fill:#D6E8FC;" width="19.75" height="72.66"/>
		<path style="fill:#D6E8FC;" d="M733.96,522.68h-13.91c-1.36,0-2.47-1.11-2.47-2.47l0,0c0-1.36,1.11-2.47,2.47-2.47h13.91
			c1.36,0,2.47,1.11,2.47,2.47l0,0C736.43,521.56,735.32,522.68,733.96,522.68z"/>
		<rect x="682.63" y="472.81" style="fill:#D6E8FC;" width="19.75" height="129.72"/>
		<path style="fill:#D6E8FC;" d="M699.46,467.43h-13.91c-1.36,0-2.47-1.11-2.47-2.47l0,0c0-1.36,1.11-2.47,2.47-2.47h13.91
			c1.36,0,2.47,1.11,2.47,2.47l0,0C701.93,466.32,700.82,467.43,699.46,467.43z"/>
		<rect x="650" y="382.48" style="fill:#D6E8FC;" width="19.75" height="220.05"/>
		<path style="fill:#D6E8FC;" d="M666.83,376.48h-13.91c-1.36,0-2.47-1.11-2.47-2.47l0,0c0-1.36,1.11-2.47,2.47-2.47h13.91
			c1.36,0,2.47,1.11,2.47,2.47l0,0C669.3,375.37,668.19,376.48,666.83,376.48z"/>
		<rect x="616.51" y="422.41" style="fill:#D6E8FC;" width="19.75" height="180.13"/>
		<path style="fill:#D6E8FC;" d="M633.34,417.59h-13.91c-1.36,0-2.47-1.11-2.47-2.47l0,0c0-1.36,1.11-2.47,2.47-2.47h13.91
			c1.36,0,2.47,1.11,2.47,2.47l0,0C635.81,416.48,634.7,417.59,633.34,417.59z"/>
		<rect x="583.88" y="322.45" style="fill:#D6E8FC;" width="19.75" height="280.09"/>
		<path style="fill:#D6E8FC;" d="M600.71,317.08H586.8c-1.36,0-2.47-1.11-2.47-2.47l0,0c0-1.36,1.11-2.47,2.47-2.47h13.91
			c1.36,0,2.47,1.11,2.47,2.47l0,0C603.18,315.97,602.07,317.08,600.71,317.08z"/>
		<rect x="552.1" y="366.19" style="fill:#D6E8FC;" width="19.75" height="236.35"/>
		<path style="fill:#D6E8FC;" d="M568.94,361.17h-13.91c-1.36,0-2.47-1.11-2.47-2.47l0,0c0-1.36,1.11-2.47,2.47-2.47h13.91
			c1.36,0,2.47,1.11,2.47,2.47l0,0C571.41,360.05,570.29,361.17,568.94,361.17z"/>
	</g>
	<g>
		<g>
			<polygon style="fill:#2B478B;" points="2023.5,1055.89 1860.76,1055.89 1811.8,934.15 1974.29,934.15 			"/>
			<polygon style="fill:#2B478B;" points="1858.85,1051.15 2073.76,1051.15 2073.76,1055.89 1860.76,1055.89 			"/>
		</g>
		<path style="fill:#FFFFFF;" d="M1901.84,995.02c-1.23-4.28,1.25-7.75,5.53-7.75s8.74,3.47,9.97,7.75
			c1.23,4.28-1.25,7.75-5.53,7.75S1903.07,999.3,1901.84,995.02z"/>
	</g>
	<path style="fill:#2E3552;" d="M2895.65,1437.15v1.18c0,1.88-1.44,3.43-3.19,3.43H87.15c-1.75,0-3.19-1.55-3.19-3.43v-1.18
		c0-1.88,1.44-3.43,3.19-3.43h2805.32C2894.21,1433.72,2895.65,1435.26,2895.65,1437.15z"/>
</g>
</svg>
