<?xml version="1.0" encoding="utf-8"?>
<!-- Generator: Adobe Illustrator 16.0.0, SVG Export Plug-In . SVG Version: 6.00 Build 0)  -->
<!DOCTYPE svg PUBLIC "-//W3C//DTD SVG 1.1//EN" "http://www.w3.org/Graphics/SVG/1.1/DTD/svg11.dtd">
<svg version="1.1" id="Layer_1" xmlns="http://www.w3.org/2000/svg" xmlns:xlink="http://www.w3.org/1999/xlink" x="0px" y="0px"
	 width="2802.79px" height="2800px" viewBox="0 0 2802.79 2800" style="enable-background:new 0 0 2802.79 2800;"
	 xml:space="preserve">
<g id="Illustration">
	<g>
		<path style="fill:#D9EEFF;" d="M2233.67,2187.86c-45.09,47.47-87.75,78.08-121.47,102.27
			c-396.24,284.3-865.09,201.43-964.74,181.2c-147.14-29.88-431.57-87.65-637.21-329.48c-311.1-365.86-262.66-942.27-21.34-1322.75
			c44.14-69.6,277.31-455.89,751.21-517.83c286.8-37.49,621.12,38.12,863.23,240.96C2611.55,967.99,2575.37,1828.12,2233.67,2187.86
			z"/>
		<g>
			<g>
				<circle style="fill:#A1D5FF;" cx="1247.61" cy="1376.17" r="850.22"/>
				<g>
					<circle style="fill:#3089E3;" cx="1247.61" cy="1376.17" r="725.63"/>
					<path style="fill:#FFFFFF;" d="M1247.61,2138.15c-420.15,0-761.97-341.82-761.97-761.98c0-420.16,341.83-761.98,761.97-761.98
						s761.97,341.82,761.97,761.98C2009.58,1796.33,1667.76,2138.15,1247.61,2138.15z M1247.61,650.54
						c-400.11,0-725.63,325.51-725.63,725.63c0,400.12,325.51,725.63,725.63,725.63c400.11,0,725.63-325.51,725.63-725.63
						C1973.24,976.06,1647.72,650.54,1247.61,650.54z"/>
				</g>
				<g>
					<circle style="fill:#3089E3;" cx="1247.61" cy="1376.17" r="442.38"/>
					<path style="fill:#FFFFFF;" d="M1247.61,1854.9c-263.96,0-478.73-214.75-478.73-478.73c0-263.97,214.75-478.72,478.73-478.72
						c263.97,0,478.73,214.75,478.73,478.72C1726.34,1640.13,1511.57,1854.9,1247.61,1854.9z M1247.61,970.14
						c-223.89,0-406.03,182.15-406.03,406.03c0,223.89,182.15,406.04,406.03,406.04c223.89,0,406.03-182.15,406.03-406.04
						C1653.64,1152.28,1471.5,970.14,1247.61,970.14z"/>
				</g>
				<g>
					
						<linearGradient id="SVGID_1_" gradientUnits="userSpaceOnUse" x1="1279.7715" y1="2670.7031" x2="1188.8228" y2="1953.8085" gradientTransform="matrix(1 0 0 -1 116 2879)">
						<stop  offset="0" style="stop-color:#FF928E"/>
						<stop  offset="1" style="stop-color:#FE7062"/>
					</linearGradient>
					<circle style="fill:url(#SVGID_1_);" cx="1247.61" cy="1376.17" r="171.39"/>
					<path style="fill:#FFFFFF;" d="M1247.61,1583.91c-114.54,0-207.73-93.19-207.73-207.73c0-114.54,93.19-207.73,207.73-207.73
						c114.54,0,207.73,93.19,207.73,207.73C1455.34,1490.72,1362.15,1583.91,1247.61,1583.91z M1247.61,1241.12
						c-74.47,0-135.05,60.58-135.05,135.05c0,74.47,60.58,135.05,135.05,135.05s135.05-60.58,135.05-135.05
						C1382.66,1301.7,1322.07,1241.12,1247.61,1241.12z"/>
				</g>
			</g>
			<g>
				
					<linearGradient id="SVGID_2_" gradientUnits="userSpaceOnUse" x1="2030.1157" y1="-1750.7529" x2="1825.8755" y2="-2580.4758" gradientTransform="matrix(-0.7071 -0.7071 -0.7071 0.7071 1252.0828 3997.624)">
					<stop  offset="0" style="stop-color:#09005D"/>
					<stop  offset="1" style="stop-color:#1A0F91"/>
				</linearGradient>
				<polygon style="fill:url(#SVGID_2_);" points="2058.87,567.1 2076.92,585.15 1393.33,1268.75 1375.27,1250.7 				"/>
				
					<linearGradient id="SVGID_3_" gradientUnits="userSpaceOnUse" x1="1855.9653" y1="-1925.1587" x2="1793.556" y2="-2594.6458" gradientTransform="matrix(-0.7071 -0.7071 -0.7071 0.7071 1252.0828 3997.624)">
					<stop  offset="0" style="stop-color:#09005D"/>
					<stop  offset="1" style="stop-color:#1A0F91"/>
				</linearGradient>
				<path style="fill:url(#SVGID_3_);" d="M1388.06,1207.14c10.36-10.36,59.18,38.46,48.82,48.82l-181.09,142.36
					c-6.69,5.26-15.36-3.41-10.1-10.1L1388.06,1207.14z"/>
				<path style="fill:#91B3FA;" d="M2076.53,585.55l91.96,9.14l-126.25,126.25c-41.37,41.37-99.1,61.99-157.31,56.21l0,0
					L2076.53,585.55z"/>
				<path style="fill:#91B3FA;" d="M2058.48,567.5l-9.14-91.96l-126.25,126.25c-41.37,41.37-61.99,99.1-56.21,157.31l0,0
					L2058.48,567.5z"/>
			</g>
		</g>
		<g>
			<g>
				<g style="opacity:0.3;">
					<path style="fill:#91B3FA;" d="M796.42,440.2c-2.57,2.57-6.74,2.56-9.31,0c-4.99-4.99-10.27-9.84-15.69-14.42
						c-2.75-2.31-3.13-6.4-0.87-9.17c0.02-0.03,0.06-0.06,0.08-0.1c2.34-2.78,6.49-3.13,9.27-0.79c5.71,4.81,11.27,9.92,16.53,15.18
						c2.41,2.41,2.56,6.2,0.46,8.78C796.74,439.86,796.58,440.03,796.42,440.2z M743.48,405.33c-6-3.79-12.21-7.36-18.48-10.61
						c-3.22-1.67-4.48-5.64-2.81-8.87c1.69-3.23,5.64-4.48,8.87-2.81c6.59,3.42,13.14,7.18,19.44,11.16
						c3.07,1.94,3.99,6.01,2.05,9.08c-0.14,0.22-0.29,0.44-0.46,0.63C750.03,406.47,746.33,407.13,743.48,405.33z M693.25,380.97
						c-6.67-2.35-13.53-4.45-20.37-6.21c-3.51-0.91-5.64-4.5-4.72-8.02s4.5-5.63,8.02-4.72c7.22,1.87,14.44,4.07,21.46,6.54
						c3.43,1.21,5.22,4.97,4.01,8.39c-0.26,0.73-0.63,1.39-1.09,1.95C698.85,381,695.95,381.92,693.25,380.97z M638.84,368.44
						c-7.04-0.81-14.19-1.31-21.26-1.51c-3.63-0.1-6.5-3.13-6.39-6.76c0.1-3.63,3.13-6.49,6.76-6.39
						c7.45,0.21,14.97,0.74,22.38,1.58c3.61,0.41,6.2,3.67,5.79,7.28c-0.15,1.29-0.66,2.45-1.42,3.4
						C643.33,367.73,641.15,368.71,638.84,368.44z M582.99,368.35c-7.02,0.78-14.11,1.87-21.07,3.24c-3.57,0.7-7.03-1.61-7.72-5.18
						c-0.7-3.57,1.61-7.03,5.18-7.72c7.32-1.44,14.78-2.59,22.17-3.41c3.61-0.4,6.86,2.2,7.26,5.82c0.2,1.82-0.36,3.55-1.42,4.87
						C586.32,367.26,584.78,368.15,582.99,368.35z M528.52,380.63c-6.69,2.31-13.35,4.95-19.82,7.82c-3.32,1.47-7.21-0.02-8.68-3.34
						c-1.48-3.32,0.02-7.21,3.34-8.68c6.81-3.02,13.83-5.79,20.86-8.23c3.43-1.19,7.18,0.63,8.37,4.07c0.78,2.23,0.28,4.59-1.11,6.3
						C530.73,379.48,529.72,380.21,528.52,380.63z M360.71,558.17c-3.51-0.92-5.63-4.51-4.71-8.02c1.88-7.2,4.09-14.42,6.59-21.46
						c1.22-3.43,4.98-5.22,8.4-4c3.42,1.21,5.22,4.98,4,8.4c-2.37,6.68-4.47,13.53-6.25,20.37c-0.25,0.94-0.68,1.77-1.25,2.48
						C365.91,557.88,363.29,558.84,360.71,558.17z M478.14,404.65c-6,3.74-11.91,7.79-17.57,12.03c-2.9,2.18-7.04,1.59-9.21-1.31
						c-2.18-2.9-1.58-7.02,1.32-9.21c5.96-4.46,12.18-8.73,18.5-12.67c3.09-1.92,7.14-0.98,9.06,2.11c1.53,2.45,1.25,5.5-0.48,7.62
						C479.33,403.77,478.79,404.25,478.14,404.65z M379.94,504.15c-3.22-1.68-4.47-5.65-2.79-8.87c3.44-6.6,7.21-13.14,11.21-19.43
						c1.93-3.08,6.02-3.97,9.08-2.03c3.07,1.95,3.97,6.01,2.03,9.08c-3.8,5.98-7.38,12.2-10.65,18.46c-0.21,0.4-0.45,0.77-0.73,1.11
						C386.16,504.85,382.76,505.62,379.94,504.15z M434.42,439.33c-5.01,4.99-9.87,10.26-14.44,15.66c-2.34,2.78-6.5,3.12-9.27,0.78
						c-2.74-2.32-3.11-6.39-0.86-9.16c0.03-0.04,0.06-0.07,0.09-0.11c4.81-5.69,9.93-11.24,15.2-16.49
						c2.58-2.56,6.74-2.56,9.31,0.02c2.4,2.41,2.54,6.2,0.45,8.78C434.74,438.98,434.58,439.16,434.42,439.33z"/>
					<path style="fill:#91B3FA;" d="M359.94,601.51c0.81-1.01,1.35-2.26,1.45-3.66c0.25-3.38,0.58-6.81,0.96-10.21
						c0.41-3.61-2.18-6.87-5.79-7.29c-3.61-0.41-6.88,2.18-7.29,5.79c-0.41,3.57-0.75,7.18-1.01,10.74
						c-0.27,3.62,2.45,6.77,6.08,7.04C356.57,604.1,358.62,603.13,359.94,601.51z"/>
				</g>
				<g style="opacity:0.3;">
					<path style="fill:#91B3FA;" d="M424.46,791.42c2-2.47,1.97-6.09-0.21-8.53c-2.26-2.52-4.51-5.14-6.68-7.77
						c-2.31-2.8-6.46-3.21-9.26-0.89c-2.82,2.32-3.21,6.46-0.89,9.26c2.29,2.77,4.65,5.52,7.04,8.18c2.42,2.71,6.58,2.94,9.29,0.51
						C424,791.95,424.24,791.68,424.46,791.42z"/>
					<path style="fill:#91B3FA;" d="M805.87,792c-2.42,2.71-6.58,2.94-9.29,0.52s-2.94-6.58-0.51-9.29
						c4.61-5.15,9.08-10.58,13.33-16.2c2.17-2.89,6.31-3.47,9.22-1.27c2.9,2.19,3.47,6.32,1.27,9.21c-1.84,2.43-3.71,4.83-5.62,7.18
						C811.55,785.5,808.72,788.81,805.87,792z M830.57,747.48c-3.17-1.78-4.29-5.79-2.51-8.96c3.42-6.09,6.62-12.37,9.5-18.7
						c1.5-3.31,5.41-4.76,8.71-3.25c3.3,1.5,4.76,5.41,3.25,8.71c-3.04,6.66-6.4,13.29-10,19.68c-0.19,0.33-0.4,0.64-0.63,0.93
						C836.92,748.34,833.41,749.07,830.57,747.48z M780.18,817.01c-5.58,4.73-11.44,9.29-17.42,13.55
						c-2.96,2.11-7.07,1.42-9.18-1.54c-2.11-2.96-1.42-7.06,1.54-9.17c5.68-4.04,11.25-8.37,16.54-12.87
						c2.77-2.35,6.93-2.01,9.28,0.76c2.08,2.45,2.05,5.98,0.1,8.39C780.79,816.44,780.5,816.73,780.18,817.01z M853.95,696.14
						c-3.48-1.04-5.46-4.71-4.42-8.18c2-6.67,3.73-13.51,5.15-20.32c0.74-3.56,4.23-5.84,7.79-5.1c3.55,0.74,5.83,4.23,5.1,7.78
						c-1.5,7.17-3.32,14.37-5.42,21.4c-0.25,0.85-0.66,1.61-1.19,2.26C859.33,695.99,856.59,696.92,853.95,696.14z M732.22,849.28
						c-6.48,3.39-13.2,6.54-19.97,9.39c-3.35,1.41-7.2-0.17-8.61-3.51c-1.41-3.36,0.17-7.21,3.52-8.61
						c6.43-2.7,12.81-5.7,18.97-8.92c3.22-1.69,7.19-0.44,8.88,2.79c1.25,2.4,0.88,5.22-0.72,7.19
						C733.74,848.28,733.04,848.86,732.22,849.28z M678.34,870.26c-7.08,1.89-14.33,3.51-21.53,4.8c-3.58,0.64-7-1.73-7.64-5.31
						c-0.64-3.58,1.73-7,5.31-7.64c6.85-1.23,13.73-2.77,20.47-4.57c3.51-0.94,7.12,1.15,8.06,4.65c0.56,2.11,0.03,4.27-1.25,5.85
						C680.91,869.09,679.74,869.89,678.34,870.26z M621.17,879c-7.33,0.31-14.76,0.31-22.07,0c-3.63-0.15-6.45-3.21-6.3-6.85
						c0.15-3.63,3.22-6.45,6.85-6.3c6.95,0.29,14,0.29,20.97,0c3.63-0.15,6.7,2.67,6.85,6.3c0.07,1.67-0.48,3.21-1.46,4.42
						C624.86,877.98,623.13,878.92,621.17,879z M563.46,875.05c-7.22-1.31-14.47-2.93-21.54-4.84c-3.51-0.94-5.59-4.56-4.64-8.06
						c0.94-3.51,4.56-5.58,8.06-4.64c6.72,1.81,13.6,3.36,20.46,4.59c3.58,0.65,5.95,4.07,5.3,7.65c-0.21,1.13-0.69,2.14-1.36,2.97
						C568.28,874.52,565.91,875.5,563.46,875.05z M507.99,858.52c-6.74-2.86-13.45-6.04-19.94-9.46c-3.21-1.69-4.45-5.67-2.75-8.89
						c1.69-3.21,5.67-4.45,8.89-2.75c6.17,3.25,12.54,6.28,18.93,8.98c3.35,1.42,4.91,5.28,3.49,8.63
						c-0.25,0.59-0.57,1.11-0.95,1.58C513.87,858.83,510.75,859.69,507.99,858.52z M457.56,830.23c-4.39-3.13-8.74-6.44-12.92-9.84
						c-1.51-1.23-3.01-2.47-4.49-3.73c-2.77-2.35-3.2-6.51-0.77-9.27c2.35-2.77,6.5-3.12,9.28-0.77c1.41,1.19,2.83,2.37,4.27,3.54
						c3.97,3.22,8.1,6.37,12.28,9.35c2.96,2.11,3.64,6.22,1.53,9.17c-0.08,0.11-0.16,0.22-0.25,0.32
						C464.32,831.71,460.4,832.27,457.56,830.23z"/>
					<path style="fill:#91B3FA;" d="M871.04,638.31c0.82-1.01,1.35-2.29,1.45-3.69c0.25-3.55,0.42-7.18,0.51-10.78
						c0.1-3.63-2.76-6.66-6.39-6.76c-3.63-0.1-6.66,2.76-6.76,6.4c-0.1,3.42-0.26,6.86-0.49,10.23c-0.25,3.63,2.49,6.77,6.11,7.01
						C867.7,640.89,869.73,639.92,871.04,638.31z"/>
				</g>
				<g>
					<path style="fill:#91B3FA;" d="M797.03,553.2c-0.27-1.28-1.32-2.26-2.62-2.42l-37.12-4.74c-7.37-15.84-17.32-30.64-29.71-43.66
						l9.19-36.26c0.32-1.27-0.2-2.6-1.3-3.32l-37.54-24.61c-1.1-0.72-2.53-0.67-3.57,0.14l-29.58,22.88
						c-16.89-6.17-34.42-9.39-51.89-9.84l-19.14-32.16c-0.67-1.12-1.99-1.7-3.27-1.44l-43.95,9.14c-1.28,0.27-2.26,1.32-2.42,2.62
						l-4.74,37.12c-15.84,7.37-30.64,17.32-43.66,29.71l-36.26-9.19c-1.27-0.32-2.61,0.2-3.32,1.3l-24.61,37.54
						c-0.72,1.1-0.67,2.53,0.14,3.57l22.88,29.58c-6.17,16.9-9.39,34.42-9.84,51.89l-32.16,19.15c-1.12,0.67-1.7,1.99-1.44,3.27
						l9.14,43.95c0.27,1.28,1.32,2.26,2.62,2.42l37.12,4.74c7.37,15.84,17.32,30.64,29.71,43.66l-9.19,36.25
						c-0.32,1.27,0.2,2.6,1.3,3.32l37.54,24.61c1.1,0.72,2.53,0.66,3.57-0.14l29.58-22.88c16.9,6.17,34.42,9.39,51.89,9.84
						l19.15,32.16c0.67,1.12,1.99,1.7,3.27,1.44l43.95-9.14c1.28-0.27,2.26-1.32,2.42-2.62l4.74-37.12
						c15.84-7.37,30.64-17.32,43.66-29.71l36.25,9.19c1.27,0.32,2.6-0.2,3.32-1.3l24.61-37.54c0.72-1.1,0.67-2.53-0.14-3.57
						l-22.88-29.58c6.17-16.9,9.39-34.42,9.84-51.89l32.16-19.14c1.12-0.67,1.7-1.99,1.44-3.27L797.03,553.2z"/>
					<g>
						<path style="fill:#BDD0FB;" d="M639.18,648.54c-18.32,16.83-46.92,15.63-63.75-2.69c-8.16-8.87-12.37-20.39-11.86-32.43
							c0.51-12.04,5.67-23.17,14.55-31.32c18.32-16.83,46.92-15.63,63.75,2.69c15.31,16.67,15.69,41.84,1.84,58.92
							C642.34,645.4,640.83,647.02,639.18,648.54z M574.09,613.85c-0.39,9.24,2.84,18.06,9.09,24.87
							c12.91,14.04,34.84,14.97,48.88,2.07c14.06-12.91,14.97-34.84,2.07-48.88c-12.91-14.04-34.84-14.97-48.88-2.07
							c-1.27,1.17-2.45,2.42-3.51,3.74C577.08,599.31,574.41,606.35,574.09,613.85z"/>
					</g>
					<path style="fill:#BDD0FB;" d="M693.76,685.47c2.38-2.94,4.62-6.01,6.73-9.2l0,0c0.67-1.01,1.31-2.03,1.93-3.05
						c3.09-5.07,5.79-10.38,8.02-15.85c0.03-0.07,0.06-0.15,0.1-0.22c0.09-0.21,0.17-0.42,0.25-0.63c0.17-0.41,0.32-0.83,0.49-1.24
						c0.42-1.09,0.06-2.29-0.79-2.99c-0.21-0.17-0.45-0.31-0.71-0.41c-1.35-0.52-2.87,0.16-3.4,1.51
						c-2.69,6.98-6.15,13.71-10.29,20.02c-20.53,31.32-54.97,48.15-89.9,47.7c-19.43-0.25-39-5.84-56.42-17.26
						c-3.05-2-5.98-4.15-8.78-6.41c-18.84-15.27-31.74-36.38-36.74-60.44c-5.75-27.64-0.39-55.86,15.08-79.47
						c31.97-48.75,97.59-62.39,146.33-30.44c3.01,1.97,5.9,4.08,8.67,6.33c12.01,9.74,21.76,22.01,28.5,35.95
						c0.17,0.36,0.42,0.67,0.71,0.89c0.77,0.63,1.85,0.78,2.8,0.32c1.31-0.64,1.86-2.21,1.23-3.51
						c-7.08-14.63-17.31-27.51-29.92-37.74c-2.91-2.36-5.94-4.58-9.1-6.65c-51.17-33.55-120.08-19.19-153.62,31.95
						c-16.25,24.78-21.88,54.41-15.84,83.42c5.26,25.26,18.8,47.42,38.57,63.46c2.94,2.38,6.02,4.63,9.22,6.74
						c24.79,16.25,54.41,21.88,83.42,15.84C655.56,718.79,677.73,705.25,693.76,685.47z"/>
				</g>
			</g>
			<g>
				<g style="opacity:0.3;">
					<path style="fill:#91B3FA;" d="M1072.93,374.48c1.11-1.37,1.23-3.35,0.18-4.87c-1.96-2.84-4.03-5.66-6.16-8.37
						c-1.39-1.77-3.93-2.08-5.71-0.7c-1.77,1.38-2.08,3.93-0.7,5.71c2.03,2.59,4,5.28,5.87,7.99c1.27,1.84,3.81,2.31,5.65,1.04
						C1072.41,375.05,1072.7,374.78,1072.93,374.48z"/>
					<path style="fill:#91B3FA;" d="M1052.62,350.8c-1.58,1.59-4.16,1.6-5.75,0.02c-4.01-4-8.28-7.83-12.68-11.4
						c-0.93-0.75-1.87-1.5-2.82-2.23c-1.77-1.38-2.09-3.93-0.71-5.7c1.37-1.62,3.93-2.09,5.71-0.71c1,0.78,1.98,1.55,2.94,2.33
						c4.61,3.74,9.09,7.76,13.3,11.95c1.49,1.48,1.59,3.84,0.29,5.44C1052.81,350.6,1052.71,350.7,1052.62,350.8z M1014.34,325.55
						c-5.9-3.52-12.06-6.71-18.33-9.47c-2.05-0.91-2.98-3.3-2.08-5.36c0.9-2.04,3.3-2.98,5.36-2.08c6.57,2.9,13.03,6.24,19.22,9.93
						c1.92,1.15,2.56,3.65,1.41,5.57c-0.1,0.17-0.21,0.33-0.34,0.47C1018.32,326.17,1016.09,326.59,1014.34,325.55z M976.64,308.95
						c-6.57-1.96-13.33-3.54-20.09-4.68c-2.21-0.37-3.7-2.47-3.33-4.68c0.37-2.22,2.46-3.7,4.68-3.33c7.1,1.2,14.19,2.85,21.08,4.91
						c2.15,0.64,3.37,2.9,2.73,5.06c-0.16,0.52-0.41,0.99-0.74,1.39C979.96,308.85,978.27,309.43,976.64,308.95z M936.02,302.11
						c-6.86-0.29-13.8-0.17-20.62,0.38c-2.24,0.18-4.19-1.49-4.38-3.73c-0.18-2.23,1.49-4.19,3.72-4.38
						c7.15-0.58,14.44-0.71,21.63-0.4c2.24,0.09,3.98,1.99,3.89,4.23c-0.04,0.9-0.37,1.73-0.9,2.38
						C938.57,301.57,937.36,302.16,936.02,302.11z M894.97,305.39c-6.73,1.38-13.42,3.19-19.91,5.38c-2.12,0.72-4.43-0.43-5.14-2.56
						c-0.72-2.13,0.42-4.43,2.56-5.14c6.81-2.3,13.83-4.19,20.87-5.64c2.2-0.45,4.34,0.97,4.8,3.17c0.25,1.24-0.09,2.47-0.82,3.38
						C896.73,304.68,895.92,305.19,894.97,305.39z M855.95,318.55c-6.18,2.97-12.23,6.35-17.98,10.07c-1.88,1.22-4.4,0.67-5.62-1.21
						c-1.21-1.88-0.67-4.39,1.21-5.62c6.03-3.89,12.39-7.44,18.87-10.56c2.03-0.97,4.45-0.12,5.42,1.9
						c0.71,1.46,0.45,3.14-0.51,4.32C856.98,317.9,856.51,318.28,855.95,318.55z M821.35,340.83c-5.25,4.38-10.28,9.16-14.97,14.18
						c-1.54,1.64-4.1,1.72-5.75,0.2c-1.64-1.53-1.71-4.08-0.2-5.75c4.92-5.27,10.2-10.27,15.7-14.87c1.73-1.44,4.29-1.21,5.72,0.51
						c1.27,1.51,1.24,3.68,0.04,5.16C821.74,340.47,821.55,340.66,821.35,340.83z M776.65,389.94c-1.96-1.08-2.67-3.55-1.58-5.52
						c3.01-5.44,6.36-10.8,9.96-15.93c0.55-0.78,1.09-1.55,1.65-2.32c1.26-1.84,3.86-2.22,5.67-0.89c1.81,1.32,2.22,3.86,0.9,5.67
						c-0.52,0.72-1.05,1.45-1.56,2.19c-3.45,4.91-6.66,10.03-9.52,15.21c-0.12,0.21-0.25,0.41-0.4,0.59
						C780.56,390.45,778.4,390.91,776.65,389.94z"/>
				</g>
				<g style="opacity:0.3;">
					<path style="fill:#91B3FA;" d="M1063.42,581.73c-4.53,5.45-9.43,10.65-14.57,15.5c-1.63,1.54-4.2,1.46-5.75-0.17
						c-1.54-1.64-1.43-4.2,0.17-5.75c4.9-4.61,9.58-9.58,13.9-14.78c1.43-1.72,4-1.95,5.72-0.52c1.71,1.42,1.96,3.96,0.56,5.68
						C1063.44,581.71,1063.43,581.73,1063.42,581.73z M1070.41,565.8c-1.88-1.22-2.42-3.74-1.2-5.62
						c3.66-5.67,7.03-11.62,9.99-17.68c0.98-2,3.42-2.86,5.44-1.87c2.02,0.98,2.85,3.41,1.87,5.43c-3.1,6.36-6.62,12.58-10.47,18.53
						c-0.08,0.13-0.17,0.25-0.26,0.36C1074.48,566.54,1072.17,566.93,1070.41,565.8z M1032.49,610.85
						c-5.71,4.19-11.74,8.06-17.89,11.52c-1.95,1.1-4.44,0.4-5.53-1.56c-1.1-1.96-0.4-4.42,1.55-5.53
						c5.87-3.29,11.61-6.99,17.07-10.98c1.81-1.33,4.35-0.93,5.67,0.87c1.12,1.52,1.01,3.56-0.12,4.96
						C1033.03,610.4,1032.78,610.64,1032.49,610.85z M1089.48,528.92c-2.12-0.73-3.25-3.04-2.52-5.17
						c2.19-6.38,4.02-12.96,5.42-19.56c0.47-2.19,2.63-3.59,4.82-3.13c2.19,0.47,3.6,2.63,3.13,4.82
						c-1.46,6.92-3.38,13.83-5.68,20.51c-0.16,0.46-0.4,0.88-0.69,1.23C1092.92,528.92,1091.14,529.48,1089.48,528.92z
						 M995.45,631.62c-6.54,2.68-13.31,4.99-20.13,6.88c-2.16,0.59-4.4-0.68-4.99-2.84c-0.59-2.16,0.67-4.4,2.84-4.99
						c6.51-1.79,12.96-4,19.2-6.55c2.07-0.85,4.45,0.14,5.3,2.22c0.59,1.43,0.3,2.98-0.6,4.11
						C996.65,630.93,996.1,631.35,995.45,631.62z M954.51,642.9c-7,1.04-14.14,1.67-21.19,1.86c-2.24,0.06-4.11-1.7-4.17-3.95
						c-0.06-2.24,1.7-4.12,3.95-4.17c6.73-0.18,13.53-0.78,20.22-1.78c2.22-0.33,4.29,1.2,4.61,3.42c0.17,1.17-0.17,2.3-0.86,3.16
						C956.45,642.2,955.56,642.75,954.51,642.9z M912.04,644.05c-7.06-0.67-14.14-1.77-21.04-3.29c-2.19-0.48-3.58-2.64-3.1-4.84
						c0.48-2.19,2.65-3.58,4.84-3.1c6.58,1.44,13.33,2.49,20.05,3.13c2.23,0.21,3.88,2.19,3.66,4.42c-0.08,0.83-0.4,1.58-0.89,2.18
						C914.75,643.58,913.44,644.18,912.04,644.05z"/>
					<path style="fill:#91B3FA;" d="M1102.61,486.84c0.49-0.61,0.82-1.37,0.89-2.21c0.3-3.47,0.5-6.96,0.59-10.37
						c0.06-2.24-1.71-4.12-3.95-4.17s-4.11,1.71-4.17,3.95c-0.09,3.26-0.28,6.58-0.56,9.89c-0.19,2.24,1.46,4.2,3.7,4.4
						C1100.49,488.46,1101.79,487.86,1102.61,486.84z"/>
				</g>
				<g>
					<path style="fill:#91B3FA;" d="M1053.59,427c-0.18-0.86-0.89-1.51-1.76-1.62l-24.84-3.17c-4.93-10.6-11.59-20.5-19.88-29.22
						l6.15-24.26c0.21-0.85-0.13-1.74-0.86-2.22l-25.12-16.47c-0.74-0.48-1.69-0.44-2.39,0.1l-19.79,15.31
						c-11.3-4.13-23.03-6.29-34.72-6.58l-12.81-21.52c-0.45-0.75-1.33-1.14-2.18-0.97l-29.41,6.12c-0.86,0.18-1.51,0.89-1.62,1.76
						l-3.17,24.84c-10.61,4.93-20.5,11.59-29.22,19.88l-24.26-6.15c-0.85-0.21-1.74,0.13-2.22,0.86l-16.47,25.12
						c-0.48,0.74-0.44,1.69,0.1,2.39L824.42,431c-4.13,11.3-6.29,23.03-6.58,34.72l-21.52,12.81c-0.75,0.45-1.14,1.33-0.96,2.18
						l6.12,29.41c0.18,0.86,0.89,1.51,1.76,1.62l24.84,3.17c4.93,10.61,11.59,20.5,19.88,29.22l-6.15,24.26
						c-0.21,0.85,0.13,1.74,0.86,2.22l25.12,16.47c0.74,0.48,1.69,0.44,2.39-0.09l19.79-15.31c11.3,4.13,23.03,6.29,34.72,6.58
						l12.81,21.52c0.45,0.75,1.33,1.14,2.18,0.96l29.41-6.12c0.86-0.18,1.51-0.89,1.62-1.76l3.17-24.84
						c10.6-4.93,20.5-11.59,29.22-19.88l24.26,6.15c0.85,0.21,1.74-0.13,2.22-0.86l16.47-25.12c0.48-0.74,0.44-1.69-0.1-2.39
						l-15.31-19.79c4.13-11.3,6.28-23.03,6.58-34.72l21.52-12.81c0.75-0.45,1.14-1.33,0.96-2.18L1053.59,427z"/>
					<g>
						<path style="fill:#BDD0FB;" d="M948.33,491.19c-6.05,5.56-13.89,8.43-22.1,8.08c-8.2-0.35-15.78-3.86-21.33-9.91
							c-11.47-12.47-10.64-31.93,1.84-43.43c12.48-11.47,31.96-10.64,43.43,1.84c5.56,6.05,8.43,13.89,8.08,22.09
							c-0.29,6.66-2.66,12.92-6.79,18.01C950.5,489.04,949.45,490.15,948.33,491.19z M910.88,483.86c4.08,4.45,9.66,7.04,15.69,7.29
							c6.03,0.25,11.81-1.86,16.25-5.94l0,0c4.44-4.09,7.04-9.66,7.29-15.69c0.25-6.03-1.86-11.8-5.94-16.25
							c-8.44-9.18-22.76-9.78-31.94-1.35c-0.83,0.76-1.58,1.57-2.27,2.42C903.02,462.89,903.21,475.51,910.88,483.86z"/>
					</g>
					<path style="fill:#BDD0FB;" d="M986.32,516.89c1.62-1.99,3.15-4.09,4.59-6.28c2.86-4.35,5.28-9.01,7.19-13.84
						c0.09-0.21,0.17-0.43,0.25-0.65c0.65-1.69,0.1-3.54-1.23-4.61c-0.32-0.26-0.7-0.48-1.1-0.63c-2.1-0.81-4.44,0.25-5.25,2.33
						c-1.74,4.53-3.99,8.89-6.66,12.96l0,0c-0.14,0.22-0.29,0.44-0.44,0.67c-6.41,9.58-14.97,17.2-24.91,22.41
						c-5.4,2.83-11.21,4.95-17.32,6.28c-0.05,0.01-0.1,0.02-0.15,0.03c-0.15,0.03-0.3,0.06-0.46,0.09
						c-17.89,3.72-36.16,0.25-51.44-9.77c-1.98-1.3-3.88-2.68-5.69-4.15c-12.2-9.89-20.55-23.55-23.78-39.13
						c-3.72-17.89-0.25-36.16,9.77-51.44c10.02-15.27,25.39-25.75,43.28-29.47c17.89-3.72,36.16-0.25,51.44,9.77
						c1.95,1.27,3.81,2.64,5.61,4.1c7.78,6.31,14.09,14.25,18.45,23.27c0.27,0.55,0.65,1.02,1.1,1.39c1.19,0.96,2.87,1.21,4.33,0.51
						c2.02-0.98,2.86-3.4,1.89-5.43c-4.88-10.1-11.94-18.98-20.64-26.04c-2.01-1.63-4.1-3.16-6.28-4.59
						c-17.1-11.21-37.54-15.09-57.56-10.93c-20.02,4.16-37.22,15.85-48.42,32.97c-11.21,17.1-15.09,37.54-10.93,57.55
						c3.63,17.43,12.96,32.72,26.61,43.78c2.03,1.64,4.15,3.2,6.36,4.65C918.04,554.35,961.9,547,986.32,516.89z"/>
				</g>
			</g>
		</g>
		<g>
			
				<linearGradient id="SVGID_4_" gradientUnits="userSpaceOnUse" x1="14345.7793" y1="544.2007" x2="13926.6406" y2="88.2951" gradientTransform="matrix(1 9.500000e-003 9.500000e-003 -1 -13640.9551 2811.3799)">
				<stop  offset="0" style="stop-color:#09005D"/>
				<stop  offset="1" style="stop-color:#1A0F91"/>
			</linearGradient>
			<path style="fill:url(#SVGID_4_);" d="M577.18,2436.16c0,0-4.57,24.53-6.93,48.84c-0.93,9.5,6.33,17.82,15.86,18.31
				c32.39,1.65,101.65,4.94,126.53,4.07c3.74-0.13,6.22-3.93,4.87-7.42c-1.13-2.93-3.35-5.3-6.18-6.64l-113.96-53.7L577.18,2436.16z
				"/>
			
				<linearGradient id="SVGID_5_" gradientUnits="userSpaceOnUse" x1="14209.7344" y1="510.3496" x2="14246.9609" y2="510.3496" gradientTransform="matrix(1 9.500000e-003 9.500000e-003 -1 -13640.9551 2811.3799)">
				<stop  offset="0" style="stop-color:#FEBBBA"/>
				<stop  offset="1" style="stop-color:#FF928E"/>
			</linearGradient>
			<path style="fill:url(#SVGID_5_);" d="M573.76,2421.68l3.21,29.43c0,0,19.96,9.53,33.75-0.85l-7.99-32.84L573.76,2421.68z"/>
			
				<linearGradient id="SVGID_6_" gradientUnits="userSpaceOnUse" x1="14378.8066" y1="1059.814" x2="14022.1387" y2="576.3965" gradientTransform="matrix(1 9.500000e-003 9.500000e-003 -1 -13640.9551 2811.3799)">
				<stop  offset="0" style="stop-color:#09005D"/>
				<stop  offset="1" style="stop-color:#1A0F91"/>
			</linearGradient>
			<path style="fill:url(#SVGID_6_);" d="M581.65,1869.09c-1.58,7.66-11.74,382.98,26.78,551.59c0.63,2.75-0.79,5.56-3.41,6.61
				c-6.18,2.45-18.28,5.98-32.74,6.33c-4.48,0.11-8.47-2.84-9.69-7.15c-11.1-39.14-64.19-235.21-69.58-422.08
				c-6.02-208.81,0.07-7.11,0.07-7.11l5.93-128.98L581.65,1869.09z"/>
			
				<linearGradient id="SVGID_7_" gradientUnits="userSpaceOnUse" x1="14251.7441" y1="630.6558" x2="13832.6025" y2="174.747" gradientTransform="matrix(1 9.500000e-003 9.500000e-003 -1 -13640.9551 2811.3799)">
				<stop  offset="0" style="stop-color:#09005D"/>
				<stop  offset="1" style="stop-color:#1A0F91"/>
			</linearGradient>
			<path style="fill:url(#SVGID_7_);" d="M445.4,2447.72c0,0-7.03,12.34-14.03,45.24c-1.27,5.94,2.84,11.68,8.88,12.33
				c10.68,1.16,27.14,2.67,40.33,2.7c6.08,0.02,10.87-5.23,10.2-11.28c-1.35-12.05-5.71-31.83-19.63-47.35L445.4,2447.72z"/>
			
				<linearGradient id="SVGID_8_" gradientUnits="userSpaceOnUse" x1="14075.5508" y1="512.2559" x2="14107.6934" y2="512.2559" gradientTransform="matrix(1 9.500000e-003 9.500000e-003 -1 -13640.9551 2811.3799)">
				<stop  offset="0" style="stop-color:#FEBBBA"/>
				<stop  offset="1" style="stop-color:#FF928E"/>
			</linearGradient>
			<path style="fill:url(#SVGID_8_);" d="M439.68,2409.86l7.72,44.53c0,0,8,6.07,23.98,1.88l-3.43-47.87L439.68,2409.86z"/>
			
				<linearGradient id="SVGID_9_" gradientUnits="userSpaceOnUse" x1="14315.2344" y1="1106.7183" x2="13958.5693" y2="623.3043" gradientTransform="matrix(1 9.500000e-003 9.500000e-003 -1 -13640.9551 2811.3799)">
				<stop  offset="0" style="stop-color:#09005D"/>
				<stop  offset="1" style="stop-color:#1A0F91"/>
			</linearGradient>
			<path style="fill:url(#SVGID_9_);" d="M422.73,1879.1c-34.7,197.74,2.45,489.58,15.37,546.75c0.79,3.5,3.58,6.21,7.12,6.82
				c6,1.05,15.89,1.96,25.68-0.78c3.37-0.94,5.76-3.96,5.94-7.46c2.25-46.1,1.69-329.26,33.34-440.86
				c1.61-5.66,5.11-10.57,9.94-13.93l59.75-41.63l5.2-68.16L422.73,1879.1z"/>
			<g>
				
					<linearGradient id="SVGID_10_" gradientUnits="userSpaceOnUse" x1="10457.1895" y1="9494.7783" x2="10077.3438" y2="9213.9063" gradientTransform="matrix(-1 0 0 -1 -203.4883 2879)">
					<stop  offset="0" style="stop-color:#FF928E"/>
					<stop  offset="1" style="stop-color:#FE7062"/>
				</linearGradient>
				<path style="fill:url(#SVGID_10_);" d="M635.42,1505.82c-98.33-2.56-207.11,23.85-207.11,23.85
					c-30.94,170.77-8.64,368.3-8.64,368.3c75.95,20.69,162.14-10.66,162.14-10.66c13.34-71.38,74.3-272.02,74.3-272.02
					c48.11-5.51,87.82-18.99,120.6-37.01c-24.59-29.06-35.96-65.85-40.85-87.57C700.99,1501.18,665.75,1506.61,635.42,1505.82z"/>
				
					<linearGradient id="SVGID_11_" gradientUnits="userSpaceOnUse" x1="14362.9844" y1="1481.6563" x2="14553.1914" y2="1481.6563" gradientTransform="matrix(1 9.500000e-003 9.500000e-003 -1 -13640.9551 2811.3799)">
					<stop  offset="0" style="stop-color:#FEBBBA"/>
					<stop  offset="1" style="stop-color:#FF928E"/>
				</linearGradient>
				<path style="fill:url(#SVGID_11_);" d="M927.3,1363.73c-9.55-11.76-21.83-6.35-21.83-6.35c-15.05,61-91.41,109.84-169.6,133.32
					c4.88,21.73,16.26,58.52,40.85,87.57C906.79,1506.76,927.3,1363.73,927.3,1363.73z"/>
			</g>
			<g>
				
					<linearGradient id="SVGID_12_" gradientUnits="userSpaceOnUse" x1="-3191.5015" y1="1514.4697" x2="-3063.8667" y2="1224.0723" gradientTransform="matrix(-1 -9.500000e-003 9.500000e-003 -1 -2321.6494 2919.8457)">
					<stop  offset="0" style="stop-color:#FEBBBA"/>
					<stop  offset="1" style="stop-color:#FF928E"/>
				</linearGradient>
				<path style="fill:url(#SVGID_12_);" d="M924.93,1366.67c0.98,3.22-10.77,8.01-17.54-5.21c-0.18-6.3-3.75-33.33,0.06-38.42
					c20.31-27.14,59.5-61.04,59.5-61.04c6.5,6.55,1.04,12.86,1.04,12.86l-19.04,19.46c3.88,7.16,8.63,13.22,10.8,21.87
					c1.65,6.54,0.53,13.51-2.82,19.42c-3.36,5.93-7.95,13.64-12.28,19.67C936.45,1366.7,924.93,1366.67,924.93,1366.67z"/>
				
					<linearGradient id="SVGID_13_" gradientUnits="userSpaceOnUse" x1="14552.2813" y1="1610.249" x2="14605.5391" y2="1692.1323" gradientTransform="matrix(1 9.500000e-003 9.500000e-003 -1 -13640.9551 2811.3799)">
					<stop  offset="0" style="stop-color:#FEBBBA"/>
					<stop  offset="1" style="stop-color:#FF928E"/>
				</linearGradient>
				<path style="fill:url(#SVGID_13_);" d="M940.58,1307.01l-17.32,14.4l-5.53,14.45l15.16,17.14c0,0,5.43-28.73,9.31-34.92
					C946.08,1311.89,944.12,1308.86,940.58,1307.01z"/>
			</g>
			
				<linearGradient id="SVGID_14_" gradientUnits="userSpaceOnUse" x1="10484.002" y1="9458.457" x2="10104.1582" y2="9177.5859" gradientTransform="matrix(-1 0 0 -1 -203.4883 2879)">
				<stop  offset="0" style="stop-color:#FF928E"/>
				<stop  offset="1" style="stop-color:#FE7062"/>
			</linearGradient>
			<path style="fill:url(#SVGID_14_);" d="M465.13,1625.26l-36.81-95.59c0,0-92.46,61.54-108.32,140.53
				c17.35,1.44,48.89,6.26,79.66,22.17C406.8,1655.06,465.13,1625.26,465.13,1625.26z"/>
			
				<linearGradient id="SVGID_15_" gradientUnits="userSpaceOnUse" x1="13946.7539" y1="1212.2559" x2="14187.4668" y2="1212.2559" gradientTransform="matrix(1 9.500000e-003 9.500000e-003 -1 -13640.9551 2811.3799)">
				<stop  offset="0" style="stop-color:#FEBBBA"/>
				<stop  offset="1" style="stop-color:#FF928E"/>
			</linearGradient>
			<path style="fill:url(#SVGID_15_);" d="M544.55,1715.63c0,0-103.69,57.31-138.02,7.2c-7.12-10.41-8.75-20.69-6.89-30.47
				c-30.77-15.91-62.31-20.72-79.66-22.17c-4.78,23.81-2.62,49.21,11.16,74.99c59.9,112.09,226.81-4,226.81-4L544.55,1715.63z"/>
			
				<linearGradient id="SVGID_16_" gradientUnits="userSpaceOnUse" x1="378.2866" y1="1280.2939" x2="469.235" y2="1456.8411" gradientTransform="matrix(1 0 0 -1 116 2879)">
				<stop  offset="0" style="stop-color:#FEBBBA"/>
				<stop  offset="1" style="stop-color:#FF928E"/>
			</linearGradient>
			<path style="fill:url(#SVGID_16_);" d="M536.57,1425.02l-32.16,90.2c-0.53,1.5,0.07,3.16,1.45,3.94
				c8.48,4.8,39.09,18.73,76.35-4.4c3.88-2.41,6.55-6.37,7.18-10.9l10.88-78.22L536.57,1425.02z"/>
			<g>
				
					<linearGradient id="SVGID_17_" gradientUnits="userSpaceOnUse" x1="5910.1343" y1="-4674.5801" x2="5874.5693" y2="-4557.2788" gradientTransform="matrix(0.7523 -0.6588 -0.6588 -0.7523 -6902.8252 1793.5449)">
					<stop  offset="0" style="stop-color:#FEBBBA"/>
					<stop  offset="1" style="stop-color:#FF928E"/>
				</linearGradient>
				<path style="fill:url(#SVGID_17_);" d="M605.45,1341.88c0,0,33.75,65.01,29.09,91.1c-4.65,26.08-47.22,23.81-84.21,2.23
					l-25.32-70.09L605.45,1341.88z"/>
				
					<linearGradient id="SVGID_18_" gradientUnits="userSpaceOnUse" x1="5878.0601" y1="-4470.1978" x2="5907.8091" y2="-4639.8784" gradientTransform="matrix(0.7523 -0.6588 -0.6588 -0.7523 -6902.8252 1793.5449)">
					<stop  offset="0" style="stop-color:#09005D"/>
					<stop  offset="1" style="stop-color:#1A0F91"/>
				</linearGradient>
				<path style="fill:url(#SVGID_18_);" d="M552.31,1400.92c1.52-0.66,2.09-2.5,1.2-3.89c-2.71-4.23-7.8-12.86-9.37-20.39
					c0,0-6.14-4.01,15.81-9.05c21.95-5.03,54.69-12.86,61.73-31.44c6.87-18.11-10.28-63.99-38.69-27.83
					c-1.08,1.38-3.17,1.39-4.23-0.01c-4.54-6.03-16.52-18.57-33.37-11.2c-15.77,6.9-17.66,18.39-17.5,24.2
					c0.05,1.71-1.49,3.02-3.17,2.68c-7.93-1.59-26.97-3.07-36.06,16.39c-7.48,16.03-2.8,25.2,1.49,29.69
					c1.39,1.46,0.75,3.83-1.18,4.4c-5.24,1.55-12.02,5.91-11.46,18.15c0.78,16.91,19.69,15.61,25.08,14.89
					c0.89-0.12,1.77,0.19,2.36,0.86c4.57,5.15,25.15,27.04,47.63,29.86c1.95,0.25,3.47-1.66,2.86-3.53l-9.47-28.41
					c-0.44-1.32,0.21-2.75,1.48-3.31L552.31,1400.92z"/>
				
					<linearGradient id="SVGID_19_" gradientUnits="userSpaceOnUse" x1="5873.7886" y1="-4674.0264" x2="5841.7915" y2="-4568.4932" gradientTransform="matrix(0.7523 -0.6588 -0.6588 -0.7523 -6902.8252 1793.5449)">
					<stop  offset="0" style="stop-color:#FEBBBA"/>
					<stop  offset="1" style="stop-color:#FF928E"/>
				</linearGradient>
				<path style="fill:url(#SVGID_19_);" d="M556.19,1404.97c0,0-24.3-17.02-26.23-2.9c-1.92,14.12,21.84,20.69,33.68,15.53
					L556.19,1404.97z"/>
			</g>
			<g>
				<g>
					
						<linearGradient id="SVGID_20_" gradientUnits="userSpaceOnUse" x1="13973.9609" y1="1300.3232" x2="14106.7832" y2="746.8928" gradientTransform="matrix(1 0 0 -1 -13351.3906 2879)">
						<stop  offset="0" style="stop-color:#09005D"/>
						<stop  offset="1" style="stop-color:#1A0F91"/>
					</linearGradient>
					<path style="fill:url(#SVGID_20_);" d="M523.36,1806.19l56.48-197.26c0.64-2.24,2.55-3.87,4.87-4.14
						c10.23-1.2,39.89-4.54,74.13-7.44c41.24-3.49,89.14-6.32,117.76-3.91c4.07,0.34,6.53,4.65,4.72,8.31
						c-16.27,32.93-83.22,166.86-116.74,210.75c-1.11,1.46-2.82,2.3-4.66,2.29l-131.06-1.22
						C525.04,1813.52,522.31,1809.86,523.36,1806.19z"/>
					
						<linearGradient id="SVGID_21_" gradientUnits="userSpaceOnUse" x1="13882.9453" y1="1153.9141" x2="13958.1973" y2="1153.9141" gradientTransform="matrix(1 0 0 -1 -13351.3906 2879)">
						<stop  offset="0" style="stop-color:#FEBBBA"/>
						<stop  offset="1" style="stop-color:#FF928E"/>
					</linearGradient>
					<path style="fill:url(#SVGID_21_);" d="M537,1758.53c0,0-7.87-32.35-4.69-43.84c3.17-11.48,9.32-26.24,29.82-22.96
						s44.68,11.91,44.68,11.91s-1.22,14.95-16.8,10.13l9.66,7.48c0,0-1.38,11.97-14.54,5.58l8.98,9.92c0,0-5.65,9.83-15.33,3.53
						C569.1,1733.97,564.46,1762.43,537,1758.53z"/>
				</g>
				<circle style="fill:#91B3FA;" cx="671.66" cy="1656.23" r="16.58"/>
				<path style="fill:#BDD0FB;" d="M586.24,1667.16l11.5-39.01c1.41-4.79,5.26-8.39,10.05-9.39c36.05-7.52,134.71-9.12,135.7-9.13
					l-0.06-4.41c-4.07,0.06-100.08,1.62-136.53,9.23c-6.38,1.33-11.51,6.1-13.38,12.46l-11.5,39.01L586.24,1667.16z"/>
			</g>
		</g>
		<g>
			<g>
				
					<linearGradient id="SVGID_22_" gradientUnits="userSpaceOnUse" x1="7176.8286" y1="1457.7607" x2="6936.1411" y2="1161.8694" gradientTransform="matrix(-0.9922 -0.1247 0.1247 -0.9922 8970.4355 3631.3545)">
					<stop  offset="0" style="stop-color:#FEBBBA"/>
					<stop  offset="1" style="stop-color:#FF928E"/>
				</linearGradient>
				<path style="fill:url(#SVGID_22_);" d="M2054.3,1373.79c1.57-2.99,6-2.52,6.9,0.74c3.35,12.05,11.46,33.1,28.47,40.57
					c0.85,0.38,1.67,0.76,2.45,1.14c0.78-2.31,0.78-5-1.07-7.83c-5.29-8.08,4.26-19.12,4.26-19.12s0.63,9.72,8.03,15.84
					c6.36,5.27,9.43,17.01,5.07,26.63c-9.21,35.77-23,83.07,30.71,117.62c53.71,34.55,129.34-65.21,129.34-65.21l-37.54,119.01
					c0,0-57.94,42.76-125.34-17.36c-67.4-60.12-22.72-147.62-22.72-147.62S2031.46,1417.47,2054.3,1373.79z"/>
				
					<linearGradient id="SVGID_23_" gradientUnits="userSpaceOnUse" x1="-6202.9995" y1="491.8682" x2="-6360.8306" y2="304.3276" gradientTransform="matrix(0.9602 0.2794 0.2794 -0.9602 8410.5781 3465.6431)">
					<stop  offset="0" style="stop-color:#09005D"/>
					<stop  offset="1" style="stop-color:#1A0F91"/>
				</linearGradient>
				<path style="fill:url(#SVGID_23_);" d="M2277.87,1309.33c0,0-15.56-69.8,64.39-51.32c0,0,38.81-6.34,40.78,30.29
					c0,0,25.02,16.49,6.7,48.18c0,0,74.35-28.71,106.74,36.45c32.39,65.17,2.62,101.02-28.59,110.36c0,0,25.29,12.7,13.32,41.37
					c-11.97,28.67-72.59,48.88-108.4,14.02c0,0-101.9,13.46-99.85-58.51c0,0-47.39-30.6,2.38-90.09
					C2325.11,1330.59,2277.87,1309.33,2277.87,1309.33z"/>
				
					<linearGradient id="SVGID_24_" gradientUnits="userSpaceOnUse" x1="2418.7017" y1="1595.9463" x2="2271.5781" y2="1368.5736" gradientTransform="matrix(1 0 0 -1 116 2879)">
					<stop  offset="0" style="stop-color:#FF928E"/>
					<stop  offset="1" style="stop-color:#FE7062"/>
				</linearGradient>
				<path style="fill:url(#SVGID_24_);" d="M2273.49,1471.1c16.07-4.81,62.84-13.71,107.33,27.35c7.55,6.96,10.63,17.55,7.94,27.45
					c-11.95,44-43.48,173.98-15.84,230.23c0,0-48.72,53.71-101.87,10.42c0,0-23.85-103.94-55.08-149.56
					c-21.57-31.5,34.39-118.29,48.55-139.26C2266.66,1474.55,2269.82,1472.21,2273.49,1471.1z"/>
				
					<linearGradient id="SVGID_25_" gradientUnits="userSpaceOnUse" x1="-6431.5464" y1="161.2217" x2="-6418.688" y2="252.5173" gradientTransform="matrix(0.9602 0.2794 0.2794 -0.9602 8410.5781 3465.6431)">
					<stop  offset="0" style="stop-color:#FEBBBA"/>
					<stop  offset="1" style="stop-color:#FF928E"/>
				</linearGradient>
				<path style="fill:url(#SVGID_25_);" d="M2317.85,1383.7c0,0,23.76,67.21,25.55,96.85c0,0-26.26,11.94-51-8.21
					c0,0-2.59-67.13-6.35-79.15L2317.85,1383.7z"/>
				
					<linearGradient id="SVGID_26_" gradientUnits="userSpaceOnUse" x1="-6490.5044" y1="356.8447" x2="-6370.271" y2="218.6086" gradientTransform="matrix(0.9602 0.2794 0.2794 -0.9602 8410.5781 3465.6431)">
					<stop  offset="0" style="stop-color:#FEBBBA"/>
					<stop  offset="1" style="stop-color:#FF928E"/>
				</linearGradient>
				<path style="fill:url(#SVGID_26_);" d="M2284.84,1292.06c0,0-62.14,86.97-24.99,112.23c37.15,25.26,81.39-36.54,81.39-36.54
					s14.42-47.6-0.66-63.75C2325.5,1287.86,2284.84,1292.06,2284.84,1292.06z"/>
				
					<linearGradient id="SVGID_27_" gradientUnits="userSpaceOnUse" x1="-6278.5942" y1="555.4873" x2="-6436.4297" y2="367.9412" gradientTransform="matrix(0.9602 0.2794 0.2794 -0.9602 8410.5781 3465.6431)">
					<stop  offset="0" style="stop-color:#09005D"/>
					<stop  offset="1" style="stop-color:#1A0F91"/>
				</linearGradient>
				<path style="fill:url(#SVGID_27_);" d="M2313.61,1271.27c0,0-28.55,6.77-32.55,19.68c-4,12.92,40.49,24.9,52.95,25.48
					l10.04,52.12c0,0,29.69-49.04,17.92-77.35C2350.22,1262.89,2313.61,1271.27,2313.61,1271.27z"/>
				
					<linearGradient id="SVGID_28_" gradientUnits="userSpaceOnUse" x1="-6460.4653" y1="382.9746" x2="-6340.2339" y2="244.7408" gradientTransform="matrix(0.9602 0.2794 0.2794 -0.9602 8410.5781 3465.6431)">
					<stop  offset="0" style="stop-color:#FEBBBA"/>
					<stop  offset="1" style="stop-color:#FF928E"/>
				</linearGradient>
				<path style="fill:url(#SVGID_28_);" d="M2329.18,1361.35c0,0,24.19-28.02,33.81-9.75c9.62,18.27-21.77,31.97-32.64,23.01
					L2329.18,1361.35z"/>
				
					<linearGradient id="SVGID_29_" gradientUnits="userSpaceOnUse" x1="6486.27" y1="317.6514" x2="6773.1191" y2="824.0021" gradientTransform="matrix(-1 -9.500000e-003 9.500000e-003 -1 8975.7236 2940.0898)">
					<stop  offset="0" style="stop-color:#FEBBBA"/>
					<stop  offset="1" style="stop-color:#FF928E"/>
				</linearGradient>
				<path style="fill:url(#SVGID_29_);" d="M2209,1984.79c0.18,4.72-8.1,42.14-12.61,62.11c-1.81,8.03-0.55,16.44,3.54,23.58
					l156.14,262.8c1.89,3.18,3.26,6.63,4.1,10.23c2.87,12.33,8.79,42.55,5.7,70.05l-8.08,16.78l34.93-7.93l7.6-93.82l-9.89-6.03
					c-8.54-5.21-15.2-13-19-22.26c-14.12-34.29-49.18-121.59-58.22-164.14c-10.27-48.36-63.96-87.63-63.96-87.63l9.43-22.3
					L2209,1984.79z"/>
				
					<linearGradient id="SVGID_30_" gradientUnits="userSpaceOnUse" x1="6548.7964" y1="496.6758" x2="6632.6401" y2="496.6758" gradientTransform="matrix(-1 -9.500000e-003 9.500000e-003 -1 8975.7236 2940.0898)">
					<stop  offset="0" style="stop-color:#09005D"/>
					<stop  offset="1" style="stop-color:#1A0F91"/>
				</linearGradient>
				<path style="fill:url(#SVGID_30_);" d="M2431.56,2390.12c0,0-18.87-29.91-21.08-41.55c-2.22-11.64-8.4-32.2-20.03-26.01
					c0,0-5.48,56.56-3.59,78.65c1.89,22.1-24.98,21.38-24.98,21.38s-7.41,1.04-12.83,6.47c-3.74,3.74-1.07,10.24,4.22,10.58
					c8.79,0.57,22.76,0.71,37.43-2.12c5.13-0.99,8.93-5.35,9.24-10.57l3.87-65.09l23.8,30.05L2431.56,2390.12z"/>
				
					<linearGradient id="SVGID_31_" gradientUnits="userSpaceOnUse" x1="6811.3364" y1="692.2383" x2="6382.3467" y2="555.0613" gradientTransform="matrix(-1 -9.500000e-003 9.500000e-003 -1 8975.7236 2940.0898)">
					<stop  offset="0" style="stop-color:#FEBBBA"/>
					<stop  offset="1" style="stop-color:#FF928E"/>
				</linearGradient>
				<path style="fill:url(#SVGID_31_);" d="M2302.28,2026.64c0,0,5.51,235.07,6.25,268.46c0.74,33.39-5.27,107.37-38.74,129.49
					l14.56,10.78c0,0,18.2-15.46,35.98-45.24c19.98-33.45,26.01-39.55,26.01-39.55l-6.63-13.57c-2.9-5.94-3.75-12.66-2.42-19.14
					c7.23-35.01,31.35-151.44,37.93-176.51c7.77-29.6,8.32-69.12-18.71-102.21C2329.49,2006.05,2302.28,2026.64,2302.28,2026.64z"/>
				
					<linearGradient id="SVGID_32_" gradientUnits="userSpaceOnUse" x1="6626.5425" y1="481.5322" x2="6726.4937" y2="481.5322" gradientTransform="matrix(-1 -9.500000e-003 9.500000e-003 -1 8975.7236 2940.0898)">
					<stop  offset="0" style="stop-color:#09005D"/>
					<stop  offset="1" style="stop-color:#1A0F91"/>
				</linearGradient>
				<path style="fill:url(#SVGID_32_);" d="M2333.19,2445.97c1.04,0.01,1.92-0.74,2.07-1.76c1.12-7.83,5.75-39.25,9.54-47.39
					c4.34-9.32,18.54-48.53-0.01-51.86c0,0-46.12,67.38-54.97,76.47c-8.86,9.08-20.02,3.17-20.02,3.17s-8.63,2.55-15.13,10.86
					c-3.09,3.96-0.21,9.77,4.81,9.81l31.06,0.3c9.02,0.09,17.13-5.4,20.49-13.77c5.47-13.66,14.86-33.69,25.81-42.58l-5.69,54.47
					C2331.03,2444.9,2331.97,2445.96,2333.19,2445.97L2333.19,2445.97z"/>
				
					<linearGradient id="SVGID_33_" gradientUnits="userSpaceOnUse" x1="2535.6597" y1="1231.2773" x2="2294.9126" y2="1046.7046" gradientTransform="matrix(1 0 0 -1 116 2879)">
					<stop  offset="0" style="stop-color:#09005D"/>
					<stop  offset="1" style="stop-color:#1A0F91"/>
				</linearGradient>
				<path style="fill:url(#SVGID_33_);" d="M2263.7,1741.21c0,0,7,22.31-3.75,59.06l-66.71,232.96c-1.04,3.66,0.93,7.5,4.51,8.78
					c19.95,7.16,85.55,27.41,175.1,21.23c4.51-0.31,8.29-3.51,9.27-7.91c5.9-26.56,26.03-117.17,30.18-135.79
					c15.8-70.94,33.43-147.45-44.15-193.72C2332.39,1741.14,2299.04,1750.17,2263.7,1741.21z"/>
				
					<linearGradient id="SVGID_34_" gradientUnits="userSpaceOnUse" x1="6685.6772" y1="1030.2646" x2="7161.5225" y2="1574.5618" gradientTransform="matrix(-0.9922 -0.1247 0.1247 -0.9922 8970.4355 3631.3545)">
					<stop  offset="0" style="stop-color:#FEBBBA"/>
					<stop  offset="1" style="stop-color:#FF928E"/>
				</linearGradient>
				<path style="fill:url(#SVGID_34_);" d="M2387.19,1507.24c0,0,75.9,63.08,94.74,149.28c18.84,86.2-110.92,95.36-110.92,95.36
					s-17.62-19.67-38.53-12.66c-20.91,7.01-1.62-34.33,22.85-34.22c24.47,0.11,13.13,19.45,47.75,3.78
					c33.71-15.28,54.56-62.51-31.47-134.11c-4.99-4.15-8.97-9.44-11.37-15.47C2343.54,1517.12,2356.8,1489.55,2387.19,1507.24z"/>
			</g>
			<g>
				<g>
					<g>
						<rect x="1885.14" y="2151.25" style="fill:#7D97F4;" width="27.08" height="292.8"/>
					</g>
					<g>
						<path style="fill:#7D97F4;" d="M2017.25,2449.69h-237.13v-15.67c0-1.08,0.88-1.96,1.95-1.96h233.22
							c1.08,0,1.95,0.88,1.95,1.96L2017.25,2449.69L2017.25,2449.69z"/>
					</g>
					<path style="fill:#7D97F4;" d="M2062.09,2140.46c0,17.02-13.92,30.95-30.94,30.95h-254.97c-17.02,0-30.94-13.92-30.94-30.95
						v-27.98c0-17.02,13.92-30.95,30.94-30.95h254.97c17.02,0,30.94,13.92,30.94,30.95V2140.46z"/>
				</g>
				<g>
					
						<linearGradient id="SVGID_35_" gradientUnits="userSpaceOnUse" x1="2418.7202" y1="409.8906" x2="2370.9292" y2="315.9016" gradientTransform="matrix(-0.9764 -0.2161 0.2161 -0.9764 3879.533 3208.9568)">
						<stop  offset="0" style="stop-color:#09005D"/>
						<stop  offset="1" style="stop-color:#1A0F91"/>
					</linearGradient>
					<path style="fill:url(#SVGID_35_);" d="M1658.68,2355.13c0,0-87.53,37.7-82.52,77.16c0,0,90.48-17.36,106.67-43.21
						c16.19-25.86,7.27-40.84,7.27-40.84L1658.68,2355.13z"/>
					
						<linearGradient id="SVGID_36_" gradientUnits="userSpaceOnUse" x1="2327.8296" y1="372.4941" x2="2375.4399" y2="372.4941" gradientTransform="matrix(-0.9764 -0.2161 0.2161 -0.9764 3879.533 3208.9568)">
						<stop  offset="0" style="stop-color:#FEBBBA"/>
						<stop  offset="1" style="stop-color:#FF928E"/>
					</linearGradient>
					<path style="fill:url(#SVGID_36_);" d="M1680.12,2312.04l4.45,38.42c0.67,5.79-2.55,11.52-8.04,13.49
						c-2.75,0.99-6.36,1.67-11.09,1.69c-6.68,0.03-12.59-4.35-14.37-10.79l-8.61-31.07L1680.12,2312.04z"/>
					
						<linearGradient id="SVGID_37_" gradientUnits="userSpaceOnUse" x1="2261.9478" y1="498.4653" x2="2464.2681" y2="782.0326" gradientTransform="matrix(-0.9764 -0.2161 0.2161 -0.9764 3879.533 3208.9568)">
						<stop  offset="0" style="stop-color:#09005D"/>
						<stop  offset="1" style="stop-color:#1A0F91"/>
					</linearGradient>
					<path style="fill:url(#SVGID_37_);" d="M1871.33,2017.46c0,0-160.99-7.45-241.1,39.27c-80.11,46.72,4.06,270.93,4.06,270.93
						s20.92,4.5,51.05-11.6c0,0-43-164.13,31.69-192.69c83.98-32.1,170.83-24.3,170.83-24.3l-16.09-76.54L1871.33,2017.46z"/>
					
						<linearGradient id="SVGID_38_" gradientUnits="userSpaceOnUse" x1="2390.978" y1="314.8716" x2="2225.2915" y2="98.2048" gradientTransform="matrix(-0.9764 -0.2161 0.2161 -0.9764 3879.533 3208.9568)">
						<stop  offset="0" style="stop-color:#09005D"/>
						<stop  offset="1" style="stop-color:#1A0F91"/>
					</linearGradient>
					<path style="fill:url(#SVGID_38_);" d="M1593.76,2414.97c18.31-4.01,72.59-26.5,80.84-26.2c8.25,0.3,19.93,12.65,19.93,12.65
						s2.01,6.75-3.89,16.45c-13.98,10.91-44.11,30.93-79.14,33.12c-25.77,1.61-41.27-8.64-50.14-18.58
						C1569.1,2424.86,1581.56,2417.64,1593.76,2414.97z"/>
					
						<linearGradient id="SVGID_39_" gradientUnits="userSpaceOnUse" x1="2308.0708" y1="267.9341" x2="2436.0894" y2="267.9341" gradientTransform="matrix(-0.9764 -0.2161 0.2161 -0.9764 3879.533 3208.9568)">
						<stop  offset="0" style="stop-color:#4F52FF"/>
						<stop  offset="1" style="stop-color:#4042E2"/>
					</linearGradient>
					<path style="fill:url(#SVGID_39_);" d="M1611.48,2451c35.03-2.19,65.16-22.22,79.14-33.12c-3.99,6.55-11.58,14.44-25.85,22.51
						c-35.4,20-93.91,17.09-105.51,12.58c-9.29-3.61-6.42-12.29,2.07-20.55C1570.21,2442.36,1585.72,2452.61,1611.48,2451z"/>
					
						<linearGradient id="SVGID_40_" gradientUnits="userSpaceOnUse" x1="2293.4077" y1="328.543" x2="2338.0854" y2="328.543" gradientTransform="matrix(-0.9764 -0.2161 0.2161 -0.9764 3879.533 3208.9568)">
						<stop  offset="0" style="stop-color:#FEBBBA"/>
						<stop  offset="1" style="stop-color:#FF928E"/>
					</linearGradient>
					<path style="fill:url(#SVGID_40_);" d="M1713.74,2381.32c-1.19,4.54-14.02,18.15-21.43,25.75c-3.52,3.61-8.63,5.15-13.56,4.08
						c-3.13-0.68-6.66-1.75-9.7-3.4c-4.58-2.49-6.17-8.31-3.67-12.88l18.75-34.09L1713.74,2381.32z"/>
					
						<linearGradient id="SVGID_41_" gradientUnits="userSpaceOnUse" x1="2189.019" y1="357.1533" x2="2200.1707" y2="736.3037" gradientTransform="matrix(-0.9764 -0.2161 0.2161 -0.9764 3879.533 3208.9568)">
						<stop  offset="0" style="stop-color:#09005D"/>
						<stop  offset="1" style="stop-color:#1A0F91"/>
					</linearGradient>
					<path style="fill:url(#SVGID_41_);" d="M2030.87,2003.96c0,0,14.05,99.69-26.58,120.07c-40.63,20.38-129.75,33.71-160.45,85.42
						c-30.69,51.7-85.82,153.2-135.99,182.35c0,0-28.65-9.32-37.02-23.41c0,0,59.55-156.54,84.39-194.6
						c21.51-32.95,52.97-80.42,97.67-100.95c12.8-5.88,13.8-19.45,11.55-33.35l-4.1-25.31L2030.87,2003.96z"/>
					
						<linearGradient id="SVGID_42_" gradientUnits="userSpaceOnUse" x1="1842.2202" y1="1211.667" x2="1412.906" y2="878.6473" gradientTransform="matrix(1 0 0 -1 116 2879)">
						<stop  offset="0" style="stop-color:#FF928E"/>
						<stop  offset="1" style="stop-color:#FE7062"/>
					</linearGradient>
					<path style="fill:url(#SVGID_42_);" d="M1654.29,1890.95c56.97,16.26,82.46-144.06,82.23-147.95l87.33,102.12
						c0,0-52.04,91.57-130.62,101.32c-19.88,2.47-36.79-0.97-50.98-7.47C1652.72,1921.84,1655.11,1904.93,1654.29,1890.95z"/>
					
						<linearGradient id="SVGID_43_" gradientUnits="userSpaceOnUse" x1="2454.2231" y1="798.875" x2="2610.0913" y2="798.875" gradientTransform="matrix(-0.9764 -0.2161 0.2161 -0.9764 3879.533 3208.9568)">
						<stop  offset="0" style="stop-color:#FEBBBA"/>
						<stop  offset="1" style="stop-color:#FF928E"/>
					</linearGradient>
					<path style="fill:url(#SVGID_43_);" d="M1548.8,1838.47c24.83-10.2,45.89,10.15,45.89,10.15c24.6,25.18,44.11,37.89,59.6,42.32
						c0.81,13.98-1.58,30.89-12.03,48.01c-30.69-14.06-48.59-42.48-55.96-56.67c-2.65-5.1-8.87-7.26-14.06-4.76
						c-5.26,2.54-10.68,6.43-11.02,11.7c-0.67,10.4-13.04,11.01-13.12,7.17c-0.07-3.84,9.58-24.38,9.58-24.38
						s-28.52,18.3-39.63,25.29c-11.11,7-20.56-4.55-20.56-4.55S1523.98,1848.68,1548.8,1838.47z"/>
					
						<linearGradient id="SVGID_44_" gradientUnits="userSpaceOnUse" x1="1348.6548" y1="749.2969" x2="1757.9033" y2="1002.0677" gradientTransform="matrix(1 0 0 -1 116 2879)">
						<stop  offset="0" style="stop-color:#FF928E"/>
						<stop  offset="1" style="stop-color:#FE7062"/>
					</linearGradient>
					<path style="fill:url(#SVGID_44_);" d="M2008.92,1677.03c0,0-76.55-52.23-261.42,42.22c0,0-19.04,24.14-10.12,51.34
						c8.92,27.21,118.69,174.46,122.96,243.59c0,0,75.04,44.17,172.44,0.38C2032.78,2014.57,2065.45,1832.03,2008.92,1677.03z"/>
					
						<linearGradient id="SVGID_45_" gradientUnits="userSpaceOnUse" x1="2281.1938" y1="1073.8662" x2="2384.6099" y2="1073.8662" gradientTransform="matrix(-0.9764 -0.2161 0.2161 -0.9764 3879.533 3208.9568)">
						<stop  offset="0" style="stop-color:#FEBBBA"/>
						<stop  offset="1" style="stop-color:#FF928E"/>
					</linearGradient>
					<path style="fill:url(#SVGID_45_);" d="M1849.53,1610.26l30.25,59.28c3,5.89,2.38,13.01-1.75,18.17
						c-8.33,10.44-25.72,24.46-55.4,15.42c-8.83-2.69-15.58-9.87-17.71-18.85l-15.68-66.16L1849.53,1610.26z"/>
					
						<linearGradient id="SVGID_46_" gradientUnits="userSpaceOnUse" x1="1373.3999" y1="709.2471" x2="1782.645" y2="962.0159" gradientTransform="matrix(1 0 0 -1 116 2879)">
						<stop  offset="0" style="stop-color:#FF928E"/>
						<stop  offset="1" style="stop-color:#FE7062"/>
					</linearGradient>
					<path style="fill:url(#SVGID_46_);" d="M2065.61,1884.02c5.18-36.03-90.03-105.87-90.03-105.87l33.35-101.12
						c0,0,181.7,129.67,143.49,235.55c-5.48,15.18-13.64,26.24-23.61,34.08C2109.56,1907.2,2083.47,1890.8,2065.61,1884.02z"/>
					
						<linearGradient id="SVGID_47_" gradientUnits="userSpaceOnUse" x1="2246.1313" y1="1024.8765" x2="1901.9513" y2="426.793" gradientTransform="matrix(-0.9952 0.0978 -0.0978 -0.9952 4300.0142 2720.1599)">
						<stop  offset="0" style="stop-color:#FEBBBA"/>
						<stop  offset="1" style="stop-color:#FF928E"/>
					</linearGradient>
					<path style="fill:url(#SVGID_47_);" d="M1932.77,1894.02c0,0,107.71,30.08,130.06-2.71c1.52-2.22,2.4-4.68,2.79-7.3
						c17.85,6.78,43.95,23.18,63.19,62.64c-51.14,40.23-149.75-4.87-176.54-18.38c-4.41-2.22-9.47-2.66-14.19-1.19
						c-9.53,2.98-26.04,7.59-35.24,7.08c-13.46-0.74-27.91,47.9-50.81,35.58C1852.02,1969.76,1862.44,1886.66,1932.77,1894.02z"/>
					<g>
						
							<linearGradient id="SVGID_48_" gradientUnits="userSpaceOnUse" x1="2703.7808" y1="2186.6934" x2="2557.0586" y2="1992.5919" gradientTransform="matrix(-0.6545 -0.7561 0.7561 -0.6545 1944.6108 5013.5703)">
							<stop  offset="0" style="stop-color:#FEBBBA"/>
							<stop  offset="1" style="stop-color:#FF928E"/>
						</linearGradient>
						<path style="fill:url(#SVGID_48_);" d="M1810.75,1513.39c-0.96,0.83-40.86,70.52-61.18,106.05
							c-6.21,10.85-1.56,24.65,9.92,29.58l8.8,3.78c12.02,5.15,37.88,9.47,48.05,1.25l64.15-67.71
							C1880.51,1586.33,1832.33,1494.71,1810.75,1513.39z"/>
						
							<linearGradient id="SVGID_49_" gradientUnits="userSpaceOnUse" x1="2609.8237" y1="2198.166" x2="2764.269" y2="2198.166" gradientTransform="matrix(-0.6545 -0.7561 0.7561 -0.6545 1944.6108 5013.5703)">
							<stop  offset="0" style="stop-color:#09005D"/>
							<stop  offset="1" style="stop-color:#1A0F91"/>
						</linearGradient>
						<path style="fill:url(#SVGID_49_);" d="M1898.58,1567.85c7.87-4.42,17.32-13.37,9.96-29.2
							c-7.49-16.09-22.28-17.48-31.81-16.46c-3.85,0.41-7.34-2.03-8.46-5.75c-0.64-2.11-2.2-3.98-5.58-4.51
							c-4.55-0.72-7.38-5.37-6.19-9.82c2.28-8.56,1.89-20.17-11.86-28.5c-24.42-14.78-47.24,6.69-53.59,25.36
							c-6.36,18.67,21.03,33.18,38.51,36.15c13.29,2.26,19.78,17.59,22.12,24.8c0.74,2.29,0.39,4.78-0.93,6.79l-19.5,29.63
							c5.37,6.75,10.12,13.88,14.8,21.09c1.76-1.89,3.29-3.47,4.49-4.56c8.47-7.76,23.54-3.76,29.74-1.62
							c2.03,0.7,4.25,0.54,6.16-0.45c6.76-3.49,20.39-13.3,9.21-31.85C1893.3,1575.07,1894.63,1570.07,1898.58,1567.85z"/>
						
							<linearGradient id="SVGID_50_" gradientUnits="userSpaceOnUse" x1="2519.2241" y1="2053.333" x2="2622.9197" y2="2159.7219" gradientTransform="matrix(-0.6545 -0.7561 0.7561 -0.6545 1944.6108 5013.5703)">
							<stop  offset="0" style="stop-color:#FEBBBA"/>
							<stop  offset="1" style="stop-color:#FF928E"/>
						</linearGradient>
						<path style="fill:url(#SVGID_50_);" d="M1838.94,1630.1c0,0,12.46-32.05,26.64-30.26c14.17,1.79,24.77,16.42,6.48,31.62
							C1849.32,1650.35,1838.94,1630.1,1838.94,1630.1z"/>
					</g>
				</g>
				<g>
					
						<linearGradient id="SVGID_51_" gradientUnits="userSpaceOnUse" x1="12171.0742" y1="346.2578" x2="11968.333" y2="290.692" gradientTransform="matrix(0.9988 -0.0494 -0.0494 -0.9988 -10301.4336 2842.832)">
						<stop  offset="0" style="stop-color:#09005D"/>
						<stop  offset="1" style="stop-color:#1A0F91"/>
					</linearGradient>
					<path style="fill:url(#SVGID_51_);" d="M1795.24,1962.6c-0.19,0.01-0.39,0.02-0.58,0.02l-251.63-0.28
						c-6.22-0.01-11.25-5.06-11.25-11.28c0.01-6.22,5.07-11.37,11.28-11.25l251.63,0.28c6.22,0.01,11.25,5.05,11.25,11.27
						C1805.93,1957.39,1801.19,1962.3,1795.24,1962.6z"/>
					
						<linearGradient id="SVGID_52_" gradientUnits="userSpaceOnUse" x1="11934.6504" y1="1114.231" x2="11790.7949" y2="962.1849" gradientTransform="matrix(1 0 0 -1 -10371.1211 2879)">
						<stop  offset="0" style="stop-color:#09005D"/>
						<stop  offset="1" style="stop-color:#1A0F91"/>
					</linearGradient>
					<path style="fill:url(#SVGID_52_);" d="M1316.82,1734.13h209.56c15.46,0,29.53,8.92,36.13,22.9l96.88,205.43h-260.43
						c-9.96,0-18.92-6.09-22.57-15.35l-75.13-190.09C1296.92,1746.04,1305.01,1734.13,1316.82,1734.13z"/>
					
						<ellipse transform="matrix(-0.3064 -0.9519 0.9519 -0.3064 136.8572 3788.7339)" style="fill:#91B3FA;" cx="1448.75" cy="1844.51" rx="26.84" ry="16.51"/>
				</g>
				<g>
					<g>
						<path style="fill:#91B3FA;" d="M1350.8,2502.31c-1.39,0-2.81-0.27-4.17-0.84c-5.37-2.23-7.84-8.25-5.53-13.45l221.77-499.11
							c2.3-5.19,8.52-7.59,13.89-5.36c5.37,2.23,7.84,8.25,5.53,13.45l-221.77,499.11
							C1358.79,2499.99,1354.9,2502.31,1350.8,2502.31z"/>
						<path style="fill:#91B3FA;" d="M1600.63,2502.31c-4.1,0-8-2.32-9.72-6.2L1369.14,1997c-2.31-5.19,0.17-11.21,5.53-13.45
							c5.36-2.23,11.59,0.17,13.89,5.36l221.77,499.11c2.31,5.19-0.17,11.21-5.53,13.45
							C1603.44,2502.03,1602.02,2502.31,1600.63,2502.31z"/>
						<path style="fill:#91B3FA;" d="M2037.26,2502.31c-1.39,0-2.81-0.27-4.17-0.84c-5.37-2.23-7.84-8.25-5.53-13.45l221.76-499.11
							c2.31-5.19,8.53-7.59,13.89-5.36c5.37,2.23,7.84,8.25,5.53,13.45l-221.77,499.11
							C2045.27,2499.99,2041.36,2502.31,2037.26,2502.31z"/>
						<path style="fill:#91B3FA;" d="M2287.09,2502.31c-4.1,0-8-2.32-9.72-6.2L2055.61,1997c-2.31-5.19,0.17-11.21,5.53-13.45
							c5.36-2.23,11.59,0.17,13.89,5.36l221.77,499.11c2.31,5.19-0.17,11.21-5.53,13.45
							C2289.91,2502.03,2288.49,2502.31,2287.09,2502.31z"/>
					</g>
					<path style="fill:#91B3FA;" d="M2313.11,1973.5c0.56-3.28-0.21-6.66-2.1-9.23c-1.89-2.57-4.72-4.06-7.7-4.06H1294.42
						c-3.92,0-7.57,2.23-9.67,5.93c-2.11,3.7-2.39,8.34-0.75,12.32l10.93,26.49c2.5,6.07,7.93,9.95,13.9,9.95h987.56
						c5.55,0,10.33-4.41,11.38-10.51L2313.11,1973.5z"/>
				</g>
			</g>
		</g>
	</g>
</g>
</svg>
