<?xml version="1.0" encoding="utf-8"?>
<!-- Generator: Adobe Illustrator 16.0.0, SVG Export Plug-In . SVG Version: 6.00 Build 0)  -->
<!DOCTYPE svg PUBLIC "-//W3C//DTD SVG 1.1//EN" "http://www.w3.org/Graphics/SVG/1.1/DTD/svg11.dtd">
<svg version="1.1" id="Layer_1" xmlns="http://www.w3.org/2000/svg" xmlns:xlink="http://www.w3.org/1999/xlink" x="0px" y="0px"
	 width="375.953px" height="144.32px" viewBox="0 0 375.953 144.32" enable-background="new 0 0 375.953 144.32"
	 xml:space="preserve">
<g>
	<path fill-rule="evenodd" clip-rule="evenodd" fill="#E94336" d="M305.114,1.724c38.994,0.056,70.999,32.26,70.838,71.278
		c-0.163,39.448-32.037,71.292-71.286,71.218c-39.69-0.075-71.33-32.073-71.228-72.036C233.537,33.368,265.785,1.668,305.114,1.724z
		 M348.456,72.843c-0.186-24.456-19.732-43.841-43.98-43.613c-24.464,0.229-43.733,19.725-43.546,44.057
		c0.188,24.344,19.806,43.656,44.15,43.464C329.167,116.56,348.638,96.851,348.456,72.843z"/>
	<path fill-rule="evenodd" clip-rule="evenodd" fill="#F9BC06" d="M126.917,71.175c0-22.498,0.061-44.997-0.072-67.494
		c-0.018-2.997,0.843-3.693,3.738-3.681c25.123,0.113,50.246,0.11,75.369,0.001c2.765-0.013,3.632,0.627,3.552,3.493
		c-0.212,7.618-0.196,15.25-0.008,22.869c0.069,2.858-0.602,3.826-3.662,3.789c-14.122-0.173-28.248-0.01-42.371-0.135
		c-2.666-0.024-3.73,0.453-3.616,3.429c0.25,6.49,0.244,13.002,0.002,19.493c-0.11,2.964,0.954,3.466,3.626,3.443
		c14.123-0.125,28.248,0.039,42.37-0.135c3.052-0.038,3.721,0.917,3.65,3.774c-0.188,7.745-0.168,15.5-0.005,23.245
		c0.053,2.523-0.769,3.134-3.176,3.116c-14.248-0.1-28.499,0.035-42.746-0.118c-2.938-0.031-3.825,0.736-3.716,3.709
		c0.233,6.365,0.218,12.751,0.004,19.118c-0.094,2.796,0.667,3.59,3.512,3.559c14.123-0.151,28.248,0.007,42.371-0.132
		c2.852-0.028,3.86,0.603,3.769,3.655c-0.232,7.742-0.159,15.498-0.028,23.245c0.04,2.354-0.483,3.239-3.059,3.23
		c-25.498-0.095-50.996-0.112-76.493,0.015c-3.041,0.015-3.048-1.379-3.043-3.618C126.938,116.422,126.917,93.798,126.917,71.175z"
		/>
	<path fill-rule="evenodd" clip-rule="evenodd" fill="#4485F4" d="M46.46,144.32c-19.416-0.546-34.706-9.862-45.755-26.713
		c-1.22-1.861-0.813-2.636,0.883-3.742c6.276-4.094,12.521-8.243,18.627-12.582c2.117-1.504,2.96-0.949,4.29,0.956
		c6.335,9.076,15.118,13.036,26.158,12.084c6.244-0.538,12.7-6.384,13.786-12.504c0.335-1.89-0.446-3.089-1.829-4.163
		c-2.781-2.161-5.932-3.687-9.017-5.323C43.9,87.188,34.168,82.094,24.477,76.925c-4.438-2.368-8.357-5.449-11.887-9.036
		c-17.378-17.663-15.145-42.291,5.14-56.557C43.308-6.657,79.96,1.458,95.721,28.521c1.032,1.771,0.677,2.464-0.853,3.47
		c-6.364,4.188-12.721,8.394-18.931,12.805c-2.036,1.447-2.792,0.849-4.017-0.924c-6.483-9.384-15.517-13.332-26.828-12.184
		c-5.967,0.607-12.411,6.792-13.276,12.628c-0.313,2.106,0.764,3.396,2.315,4.312c3.865,2.283,7.775,4.497,11.733,6.615
		c8.585,4.591,17.23,9.069,25.813,13.666c4.543,2.434,8.555,5.59,12.173,9.277c17.076,17.405,15.012,41.896-4.8,56.119
		C69.61,141.086,58.929,144.02,46.46,144.32z"/>
</g>
</svg>
