<?xml version="1.0" encoding="utf-8"?>
<!-- Generator: Adobe Illustrator 16.0.0, SVG Export Plug-In . SVG Version: 6.00 Build 0)  -->
<!DOCTYPE svg PUBLIC "-//W3C//DTD SVG 1.1//EN" "http://www.w3.org/Graphics/SVG/1.1/DTD/svg11.dtd">
<svg version="1.1" id="Layer_1" xmlns="http://www.w3.org/2000/svg" xmlns:xlink="http://www.w3.org/1999/xlink" x="0px" y="0px"
	 width="500px" height="351px" viewBox="0 0 500 351" style="enable-background:new 0 0 500 351;" xml:space="preserve">
<g>
	<defs>
		<rect id="SVGID_1_" y="-61" width="500" height="500"/>
	</defs>
	<clipPath id="SVGID_2_">
		<use xlink:href="#SVGID_1_"  style="overflow:visible;"/>
	</clipPath>
	<path style="clip-path:url(#SVGID_2_);fill:#F1EEFD;" d="M57.18,331.62c0,0-32.7-76.97,8.66-135.13
		c41.35-58.16,16.13-109.73,88.73-161.06c93.32-65.98,183.33-0.88,210.18,43.26c26.84,44.14,118.01,21.61,91.52,147.2
		c-20.55,97.42-5.22,101.7-5.22,101.7L57.18,331.62z"/>
	<path style="clip-path:url(#SVGID_2_);fill:none;stroke:#C3C8FF;stroke-miterlimit:10;" d="M76.89,310.8
		c0,0-58.02-30.31-44.04-98.48c13.98-68.16,70.92-84.34,94.34-79.33c43.89,9.38-27.82,37.05-44.95-10.45
		C60.74,62.94,137.37,17.82,208.41,29.5c45.65,7.5,67.69,29.36,108.27,43.09c40.44,13.68,57.4-4.64,41.29-15.26
		c-15.29-10.08-70.82,6.37-51.75,28.91c26.11,30.87,89.02-16.96,137.78,36.3c48.76,53.26,6.43,120.22-31.05,125.8
		c-37.49,5.58-21.05-48.22,37.48-5.58c58.53,42.64-15.4,88.87-15.4,88.87"/>
</g>
<g>
	<defs>
		<rect id="SVGID_3_" y="-61" width="500" height="500"/>
	</defs>
	<clipPath id="SVGID_4_">
		<use xlink:href="#SVGID_3_"  style="overflow:visible;"/>
	</clipPath>
	<path style="clip-path:url(#SVGID_4_);fill:#3089E3;" d="M475.31,335.88H31.77c-2.35,0-4.26-1.91-4.26-4.26s1.91-4.26,4.26-4.26
		h447.81v4.26C479.57,333.97,477.66,335.88,475.31,335.88"/>
	<path style="clip-path:url(#SVGID_4_);fill:#1C145E;" d="M191.16,335.88H31.77c-2.35,0-4.26-1.91-4.26-4.26v-4.26h167.92v4.26
		C195.42,333.97,193.51,335.88,191.16,335.88"/>
	<path style="clip-path:url(#SVGID_4_);fill:#1C145E;" d="M257.42,164.83c-19,36.5-40.34,51.37-40.34,51.37l18.43,29.43l32.18-33.45
		L257.42,164.83z"/>
	<path style="clip-path:url(#SVGID_4_);fill:#1C145E;" d="M304.52,156.12l-47.09,8.71c-2.98,89.1-4.1,162.51-4.1,162.51h84.53
		c0,0,2.45-136.44-11.15-166.21L304.52,156.12z"/>
	
		<line style="clip-path:url(#SVGID_4_);fill:none;stroke:#3089E3;stroke-width:4;stroke-miterlimit:10;" x1="299.05" y1="201.53" x2="321.99" y2="199.58"/>
	<path style="clip-path:url(#SVGID_4_);fill:none;stroke:#3089E3;stroke-miterlimit:10;" d="M288.52,182.38
		c0,0,14.56,99.38,1.89,139.59"/>
	<path style="clip-path:url(#SVGID_4_);fill:none;stroke:#3089E3;stroke-miterlimit:10;" d="M273.27,232.15
		c0,0,14.07,5.66,32.3,6.26c18.24,0.6,6.89,10.3-20.14,8.46"/>
	<polygon style="clip-path:url(#SVGID_4_);fill:#E9A394;" points="276.89,152.5 288.52,183.38 304.52,156.12 293.97,138.89 	"/>
	<polygon style="clip-path:url(#SVGID_4_);fill:#3089E3;" points="288.52,183.38 310.21,177.38 304.52,156.12 	"/>
	<polygon style="clip-path:url(#SVGID_4_);fill:#3089E3;" points="279.48,159.36 267.7,172.51 288.52,183.38 	"/>
	<path style="clip-path:url(#SVGID_4_);fill:#E9A394;" d="M235.52,245.63c0,0,6.88-14.34-7.89-32.81
		c-8.19-10.24-11.96-27.92-11.96-27.92l-12.3,1.87l11.26,58.86H235.52z"/>
	<polygon style="clip-path:url(#SVGID_4_);fill:#E9A394;" points="200.85,166.44 195.81,171.02 202.55,176.96 181.46,176.6 
		181.01,183.84 203.36,186.77 215.67,184.9 	"/>
	<polygon style="clip-path:url(#SVGID_4_);fill:#E9A394;" points="204.54,177.71 184.3,169.36 183,172.96 199.88,180.05 	"/>
	<path style="clip-path:url(#SVGID_4_);fill:#1C145E;" d="M326.71,161.13c0,0,27.18,15.47,35.76,73.44l-31.53,7.61L326.71,161.13z"
		/>
	<polygon style="clip-path:url(#SVGID_4_);fill:#E9A394;" points="267.69,114.76 257.42,141.02 265.27,143.44 267.69,158.23 
		292.74,152.49 296.37,112.34 	"/>
	<polygon style="clip-path:url(#SVGID_4_);fill:#E37A82;" points="284.41,121 265.25,121 267.34,115.34 284.41,114.28 	"/>
	<path style="clip-path:url(#SVGID_4_);fill:#16005C;" d="M294.42,132.98c0,0-12.23-2.53-12.23-15.18c0,0-18.14,2.47-24.4-7.38
		c-7.42-11.66,3.92-25.07,13.28-22.34c0,0-5.9,5.85,3.06,6.53c6.39,0.49,18.06-8.01,22.23,0.21c0,0,32.16,7.34,8.15,37.31
		L294.42,132.98z"/>
	<path style="clip-path:url(#SVGID_4_);fill:none;stroke:#16005C;stroke-width:2;stroke-miterlimit:10;" d="M282.2,116.81
		c0,0-24.25,4.69-29.32-12.7c-2.96-10.16,7.22-15.95,7.22-15.95"/>
	
		<circle style="clip-path:url(#SVGID_4_);fill:none;stroke:#16005C;stroke-width:0.5;stroke-miterlimit:10;" cx="271.94" cy="131.03" r="9.15"/>
	
		<line style="clip-path:url(#SVGID_4_);fill:none;stroke:#16005C;stroke-width:0.5;stroke-miterlimit:10;" x1="280.6" y1="128.07" x2="293.63" y2="128.78"/>
	<path style="clip-path:url(#SVGID_4_);fill:#E9A394;" d="M310.21,135.29c0,5.67-7.6,10.27-13.26,10.27c-5.67,0-7.27-4.6-7.27-10.27
		c0-5.67,4.6-10.26,10.27-10.26C305.62,125.02,310.21,129.62,310.21,135.29"/>
	<polygon style="clip-path:url(#SVGID_4_);fill:#E9A394;" points="358.71,235.47 358.71,282.8 335.11,282.8 333.14,241.64 	"/>
	<polygon style="clip-path:url(#SVGID_4_);fill:#1C145C;" points="255.58,224.77 256.58,191.79 241.29,239.63 	"/>
	<polygon style="clip-path:url(#SVGID_4_);fill:#E37A82;" points="278.11,155.64 292.74,152.5 280.75,162.73 	"/>
	<path style="clip-path:url(#SVGID_4_);fill:#16005C;" d="M271.21,131.63c0,2.02-0.78,3.65-1.75,3.65s-1.75-1.63-1.75-3.65
		c0-2.02,0.79-3.65,1.75-3.65S271.21,129.61,271.21,131.63"/>
	<path style="clip-path:url(#SVGID_4_);fill:#16005C;" d="M274.21,122.75c0-4.9-3.9-1.6-3.9-1.6L274.21,122.75z"/>
	<path style="clip-path:url(#SVGID_4_);fill:#FFFFFF;" d="M270.31,144.42l5.58-1.48C275.89,142.94,278.28,163.62,270.31,144.42"/>
	<path style="clip-path:url(#SVGID_4_);fill:#3089E3;" d="M150.17,237.11c0,0,37.61-5.82,38.35,59.77
		c0.12,10.64,6.9,30.48,6.9,30.48h-34.09L150.17,237.11z"/>
	<path style="clip-path:url(#SVGID_4_);fill:#3089E3;" d="M110.85,231.29l-22.73,5.37l6.94,90.7h88.45c0,0-2.97-71.76-36.32-93.29
		L110.85,231.29z"/>
	<path style="clip-path:url(#SVGID_4_);fill:#3089E3;" d="M88.11,236.65c-23.43,5.34-17.95,23.33-13.42,60.26
		c-11.7,9.5-0.48,13.77-0.48,13.77c-12.84,13.61,3.18,16.67,3.18,16.67h42.77C120.17,327.35,111.56,231.3,88.11,236.65"/>
	
		<line style="clip-path:url(#SVGID_4_);fill:none;stroke:#5321D7;stroke-miterlimit:10;" x1="117.63" y1="306.4" x2="107.36" y2="259.29"/>
	<path style="clip-path:url(#SVGID_4_);fill:#E9A394;" d="M77.39,327.35c0,0,7.22-16.58,30.05-24.92
		c18.92-6.91,46.61,11.03,64.33-6.02l3.28,19.19l-54.88,11.74H77.39z"/>
	<polygon style="clip-path:url(#SVGID_4_);fill:#E9A394;" points="152.64,184.57 169.56,210.33 158.7,214.21 156.82,235.14 
		124.19,223.8 127.26,181.22 	"/>
	<polygon style="clip-path:url(#SVGID_4_);fill:#E37A82;" points="127.53,211.63 110.85,231.29 132.24,257.5 141.89,226.88 	"/>
	<polygon style="clip-path:url(#SVGID_4_);fill:#E37A82;" points="133.1,199.46 156.98,191.18 152.64,184.57 129.06,187.03 	"/>
	<path style="clip-path:url(#SVGID_4_);fill:#16005C;" d="M131.04,208.48c0,0,7.23,14.47,2.2-13.42c0,0,6.86,0.77,12.23-8.28
		c0,0-1.67,14.75,14.09,0c15.76-14.75-4.27-26.29-28.75-21.95c-21.21,3.76-42.44,15.75-11.42,56.38L131.04,208.48z"/>
	<path style="clip-path:url(#SVGID_4_);fill:#E9A394;" d="M127.18,214.23c-1.63,2.18-4.42,4.16-7.33,4.59
		c-5.82,0.85-11.5-3.74-12.34-9.56c-0.85-5.82,2.09-8.84,7.91-9.68c3.27-0.48,7.06,0.49,9.89,2.47
		C126.16,203.11,127.18,214.23,127.18,214.23"/>
	<path style="clip-path:url(#SVGID_4_);fill:#16005C;" d="M150.81,202.16c0.54,1.99,0.27,3.79-0.6,4.03s-2.01-1.18-2.55-3.17
		c-0.54-1.99-0.27-3.79,0.6-4.03C149.13,198.75,150.27,200.17,150.81,202.16"/>
	<path style="clip-path:url(#SVGID_4_);fill:#16005C;" d="M143.59,197.54c0,0-0.85-4.78,3.59-2.48L143.59,197.54z"/>
	<polygon style="clip-path:url(#SVGID_4_);fill:#0058A0;" points="108.17,232.09 112.05,227.64 110.63,224.34 119.4,221.21 
		144.54,233.86 145.47,243.52 141.21,242.17 134.27,268.07 	"/>
	<polyline style="clip-path:url(#SVGID_4_);fill:none;stroke:#5321D7;stroke-miterlimit:10;" points="130.89,238.41 145.47,243.52 
		144.54,233.86 	"/>
	<path style="clip-path:url(#SVGID_4_);fill:#16005C;" d="M133.24,195.06c0,0,2.94,17.08,7.23,20.59c1.41,1.15,4.08-1.78,16.35-2.03
		c7.51-0.15,7.5,26.05-2.46,25.3c-9.96-0.75-25.1-6.96-27.37-26.06C125,196.11,133.24,195.06,133.24,195.06"/>
	<path style="clip-path:url(#SVGID_4_);fill:none;stroke:#C4C6C5;stroke-miterlimit:10;" d="M145.47,218.82c0,0,2.53,4.71,7.52,1.52
		"/>
	<path style="clip-path:url(#SVGID_4_);fill:#1C145E;" d="M202.4,316.57h-83.97v6.22c0,2.52,2.04,4.56,4.56,4.56h79.41
		c2.52,0,4.56-2.04,4.56-4.56v-1.66C206.96,318.61,204.92,316.57,202.4,316.57"/>
	<path style="clip-path:url(#SVGID_4_);fill:#1C145E;" d="M270.6,254.21h-97.68c-2.9,0-5.35,2.16-5.72,5.04l-7.87,61.61
		c-0.44,3.45,2.25,6.5,5.72,6.5h97.68c2.9,0,5.35-2.16,5.72-5.04l7.87-61.61C276.76,257.26,274.07,254.21,270.6,254.21"/>
	<path style="clip-path:url(#SVGID_4_);fill:#3089E3;" d="M275.32,254.21h-97.68c-2.9,0-5.35,2.16-5.72,5.04l-7.87,61.61
		c-0.44,3.45,2.25,6.5,5.72,6.5h97.67c2.9,0,5.35-2.16,5.72-5.04l7.87-61.61C281.49,257.26,278.8,254.21,275.32,254.21"/>
	<path style="clip-path:url(#SVGID_4_);fill:#FFFFFF;" d="M232.19,290.78c-0.56,5.32-5.33,9.63-10.65,9.63
		c-5.32,0-9.18-4.31-8.62-9.63s5.33-9.63,10.65-9.63C228.89,281.15,232.74,285.46,232.19,290.78"/>
	
		<line style="clip-path:url(#SVGID_4_);fill:none;stroke:#1C145E;stroke-miterlimit:10;" x1="273.19" y1="326.83" x2="151.61" y2="326.83"/>
	<path style="clip-path:url(#SVGID_4_);fill:#16005C;" d="M326.93,244.38l40.36,0.77l-9.15-49.37l-21.46,2.43
		c0,0-9.67,14.27-2.03,25.36C343.26,236.08,326.04,236.55,326.93,244.38"/>
	<path style="clip-path:url(#SVGID_4_);fill:none;stroke:#3089E3;stroke-width:2;stroke-miterlimit:10;" d="M336.68,198.2
		c0,0-9.67,14.27-2.03,25.36c8.61,12.52-8.6,12.98-7.72,20.82"/>
	<path style="clip-path:url(#SVGID_4_);fill:#3089E3;" d="M344.73,238.41c0,0-18.36,18.02-28.05,85.93h20.44L344.73,238.41z"/>
	<path style="clip-path:url(#SVGID_4_);fill:#D2EBFF;" d="M393.26,233.39l-7.99,90.95H325.9l7.39-34.74c0,0-22.6-11.79,11.44-51.19
		l8.46-4.35l36.76-2.78L393.26,233.39z"/>
	<path style="clip-path:url(#SVGID_4_);fill:none;stroke:#3089E3;stroke-miterlimit:10;" d="M344.73,279.12c0,0-3.56,6.1-0.14,10.99
		l-5.04,34.23"/>
	
		<line style="clip-path:url(#SVGID_4_);fill:#3089E3;stroke:#3089E3;stroke-miterlimit:10;" x1="336.43" y1="289.76" x2="370.82" y2="290.78"/>
	
		<line style="clip-path:url(#SVGID_4_);fill:none;stroke:#3089E3;stroke-miterlimit:10;" x1="377.6" y1="306.88" x2="373.96" y2="263.14"/>
	<path style="clip-path:url(#SVGID_4_);fill:#D2EBFF;" d="M393.26,233.39c0,0,3.28,4.13,7.08,13.69
		c5.38,13.56,11.8,38.07,11.38,77.26h-26.45L393.26,233.39z"/>
	<path style="clip-path:url(#SVGID_4_);fill:#E9A394;" d="M411.72,327.34c0,0-13.21-30.22-46.45-21.57
		c-36.29,9.44-49.77,7.68-49.77,7.68l-2.75,13.89H411.72z"/>
	<path style="clip-path:url(#SVGID_4_);fill:#3089E3;" d="M377.12,299.42l-11.79,2.64l26.79,25.29h25.25
		C417.37,327.34,406.48,300.96,377.12,299.42"/>
	
		<line style="clip-path:url(#SVGID_4_);fill:none;stroke:#C3C8FF;stroke-miterlimit:10;" x1="377.85" y1="307.26" x2="383.47" y2="305.55"/>
	<polygon style="clip-path:url(#SVGID_4_);fill:#E9A394;" points="315.5,313.45 298.25,309.88 285.89,327.34 312.75,327.34 	"/>
	<polygon style="clip-path:url(#SVGID_4_);fill:#3089E3;" points="344.73,279.12 376.77,247.07 370.82,244.26 393.26,233.39 
		382.96,226.84 358.97,226.84 344.73,244.64 348.66,245.63 344.73,248.39 	"/>
	<polygon style="clip-path:url(#SVGID_4_);fill:#E9A394;" points="367.13,237.73 377.6,230.5 366.3,205.23 348.78,216.23 
		353.72,237.19 344.73,279.12 	"/>
	<polygon style="clip-path:url(#SVGID_4_);fill:#E37A82;" points="350.19,222.21 362.48,215.81 351.51,227.81 	"/>
	<polygon style="clip-path:url(#SVGID_4_);fill:#E9A394;" points="327.74,185.63 322.37,215.38 330.42,215.38 339.46,227.81 
		362.48,215.81 346.38,179.93 	"/>
	<polygon style="clip-path:url(#SVGID_4_);fill:#E37A82;" points="326.44,192.85 325.9,196.12 347.13,193.22 346.8,189.15 	"/>
	<path style="clip-path:url(#SVGID_4_);fill:#16005C;" d="M386.42,183.38c-5.32-14.41-11.81-19.96-11.81-19.96
		c-13.02-12.94-35.29,1.42-35.29,1.42c-28.53-6.91-16.95,28.52-16.95,28.52l23.24-2.85c3.25,19.49,14.87,9.62,14.87,9.62l5.42,9.77
		c0,0-5.47,4.83,0.23,13.12c4.69,6.82-6.54,9.14-3.64,16.41l44.91-9.31C407.4,200.55,396.03,209.42,386.42,183.38"/>
	<path style="clip-path:url(#SVGID_4_);fill:none;stroke:#3089E3;stroke-width:2;stroke-miterlimit:10;" d="M320.55,193.58
		c0,0-4.11-20.23,3.44-26.81c3.94-3.43,16.33-1.94,16.33-1.94"/>
	<path style="clip-path:url(#SVGID_4_);fill:none;stroke:#16005C;stroke-width:2;stroke-miterlimit:10;" d="M410.34,229.26
		c0,0,3.59-13.45-15.96-28.7"/>
	<path style="clip-path:url(#SVGID_4_);fill:#E9A394;" d="M370.82,201.47c0,5.34-4.33,9.68-9.68,9.68c-5.34,0-9.67-4.33-9.67-9.68
		s4.33-9.68,9.67-9.68C366.49,191.79,370.82,196.13,370.82,201.47"/>
	<path style="clip-path:url(#SVGID_4_);fill:#FFFFFF;" d="M336.43,214.29l6-1.47C342.43,212.81,344.53,229.92,336.43,214.29"/>
	<path style="clip-path:url(#SVGID_4_);fill:none;stroke:#1C145E;stroke-width:0.5;stroke-miterlimit:10;" d="M331.43,204.18
		c0,0,1.91-11.64,6.09,0"/>
	<path style="clip-path:url(#SVGID_4_);fill:#16005C;" d="M332.91,195.33c0,0,2.33-3.94,5.08,0H332.91z"/>
	<path style="clip-path:url(#SVGID_4_);fill:#C3C8FF;" d="M242.65,90.51c-3.48-9.68-14.42-14.52-24.01-10.39
		c-8.25,3.56-12.63,12.92-10.07,21.54c1.43,4.82,4.66,8.54,8.71,10.72c3.74,2.01,6.94,4.87,9.29,8.4l0.68,1.02l13.44-4.83
		l-0.13-1.21c-0.44-4.29,0.31-8.58,1.89-12.59C244.01,99.25,244.19,94.78,242.65,90.51"/>
	<path style="clip-path:url(#SVGID_4_);fill:#D2EBFF;" d="M242.65,90.51c-3.48-9.68-14.42-14.52-24.01-10.39
		c-8.25,3.56-12.63,12.92-10.07,21.54c1.43,4.82,4.66,8.54,8.71,10.72c3.74,2.01,6.94,4.87,9.29,8.4l0.68,1.02l13.44-4.83
		l-0.13-1.21c-0.44-4.29,0.31-8.58,1.89-12.59C244.01,99.25,244.19,94.78,242.65,90.51"/>
	<path style="clip-path:url(#SVGID_4_);fill:none;stroke:#FFFFFF;stroke-miterlimit:10;" d="M230.33,117.83l-10.71-15.11
		c0,0,0.19-3.06,3.56-2.57c3.36,0.49,5.37,5.79,2.97,4.93c-2.4-0.86-3.25-7.09,1.29-8.04c4.54-0.95,6.06,9.36,3.55,7.38
		c-2.51-1.99-1.98-8.55,2.88-8.61l2.85,21.79"/>
	<path style="clip-path:url(#SVGID_4_);fill:#16005C;" d="M240.38,127.28l-6.31,2.27c-2.4,0.86-5.04-0.38-5.91-2.78l-1.33-3.71
		c-0.86-2.4,0.38-5.04,2.78-5.91l6.31-2.27c2.4-0.86,5.04,0.38,5.91,2.78l1.33,3.71C244.03,123.77,242.78,126.42,240.38,127.28"/>
	
		<rect x="223.95" y="114.64" transform="matrix(0.941 -0.3384 0.3384 0.941 -26.6541 86.2466)" style="clip-path:url(#SVGID_4_);fill:#3089E3;" width="20.19" height="9.86"/>
	<line style="clip-path:url(#SVGID_4_);fill:#3089E3;" x1="225.32" y1="74.06" x2="223.42" y2="63.19"/>
	<line style="clip-path:url(#SVGID_4_);fill:#3089E3;" x1="211.63" y1="80.53" x2="202.55" y2="71.67"/>
	<line style="clip-path:url(#SVGID_4_);fill:#3089E3;" x1="202.17" y1="96.64" x2="191.81" y2="97.38"/>
	<line style="clip-path:url(#SVGID_4_);fill:#3089E3;" x1="240.25" y1="80.01" x2="244.91" y2="71.37"/>
	<path style="clip-path:url(#SVGID_4_);fill:#1C145C;" d="M386.09,159.86h64.23c2.23,0,4.37-1.81,4.78-4.04l6.64-36.62
		c0.41-2.23-1.08-4.04-3.31-4.04H394.2c-2.23,0-4.37,1.81-4.78,4.04l-6.64,36.62C382.38,158.05,383.86,159.86,386.09,159.86"/>
	<path style="clip-path:url(#SVGID_4_);fill:#FFFFFF;" d="M430.82,137.51c-0.42,2.32,1.12,4.2,3.44,4.2s4.54-1.88,4.96-4.2
		c0.42-2.32-1.12-4.2-3.44-4.2C433.46,133.31,431.24,135.19,430.82,137.51"/>
	<path style="clip-path:url(#SVGID_4_);fill:#FFFFFF;" d="M418.06,137.51c-0.42,2.32,1.12,4.2,3.44,4.2c2.32,0,4.54-1.88,4.96-4.2
		c0.42-2.32-1.12-4.2-3.44-4.2S418.48,135.19,418.06,137.51"/>
	<path style="clip-path:url(#SVGID_4_);fill:#FFFFFF;" d="M405.3,137.51c-0.42,2.32,1.12,4.2,3.44,4.2c2.32,0,4.54-1.88,4.96-4.2
		c0.42-2.32-1.12-4.2-3.44-4.2S405.72,135.19,405.3,137.51"/>
	<polygon style="clip-path:url(#SVGID_4_);fill:#1C145C;" points="420.66,157.46 398.34,170.72 402.34,156.41 	"/>
	<path style="clip-path:url(#SVGID_4_);fill:#D2EBFF;" d="M179.18,154.43h-64.23c-2.23,0-4.37-1.81-4.78-4.04l-6.64-36.62
		c-0.4-2.23,1.08-4.04,3.31-4.04h64.23c2.23,0,4.37,1.81,4.78,4.04l6.64,36.62C182.9,152.62,181.41,154.43,179.18,154.43"/>
	<path style="clip-path:url(#SVGID_4_);fill:#FFFFFF;" d="M134.46,132.08c0.42,2.32-1.12,4.2-3.44,4.2c-2.32,0-4.54-1.88-4.96-4.2
		c-0.42-2.32,1.12-4.2,3.44-4.2C131.82,127.88,134.04,129.76,134.46,132.08"/>
	<path style="clip-path:url(#SVGID_4_);fill:#FFFFFF;" d="M147.22,132.08c0.42,2.32-1.12,4.2-3.44,4.2c-2.32,0-4.54-1.88-4.96-4.2
		c-0.42-2.32,1.12-4.2,3.44-4.2C144.57,127.88,146.8,129.76,147.22,132.08"/>
	<path style="clip-path:url(#SVGID_4_);fill:#FFFFFF;" d="M159.97,132.08c0.42,2.32-1.12,4.2-3.44,4.2c-2.32,0-4.54-1.88-4.96-4.2
		c-0.42-2.32,1.12-4.2,3.44-4.2C157.33,127.88,159.55,129.76,159.97,132.08"/>
	<polygon style="clip-path:url(#SVGID_4_);fill:#D2EBFF;" points="156.27,152.03 159.79,164.83 174.04,151.13 	"/>
</g>
<g>
	<path style="fill:#080607;" d="M265.59,402.16c-0.17,0-0.34,0.01-0.51,0.02l-0.07-0.63c0.19-0.15,0.29-0.39,0.27-0.64
		c-0.05-0.39-0.4-0.67-0.8-0.63c-0.39,0.05-0.67,0.4-0.63,0.8c0.03,0.25,0.19,0.46,0.41,0.56l0.07,0.62
		c-0.71,0.12-1.4,0.33-2.06,0.65l0.33,0.68c0.93-0.45,1.94-0.67,3-0.67c0.5,0,0.99,0.05,1.47,0.16l0.16-0.74
		C266.69,402.22,266.14,402.16,265.59,402.16"/>
</g>
</svg>
